KleiExtBldIta.ufo
<glyph name="exclam" format="1">
  <advance width="394"/>
  <unicode hex="0021"/>
  <outline>
    <contour>
      <point x="178.75" y="159.629" type="curve" smooth="yes"/>
      <point x="219.256" y="159.629"/>
      <point x="246.524" y="127.986"/>
      <point x="246.524" y="88.5205" type="curve" smooth="yes"/>
      <point x="246.524" y="27.9883"/>
      <point x="191.312" y="-18"/>
      <point x="142" y="-18" type="curve" smooth="yes"/>
      <point x="100.501" y="-18"/>
      <point x="74.1436" y="13.3545"/>
      <point x="74.1436" y="52.4268" type="curve" smooth="yes"/>
      <point x="74.1436" y="113.11"/>
      <point x="127.531" y="159.629"/>
    </contour>
    <contour>
      <point x="315.014" y="765.375" type="curve" smooth="yes"/>
      <point x="317.113" y="765.375" type="line" smooth="yes"/>
      <point x="348.286" y="765.375"/>
      <point x="382.788" y="738.085"/>
      <point x="382.788" y="694.267" type="curve" smooth="yes"/>
      <point x="382.788" y="634.333"/>
      <point x="282.27" y="380.072"/>
      <point x="233.877" y="221.021" type="curve" smooth="yes"/>
      <point x="228.146" y="202.188"/>
      <point x="216.173" y="189.625"/>
      <point x="187.964" y="189.625" type="curve" smooth="yes"/>
      <point x="160.807" y="189.625"/>
      <point x="154.37" y="208.966"/>
      <point x="154.37" y="225.561" type="curve" smooth="yes"/>
      <point x="154.37" y="228.608"/>
      <point x="154.732" y="231.86"/>
      <point x="155.395" y="235.174" type="curve" smooth="yes"/>
      <point x="210.407" y="658.173" type="line" smooth="yes"/>
      <point x="216.407" y="701"/>
      <point x="249.325" y="765.375"/>
    </contour>
  </outline>
</glyph>
<glyph name="quotedbl" format="1">
  <advance width="296"/>
  <unicode hex="0022"/>
  <outline>
    <contour>
      <point x="270.702" y="712.38" type="curve" smooth="yes"/>
      <point x="286.019" y="712.38" type="line" smooth="yes"/>
      <point x="308.113" y="712.38"/>
      <point x="323.725" y="697.988"/>
      <point x="323.725" y="678.508" type="curve" smooth="yes"/>
      <point x="323.725" y="670.532"/>
      <point x="320.181" y="661.262"/>
      <point x="317.845" y="654.498" type="curve" smooth="yes"/>
      <point x="265.488" y="509.071" type="line"/>
      <point x="262.132" y="496.052"/>
      <point x="252.334" y="490.152"/>
      <point x="240.827" y="490.152" type="curve" smooth="yes"/>
      <point x="213.549" y="490.152" type="line" smooth="yes"/>
      <point x="202.206" y="490.152"/>
      <point x="195.057" y="498.319"/>
      <point x="195.057" y="507.394" type="curve" smooth="yes"/>
      <point x="195.057" y="508.926"/>
      <point x="195.246" y="510.718"/>
      <point x="195.482" y="512.048" type="curve"/>
      <point x="215.883" y="664.113" type="line"/>
      <point x="220.29" y="691.312"/>
      <point x="248.069" y="712.38"/>
    </contour>
    <contour>
      <point x="120.015" y="712.38" type="curve" smooth="yes"/>
      <point x="135.331" y="712.38" type="line" smooth="yes"/>
      <point x="157.426" y="712.38"/>
      <point x="173.037" y="697.988"/>
      <point x="173.037" y="678.508" type="curve" smooth="yes"/>
      <point x="173.037" y="670.532"/>
      <point x="169.493" y="661.262"/>
      <point x="167.157" y="654.498" type="curve" smooth="yes"/>
      <point x="114.801" y="509.071" type="line"/>
      <point x="111.444" y="496.052"/>
      <point x="101.646" y="490.152"/>
      <point x="90.1396" y="490.152" type="curve" smooth="yes"/>
      <point x="62.8613" y="490.152" type="line" smooth="yes"/>
      <point x="51.5186" y="490.152"/>
      <point x="44.3691" y="498.319"/>
      <point x="44.3691" y="507.394" type="curve" smooth="yes"/>
      <point x="44.3691" y="508.926"/>
      <point x="44.5586" y="510.718"/>
      <point x="44.7949" y="512.048" type="curve"/>
      <point x="65.1953" y="664.113" type="line"/>
      <point x="69.6025" y="691.312"/>
      <point x="97.3818" y="712.38"/>
    </contour>
  </outline>
</glyph>
<glyph name="dollar" format="1">
  <advance width="556"/>
  <unicode hex="0024"/>
  <outline>
    <contour>
      <point x="299" y="263" type="curve"/>
      <point x="271.491" y="184.97"/>
      <point x="249.422" y="121.497"/>
      <point x="230.486" y="67.4316" type="curve"/>
      <point x="307.917" y="73.0801"/>
      <point x="356.489" y="118.681"/>
      <point x="356.489" y="175" type="curve" smooth="yes"/>
      <point x="356.489" y="207.486"/>
      <point x="340.836" y="234.061"/>
    </contour>
    <contour>
      <point x="431.361" y="645.595" type="curve" smooth="yes"/>
      <point x="427.143" y="631.526"/>
      <point x="421.377" y="612.699"/>
      <point x="416.795" y="598.27" type="curve"/>
      <point x="468.968" y="590.543"/>
      <point x="508.665" y="574.578"/>
      <point x="508.665" y="530.086" type="curve" smooth="yes"/>
      <point x="508.665" y="499.334"/>
      <point x="473.815" y="490.481"/>
      <point x="465.646" y="490.481" type="curve" smooth="yes"/>
      <point x="454.718" y="490.481"/>
      <point x="441.196" y="503.508"/>
      <point x="441.196" y="516.647" type="curve" smooth="yes"/>
      <point x="441.196" y="525.344"/>
      <point x="440.904" y="533.762"/>
      <point x="440.904" y="538.171" type="curve" smooth="yes"/>
      <point x="440.904" y="549.079"/>
      <point x="430.155" y="564.014"/>
      <point x="407.833" y="568.509" type="curve"/>
      <point x="386.16" y="505.682"/>
      <point x="363.668" y="445.76"/>
      <point x="339" y="378.1" type="curve"/>
      <point x="412.774" y="333.984"/>
      <point x="464.646" y="274.464"/>
      <point x="464.646" y="202.073" type="curve" smooth="yes"/>
      <point x="464.646" y="69.0381"/>
      <point x="322.062" y="38.8799"/>
      <point x="216.494" y="37.4014" type="curve"/>
      <point x="203.432" y="0.646484"/>
      <point x="193.815" y="-25.7061"/>
      <point x="193.487" y="-26.6084" type="curve" smooth="yes"/>
      <point x="193.194" y="-27.4111" type="line"/>
      <point x="192.698" y="-28.124" type="line" smooth="yes"/>
      <point x="183.785" y="-40.9404"/>
      <point x="169.945" y="-47"/>
      <point x="157.646" y="-47" type="curve" smooth="yes"/>
      <point x="148.581" y="-47"/>
      <point x="139.942" y="-44.5771"/>
      <point x="134.18" y="-37.374" type="curve" smooth="yes"/>
      <point x="131.694" y="-34.2686" type="line"/>
      <point x="133.091" y="-30.5449" type="line" smooth="yes"/>
      <point x="140.961" y="-9.5625"/>
      <point x="149.484" y="22.9453"/>
      <point x="156.491" y="44.6738" type="curve"/>
      <point x="92.5654" y="58.8135"/>
      <point x="50.6455" y="98.9375"/>
      <point x="50.6455" y="128.974" type="curve" smooth="yes"/>
      <point x="50.6455" y="149.57"/>
      <point x="66.3916" y="188.965"/>
      <point x="101.646" y="188.965" type="curve" smooth="yes"/>
      <point x="117.673" y="188.965"/>
      <point x="136.129" y="173.351"/>
      <point x="136.129" y="161.761" type="curve" smooth="yes"/>
      <point x="136.129" y="149.676"/>
      <point x="125.944" y="135.686"/>
      <point x="125.944" y="122.743" type="curve" smooth="yes"/>
      <point x="125.944" y="104.209"/>
      <point x="136.811" y="86.7588"/>
      <point x="172.208" y="81.4893" type="curve"/>
      <point x="202.188" y="162.218"/>
      <point x="227.367" y="229.075"/>
      <point x="253.059" y="301.727" type="curve"/>
      <point x="196.321" y="341.913"/>
      <point x="136.646" y="384.427"/>
      <point x="136.646" y="466.923" type="curve" smooth="yes"/>
      <point x="136.646" y="563.612"/>
      <point x="249.572" y="610.551"/>
      <point x="356.704" y="612.845" type="curve"/>
      <point x="363.53" y="632.438"/>
      <point x="371.646" y="653.534"/>
      <point x="377.56" y="671" type="curve" smooth="yes"/>
      <point x="377.672" y="671" type="line"/>
      <point x="377.818" y="671" type="line" smooth="yes"/>
      <point x="382.868" y="673.55"/>
      <point x="397.482" y="675"/>
      <point x="408.646" y="675" type="curve" smooth="yes"/>
      <point x="422.289" y="675"/>
      <point x="432.74" y="665.356"/>
      <point x="432.74" y="653.125" type="curve" smooth="yes"/>
      <point x="432.74" y="650.178"/>
      <point x="431.898" y="647.391"/>
    </contour>
    <contour>
      <point x="293.192" y="412.648" type="curve"/>
      <point x="312.706" y="469.958"/>
      <point x="329.797" y="519.55"/>
      <point x="348.71" y="576.676" type="curve"/>
      <point x="299.338" y="571.879"/>
      <point x="246.759" y="539.442"/>
      <point x="246.759" y="491" type="curve" smooth="yes"/>
      <point x="246.759" y="457.4"/>
      <point x="269" y="427"/>
    </contour>
  </outline>
</glyph>
<glyph name="percent" format="1">
  <advance width="868"/>
  <unicode hex="0025"/>
  <outline>
    <contour>
      <point x="451.086" y="130.696" type="curve" smooth="yes"/>
      <point x="451.086" y="280.091"/>
      <point x="572.254" y="381.812"/>
      <point x="682.832" y="381.812" type="curve" smooth="yes"/>
      <point x="747.147" y="381.812"/>
      <point x="802.194" y="340.406"/>
      <point x="802.194" y="270.213" type="curve" smooth="yes"/>
      <point x="802.194" y="121.831"/>
      <point x="697.679" y="3.60547"/>
      <point x="585.206" y="3.60547" type="curve" smooth="yes"/>
      <point x="512.671" y="3.60547"/>
      <point x="451.086" y="55.6777"/>
    </contour>
    <contour>
      <point x="673.956" y="351.478" type="curve" smooth="yes"/>
      <point x="623.315" y="351.478"/>
      <point x="567.062" y="237.782"/>
      <point x="567.062" y="124.479" type="curve" smooth="yes"/>
      <point x="567.062" y="79.7549"/>
      <point x="572.373" y="33.8369"/>
      <point x="592.966" y="33.8369" type="curve" smooth="yes"/>
      <point x="636.14" y="33.8369"/>
      <point x="699.575" y="166.531"/>
      <point x="699.575" y="261.793" type="curve" smooth="yes"/>
      <point x="699.575" y="304.778"/>
      <point x="697.17" y="351.478"/>
    </contour>
    <contour>
      <point x="277.949" y="635.848" type="curve" smooth="yes"/>
      <point x="303.725" y="635.848"/>
      <point x="336.078" y="628.948"/>
      <point x="351.422" y="618.037" type="curve"/>
      <point x="413.363" y="609.769"/>
      <point x="438.351" y="600.688"/>
      <point x="468.695" y="600.688" type="curve" smooth="yes"/>
      <point x="611.63" y="600.688"/>
      <point x="621.947" y="662.998"/>
      <point x="693.546" y="662.998" type="curve" smooth="yes"/>
      <point x="699.801" y="662.998"/>
      <point x="706.947" y="662.906"/>
      <point x="711.946" y="657.892" type="curve" smooth="yes"/>
      <point x="732.688" y="647.354" type="line" smooth="yes"/>
      <point x="734.562" y="645.514"/>
      <point x="738.572" y="642.306"/>
      <point x="738.572" y="636.563" type="curve" smooth="yes"/>
      <point x="738.572" y="631.077"/>
      <point x="735.575" y="627.307"/>
      <point x="733.782" y="625.147" type="curve" smooth="yes"/>
      <point x="195.329" y="-8.60742" type="line" smooth="yes"/>
      <point x="192.229" y="-12.4287"/>
      <point x="187.792" y="-13.9043"/>
      <point x="184.124" y="-13.9043" type="curve" smooth="yes"/>
      <point x="177.872" y="-13.9043"/>
      <point x="129.739" y="-4.58008"/>
      <point x="127.006" y="-2.76172" type="curve"/>
      <point x="122.749" y="0.901367" type="line"/>
      <point x="122.436" y="1.11719" type="line" smooth="yes"/>
      <point x="118.559" y="3.77832"/>
      <point x="116.453" y="8.00195"/>
      <point x="116.453" y="12.0381" type="curve" smooth="yes"/>
      <point x="116.453" y="17.1279"/>
      <point x="118.964" y="21.085"/>
      <point x="121.358" y="23.9668" type="curve" smooth="yes"/>
      <point x="608.455" y="604.985" type="line"/>
      <point x="577.371" y="587.382"/>
      <point x="548.781" y="568.94"/>
      <point x="473.794" y="568.94" type="curve" smooth="yes"/>
      <point x="441.031" y="568.94"/>
      <point x="420.988" y="575.032"/>
      <point x="391.729" y="580.715" type="curve"/>
      <point x="397.221" y="564.479"/>
      <point x="400.24" y="549.689"/>
      <point x="400.24" y="530.774" type="curve" smooth="yes"/>
      <point x="400.24" y="382.392"/>
      <point x="292.397" y="264.167"/>
      <point x="179.752" y="264.167" type="curve" smooth="yes"/>
      <point x="113.618" y="264.167"/>
      <point x="49.9766" y="312.208"/>
      <point x="49.9766" y="385.43" type="curve" smooth="yes"/>
      <point x="49.9766" y="531.157"/>
      <point x="170.752" y="635.848"/>
    </contour>
    <contour>
      <point x="236.188" y="596.515" type="curve"/>
      <point x="192.243" y="562.555"/>
      <point x="163.595" y="480.423"/>
      <point x="163.595" y="384.203" type="curve" smooth="yes"/>
      <point x="163.595" y="340.038"/>
      <point x="167.77" y="294.374"/>
      <point x="188.021" y="294.374" type="curve" smooth="yes"/>
      <point x="229.193" y="294.374"/>
      <point x="296.862" y="417.064"/>
      <point x="296.862" y="522.329" type="curve" smooth="yes"/>
      <point x="296.862" y="551.372"/>
      <point x="296.668" y="589.408"/>
      <point x="282.427" y="600.867" type="curve"/>
      <point x="274.066" y="601.374"/>
      <point x="267.755" y="601.554"/>
      <point x="260.377" y="601.554" type="curve" smooth="yes"/>
      <point x="248.184" y="601.554"/>
      <point x="244.908" y="598.936"/>
    </contour>
  </outline>
</glyph>
<glyph name="ampersand" format="1">
  <advance width="1023"/>
  <unicode hex="0026"/>
  <outline>
    <contour>
      <point x="191.981" y="349.646" type="curve" smooth="yes"/>
      <point x="191.981" y="328.771"/>
      <point x="200.507" y="284.115"/>
      <point x="207.136" y="272.685" type="curve"/>
      <point x="244.445" y="297.047"/>
      <point x="447.706" y="497.281"/>
      <point x="447.706" y="668.728" type="curve" smooth="yes"/>
      <point x="447.706" y="720.341"/>
      <point x="466.423" y="765.707"/>
      <point x="497.31" y="765.707" type="curve" smooth="yes"/>
      <point x="525.492" y="765.707"/>
      <point x="541.864" y="728.349"/>
      <point x="541.864" y="707.556" type="curve" smooth="yes"/>
      <point x="541.864" y="470.009"/>
      <point x="245.805" y="243.824"/>
      <point x="241.464" y="217.798" type="curve"/>
      <point x="241.853" y="197.922"/>
      <point x="306.436" y="121.178"/>
      <point x="439.584" y="121.178" type="curve" smooth="yes"/>
      <point x="597.021" y="121.178"/>
      <point x="731.682" y="220.531"/>
      <point x="731.682" y="392.043" type="curve" smooth="yes"/>
      <point x="731.682" y="422.708"/>
      <point x="726.592" y="444.948"/>
      <point x="666.879" y="472.284" type="curve"/>
      <point x="664.265" y="461.737"/>
      <point x="660.061" y="444.581"/>
      <point x="649.033" y="429.359" type="curve" smooth="yes"/>
      <point x="637.419" y="413.332"/>
      <point x="600.609" y="389.693"/>
      <point x="580.229" y="389.693" type="curve" smooth="yes"/>
      <point x="573.011" y="389.693"/>
      <point x="550.258" y="402.873"/>
      <point x="550.258" y="415.674" type="curve" smooth="yes"/>
      <point x="550.258" y="463.632"/>
      <point x="631.552" y="547.282"/>
      <point x="675.396" y="547.282" type="curve" smooth="yes"/>
      <point x="753.368" y="547.282"/>
      <point x="781.471" y="467.554"/>
      <point x="870.027" y="467.554" type="curve" smooth="yes"/>
      <point x="886.57" y="467.554"/>
      <point x="901.632" y="474.202"/>
      <point x="916.762" y="481.199" type="curve" smooth="yes"/>
      <point x="922.986" y="484.077" type="line"/>
      <point x="940.457" y="442.647" type="line"/>
      <point x="936.32" y="438.821" type="line" smooth="yes"/>
      <point x="926.409" y="429.657"/>
      <point x="899.438" y="370.826"/>
      <point x="865.759" y="370.826" type="curve" smooth="yes"/>
      <point x="834.202" y="370.826"/>
      <point x="813.829" y="388.045"/>
      <point x="801.565" y="392.629" type="curve"/>
      <point x="799.129" y="227.917"/>
      <point x="689.692" y="-17.4961"/>
      <point x="449.812" y="-17.4961" type="curve" smooth="yes"/>
      <point x="202.633" y="-17.4961"/>
      <point x="85.2539" y="159.09"/>
      <point x="85.2539" y="311.92" type="curve" smooth="yes"/>
      <point x="85.2539" y="439.147"/>
      <point x="180.974" y="580.115"/>
      <point x="318.581" y="580.115" type="curve" smooth="yes"/>
      <point x="348.121" y="580.115"/>
      <point x="384.621" y="542.659"/>
      <point x="384.621" y="512.206" type="curve" smooth="yes"/>
      <point x="384.621" y="487.801"/>
      <point x="368.584" y="459.16"/>
      <point x="334.88" y="459.16" type="curve" smooth="yes"/>
      <point x="314.035" y="459.16"/>
      <point x="305.798" y="474.872"/>
      <point x="299.608" y="489.178" type="curve" smooth="yes"/>
      <point x="294.063" y="502.005"/>
      <point x="289.851" y="506.098"/>
      <point x="277.442" y="506.098" type="curve" smooth="yes"/>
      <point x="223.905" y="506.098"/>
      <point x="191.981" y="420.842"/>
    </contour>
  </outline>
</glyph>
<glyph name="quotesingle" format="1">
  <advance width="170"/>
  <unicode hex="0027"/>
  <outline>
    <contour>
      <point x="105.015" y="712.38" type="curve" smooth="yes"/>
      <point x="120.331" y="712.38" type="line" smooth="yes"/>
      <point x="142.426" y="712.38"/>
      <point x="158.037" y="697.988"/>
      <point x="158.037" y="678.508" type="curve" smooth="yes"/>
      <point x="158.037" y="670.532"/>
      <point x="154.493" y="661.262"/>
      <point x="152.157" y="654.498" type="curve" smooth="yes"/>
      <point x="99.8008" y="509.071" type="line"/>
      <point x="96.4443" y="496.052"/>
      <point x="86.6465" y="490.152"/>
      <point x="75.1396" y="490.152" type="curve" smooth="yes"/>
      <point x="47.8613" y="490.152" type="line" smooth="yes"/>
      <point x="36.5186" y="490.152"/>
      <point x="29.3691" y="498.319"/>
      <point x="29.3691" y="507.394" type="curve" smooth="yes"/>
      <point x="29.3691" y="508.926"/>
      <point x="29.5586" y="510.718"/>
      <point x="29.7949" y="512.048" type="curve"/>
      <point x="50.1953" y="664.113" type="line"/>
      <point x="54.6025" y="691.312"/>
      <point x="82.3818" y="712.38"/>
    </contour>
  </outline>
</glyph>
<glyph name="parenleft" format="1">
  <advance width="436"/>
  <unicode hex="0028"/>
  <outline>
    <contour>
      <point x="391.311" y="752.135" type="line" smooth="yes"/>
      <point x="355.825" y="711.274"/>
      <point x="251.946" y="647.187"/>
      <point x="175.495" y="315.198" type="curve" smooth="yes"/>
      <point x="153.197" y="218.793"/>
      <point x="145.248" y="145.943"/>
      <point x="145.248" y="90.2402" type="curve" smooth="yes"/>
      <point x="145.248" y="-32.0225"/>
      <point x="182.461" y="-70.4277"/>
      <point x="194.108" y="-100.712" type="curve" smooth="yes"/>
      <point x="194.902" y="-102.776" type="line"/>
      <point x="180.182" y="-161.66" type="line"/>
      <point x="171.37" y="-149.28" type="line"/>
      <point x="170.396" y="-147.913"/>
      <point x="43.3711" y="-25.2578"/>
      <point x="43.3711" y="168.145" type="curve" smooth="yes"/>
      <point x="43.3711" y="214.721"/>
      <point x="48.4316" y="265.405"/>
      <point x="60.9541" y="319.397" type="curve" smooth="yes"/>
      <point x="133.001" y="631.957"/>
      <point x="387.792" y="792.785"/>
      <point x="389.941" y="794.4" type="curve"/>
      <point x="404.566" y="805.385" type="line"/>
      <point x="392.448" y="753.444" type="line"/>
    </contour>
  </outline>
</glyph>
<glyph name="parenright" format="1">
  <advance width="432"/>
  <unicode hex="0029"/>
  <outline>
    <contour>
      <point x="243.861" y="756.188" type="line"/>
      <point x="254.827" y="803.18" type="line"/>
      <point x="263.817" y="792.807" type="line"/>
      <point x="265.057" y="791.377"/>
      <point x="394.101" y="687.899"/>
      <point x="394.101" y="488.375" type="curve" smooth="yes"/>
      <point x="394.101" y="437.23"/>
      <point x="388.251" y="379.829"/>
      <point x="373.595" y="316.243" type="curve" smooth="yes"/>
      <point x="308.929" y="37.4424"/>
      <point x="47.1396" y="-150.234"/>
      <point x="46.7539" y="-150.562" type="curve" smooth="yes"/>
      <point x="30.1533" y="-164.647" type="line"/>
      <point x="46.3291" y="-99.9463" type="line"/>
      <point x="47.3809" y="-98.7031" type="line" smooth="yes"/>
      <point x="82.9219" y="-56.7021"/>
      <point x="186.834" y="10.6436"/>
      <point x="258.004" y="318.347" type="curve" smooth="yes"/>
      <point x="283.083" y="427.252"/>
      <point x="291.858" y="507.396"/>
      <point x="291.858" y="567.157" type="curve" smooth="yes"/>
      <point x="291.858" y="689.752"/>
      <point x="256.089" y="725.211"/>
      <point x="244.664" y="754.154" type="curve" smooth="yes"/>
    </contour>
  </outline>
</glyph>
<glyph name="plus" format="1">
  <advance width="415"/>
  <unicode hex="002B"/>
  <outline>
    <contour>
      <point x="219.856" y="133.602" type="line" smooth="yes"/>
      <point x="217.395" y="121.288"/>
      <point x="180.787" y="119.675"/>
      <point x="170.963" y="119.675" type="curve" smooth="yes"/>
      <point x="163.908" y="119.675"/>
      <point x="122.896" y="121.776"/>
      <point x="122.896" y="133.415" type="curve" smooth="yes"/>
      <point x="122.896" y="136.789"/>
      <point x="124.938" y="143.667"/>
      <point x="125.158" y="144.484" type="curve" smooth="yes"/>
      <point x="135.615" y="183.174"/>
      <point x="141.61" y="212.026"/>
      <point x="150.649" y="251.275" type="curve"/>
      <point x="57.8145" y="251.275" type="line"/>
      <point x="48.8643" y="254.856"/>
      <point x="47.2402" y="264.258"/>
      <point x="47.2402" y="271.979" type="curve" smooth="yes"/>
      <point x="47.2402" y="284.6"/>
      <point x="56.6426" y="346.475"/>
      <point x="72.6621" y="346.475" type="curve" smooth="yes"/>
      <point x="164.513" y="346.475" type="line" smooth="yes"/>
      <point x="166.59" y="346.475"/>
      <point x="167.243" y="347.815"/>
      <point x="168.269" y="350.826" type="curve"/>
      <point x="192.284" y="454.478" type="line"/>
      <point x="195.999" y="455.716" type="line" smooth="yes"/>
      <point x="205.725" y="458.957"/>
      <point x="234.742" y="461.325"/>
      <point x="243.412" y="461.325" type="curve" smooth="yes"/>
      <point x="252.122" y="461.325"/>
      <point x="279.721" y="458.793"/>
      <point x="285.913" y="455.078" type="curve" smooth="yes"/>
      <point x="290.287" y="452.454" type="line"/>
      <point x="265.93" y="347.287" type="line" smooth="yes"/>
      <point x="265.93" y="347.287"/>
      <point x="350.02" y="346.475"/>
      <point x="359.362" y="346.475" type="curve" smooth="yes"/>
      <point x="368.092" y="346.475"/>
      <point x="369.133" y="334.15"/>
      <point x="369.133" y="331.104" type="curve" smooth="yes"/>
      <point x="369.133" y="322.882"/>
      <point x="363.256" y="251.275"/>
      <point x="345.862" y="251.275" type="curve" smooth="yes"/>
      <point x="249.763" y="251.275" type="line" smooth="yes"/>
      <point x="248.359" y="251.275"/>
      <point x="247.42" y="250.339"/>
      <point x="247.206" y="249.451" type="curve" smooth="yes"/>
    </contour>
  </outline>
</glyph>
<glyph name="comma" format="1">
  <advance width="325"/>
  <unicode hex="002C"/>
  <outline>
    <contour>
      <point x="166" y="164" type="curve" smooth="yes"/>
      <point x="206.921" y="164"/>
      <point x="232.071" y="132.414"/>
      <point x="232.071" y="97.6133" type="curve" smooth="yes"/>
      <point x="232.071" y="-25.126"/>
      <point x="132.76" y="-98.332"/>
      <point x="49.3408" y="-98.332" type="curve" smooth="yes"/>
      <point x="20.5576" y="-98.332" type="line"/>
      <point x="6.55859" y="-63.7383" type="line"/>
      <point x="21.6357" y="-63.7383" type="line" smooth="yes"/>
      <point x="43.2617" y="-63.7383"/>
      <point x="96.0049" y="-37.6289"/>
      <point x="96.0049" y="-16.1738" type="curve" smooth="yes"/>
      <point x="96.0049" y="11.8525"/>
      <point x="60.1465" y="21.4619"/>
      <point x="60.1465" y="61.4463" type="curve" smooth="yes"/>
      <point x="60.1465" y="120.323"/>
      <point x="116.514" y="164"/>
    </contour>
  </outline>
</glyph>
<glyph name="period" format="1">
  <advance width="294"/>
  <unicode hex="002E"/>
  <outline>
    <contour>
      <point x="128.75" y="159.629" type="curve" smooth="yes"/>
      <point x="169.256" y="159.629"/>
      <point x="196.524" y="127.986"/>
      <point x="196.524" y="88.5205" type="curve" smooth="yes"/>
      <point x="196.524" y="27.9883"/>
      <point x="141.312" y="-18"/>
      <point x="92" y="-18" type="curve" smooth="yes"/>
      <point x="50.501" y="-18"/>
      <point x="24.1436" y="13.3545"/>
      <point x="24.1436" y="52.4268" type="curve" smooth="yes"/>
      <point x="24.1436" y="113.11"/>
      <point x="77.5312" y="159.629"/>
    </contour>
  </outline>
</glyph>
<glyph name="zero" format="1">
  <advance width="540"/>
  <unicode hex="0030"/>
  <outline>
    <contour>
      <point x="408.985" y="426.962" type="curve" smooth="yes"/>
      <point x="408.985" y="514.457"/>
      <point x="402.203" y="588.82"/>
      <point x="374.664" y="588.82" type="curve" smooth="yes"/>
      <point x="319.062" y="588.82"/>
      <point x="187.386" y="387.191"/>
      <point x="187.386" y="212.739" type="curve" smooth="yes"/>
      <point x="187.386" y="134.055"/>
      <point x="191.646" y="49.5"/>
      <point x="234.319" y="49.5" type="curve" smooth="yes"/>
      <point x="297.151" y="49.5"/>
      <point x="408.985" y="242.611"/>
    </contour>
    <contour>
      <point x="217.301" y="-7" type="curve" smooth="yes"/>
      <point x="99.2969" y="-7"/>
      <point x="29.2607" y="87.4092"/>
      <point x="29.2607" y="207.386" type="curve" smooth="yes"/>
      <point x="29.2607" y="423.041"/>
      <point x="199.901" y="640"/>
      <point x="381.568" y="640" type="curve" smooth="yes"/>
      <point x="499.938" y="640"/>
      <point x="562.646" y="547.38"/>
      <point x="562.646" y="428.465" type="curve" smooth="yes"/>
      <point x="562.646" y="212.991"/>
      <point x="403.588" y="-7"/>
    </contour>
  </outline>
</glyph>
<glyph name="one" format="1">
  <advance width="550"/>
  <unicode hex="0031"/>
  <outline>
    <contour>
      <point x="333.186" y="47.8516" type="curve"/>
      <point x="333.325" y="42.874"/>
      <point x="334.78" y="36"/>
      <point x="346.839" y="36" type="curve" smooth="yes"/>
      <point x="362.458" y="36" type="line"/>
      <point x="356.658" y="0" type="line"/>
      <point x="115" y="0" type="line"/>
      <point x="123.8" y="36" type="line"/>
      <point x="133.839" y="36" type="line" smooth="yes"/>
      <point x="148.876" y="36"/>
      <point x="158.903" y="46.3926"/>
      <point x="161.168" y="56.1621" type="curve"/>
      <point x="274.183" y="514.707" type="line" smooth="yes"/>
      <point x="275.775" y="521.277"/>
      <point x="278.497" y="533.205"/>
      <point x="278.497" y="534.403" type="curve" smooth="yes"/>
      <point x="278.497" y="536.375"/>
      <point x="277.936" y="540.138"/>
      <point x="277.44" y="541.634" type="curve"/>
      <point x="266.902" y="541.311"/>
      <point x="247.479" y="538.862"/>
      <point x="247.069" y="538.812" type="curve"/>
      <point x="228.889" y="537.306" type="line"/>
      <point x="239.793" y="572.99" type="line"/>
      <point x="245.998" y="575.401" type="line" smooth="yes"/>
      <point x="282.11" y="589.436"/>
      <point x="402.549" y="618.262"/>
      <point x="438.317" y="638.246" type="curve"/>
      <point x="440.596" y="639.574"/>
      <point x="447.766" y="645"/>
      <point x="454.839" y="645" type="curve" smooth="yes"/>
      <point x="459.113" y="645"/>
      <point x="472.03" y="644.565"/>
      <point x="472.03" y="633.958" type="curve" smooth="yes"/>
      <point x="472.03" y="633.893" type="line"/>
      <point x="334.732" y="54.3467" type="line"/>
      <point x="334.418" y="52.8838"/>
      <point x="333.395" y="48.8223"/>
    </contour>
  </outline>
</glyph>
<glyph name="two" format="1">
  <advance width="550"/>
  <unicode hex="0032"/>
  <outline>
    <contour>
      <point x="325.447" y="581" type="curve" smooth="yes"/>
      <point x="274.983" y="581"/>
      <point x="259.586" y="556.906"/>
      <point x="217.772" y="517.816" type="curve" smooth="yes"/>
      <point x="207.907" y="508.594" type="line"/>
      <point x="177.245" y="531.778" type="line"/>
      <point x="184.64" y="540.854" type="line"/>
      <point x="185.564" y="542.002"/>
      <point x="247.725" y="642"/>
      <point x="374.383" y="642" type="curve" smooth="yes"/>
      <point x="478.146" y="642"/>
      <point x="552.543" y="604.683"/>
      <point x="552.543" y="538.044" type="curve" smooth="yes"/>
      <point x="552.543" y="451.58"/>
      <point x="487.743" y="360.305"/>
      <point x="416.572" y="277.432" type="curve" smooth="yes"/>
      <point x="339.028" y="187.138"/>
      <point x="262.775" y="113.015"/>
      <point x="216.043" y="70" type="curve"/>
      <point x="350.779" y="70" type="line" smooth="yes"/>
      <point x="397.138" y="70"/>
      <point x="422.886" y="86.3496"/>
      <point x="438.214" y="114.1" type="curve" smooth="yes"/>
      <point x="442.727" y="122.591" type="line"/>
      <point x="472.821" y="115.387" type="line"/>
      <point x="409.465" y="0" type="line"/>
      <point x="32" y="0" type="line"/>
      <point x="36.0918" y="15.6621" type="line" smooth="yes"/>
      <point x="39.0322" y="26.9199"/>
      <point x="44.0254" y="47.9385"/>
      <point x="44.0254" y="47.9385" type="curve" smooth="yes"/>
      <point x="44.877" y="51.5234" type="line"/>
      <point x="47.6055" y="54.1123" type="line" smooth="yes"/>
      <point x="170.042" y="171.585"/>
      <point x="241.431" y="259.112"/>
      <point x="309.13" y="339.528" type="curve" smooth="yes"/>
      <point x="359.891" y="399.824"/>
      <point x="393.78" y="454.246"/>
      <point x="393.78" y="517.322" type="curve" smooth="yes"/>
      <point x="393.78" y="546.537"/>
      <point x="369.164" y="581"/>
    </contour>
  </outline>
</glyph>
<glyph name="three" format="1">
  <advance width="540"/>
  <unicode hex="0033"/>
  <outline>
    <contour>
      <point x="168.675" y="501.293" type="curve" smooth="yes"/>
      <point x="164.246" y="497.184" type="line"/>
      <point x="139.255" y="524.404" type="line"/>
      <point x="143.496" y="528.686" type="line" smooth="yes"/>
      <point x="146.154" y="531.369"/>
      <point x="266.623" y="640"/>
      <point x="386.041" y="640" type="curve" smooth="yes"/>
      <point x="482.8" y="640"/>
      <point x="550.197" y="609.54"/>
      <point x="550.197" y="555.838" type="curve" smooth="yes"/>
      <point x="550.197" y="467.757"/>
      <point x="429.736" y="425.395"/>
      <point x="361.999" y="381.132" type="curve"/>
      <point x="428.736" y="365.217"/>
      <point x="520.702" y="310.454"/>
      <point x="520.702" y="236.157" type="curve" smooth="yes"/>
      <point x="520.702" y="73.3066"/>
      <point x="327.315" y="-7"/>
      <point x="152.669" y="-7" type="curve" smooth="yes"/>
      <point x="99.9268" y="-7"/>
      <point x="17" y="13.3408"/>
      <point x="17" y="57.918" type="curve" smooth="yes"/>
      <point x="17" y="66.5625"/>
      <point x="20.1855" y="72.9082"/>
      <point x="21.0449" y="74.9424" type="curve" smooth="yes"/>
      <point x="27.4492" y="90.1279"/>
      <point x="48.3877" y="101.639"/>
      <point x="63.8867" y="101.639" type="curve" smooth="yes"/>
      <point x="79.6514" y="101.639"/>
      <point x="92.9961" y="88.8008"/>
      <point x="104.242" y="75.4844" type="curve" smooth="yes"/>
      <point x="118.728" y="58.3291"/>
      <point x="154.438" y="33"/>
      <point x="182.587" y="33" type="curve" smooth="yes"/>
      <point x="283.179" y="33"/>
      <point x="355.884" y="118.452"/>
      <point x="355.884" y="208.988" type="curve" smooth="yes"/>
      <point x="355.884" y="239.25"/>
      <point x="330.095" y="274.004"/>
      <point x="305.969" y="286.781" type="curve" smooth="yes"/>
      <point x="284.509" y="298.146"/>
      <point x="265.221" y="305.011"/>
      <point x="239.611" y="305.011" type="curve" smooth="yes"/>
      <point x="204.599" y="305.011"/>
      <point x="173.509" y="282.499"/>
      <point x="154.669" y="282.499" type="curve" smooth="yes"/>
      <point x="143.022" y="282.499"/>
      <point x="133.257" y="289.196"/>
      <point x="133.257" y="300.117" type="curve" smooth="yes"/>
      <point x="133.257" y="309.518"/>
      <point x="140.097" y="315.707"/>
      <point x="144.688" y="318.34" type="curve"/>
      <point x="153.255" y="323.186"/>
      <point x="362.496" y="445.662"/>
      <point x="362.496" y="527.066" type="curve" smooth="yes"/>
      <point x="362.496" y="554.968"/>
      <point x="343.755" y="575"/>
      <point x="310.285" y="575" type="curve" smooth="yes"/>
      <point x="273.528" y="575"/>
      <point x="220.048" y="543.243"/>
    </contour>
  </outline>
</glyph>
<glyph name="four" format="1">
  <advance width="550"/>
  <unicode hex="0034"/>
  <outline>
    <contour>
      <point x="171.226" y="328.732" type="curve"/>
      <point x="219.745" y="328.097"/>
      <point x="263.229" y="326.549"/>
      <point x="291.389" y="326.11" type="curve"/>
      <point x="305.626" y="378.562"/>
      <point x="327.947" y="447.111"/>
      <point x="330.346" y="461.953" type="curve"/>
      <point x="296.619" y="429.469"/>
      <point x="280.465" y="422.985"/>
      <point x="244.683" y="390.441" type="curve" smooth="yes"/>
      <point x="217.425" y="365.651"/>
      <point x="192.652" y="347.838"/>
    </contour>
    <contour>
      <point x="41" y="283.901" type="curve" smooth="yes"/>
      <point x="41" y="294.369"/>
      <point x="47.8779" y="300.997"/>
      <point x="51.043" y="304.056" type="curve" smooth="yes"/>
      <point x="162.486" y="411.633"/>
      <point x="307.817" y="511.66"/>
      <point x="413.442" y="618.178" type="curve"/>
      <point x="413.442" y="618.178"/>
      <point x="438.126" y="642"/>
      <point x="445.196" y="642" type="curve" smooth="yes"/>
      <point x="448.667" y="642"/>
      <point x="500.814" y="641.6"/>
      <point x="503.646" y="640.793" type="curve" smooth="yes"/>
      <point x="511.888" y="638.486"/>
      <point x="521.364" y="632.304"/>
      <point x="521.364" y="624.777" type="curve" smooth="yes"/>
      <point x="521.364" y="623.429"/>
      <point x="521.194" y="622.089"/>
      <point x="520.877" y="620.781" type="curve" smooth="yes"/>
      <point x="450.675" y="335.273" type="line"/>
      <point x="461.287" y="335.594"/>
      <point x="472.15" y="336.021"/>
      <point x="482.644" y="336.635" type="curve" smooth="yes"/>
      <point x="497.872" y="337.524"/>
      <point x="492.201" y="338.812"/>
      <point x="502.969" y="340.65" type="curve" smooth="yes"/>
      <point x="514.57" y="342.633" type="line"/>
      <point x="509.384" y="332.254" type="line" smooth="yes"/>
      <point x="504.909" y="323.301"/>
      <point x="499.712" y="312.628"/>
      <point x="499.712" y="302.606" type="curve" smooth="yes"/>
      <point x="499.712" y="294.025"/>
      <point x="501.034" y="285.854"/>
      <point x="503.067" y="281.231" type="curve" smooth="yes"/>
      <point x="506.688" y="273.007" type="line"/>
      <point x="438.585" y="273.007" type="line"/>
      <point x="378.467" y="12.0781" type="line"/>
      <point x="377.199" y="6.15527"/>
      <point x="373.35" y="0"/>
      <point x="363.856" y="0" type="curve" smooth="yes"/>
      <point x="241.298" y="0" type="line" smooth="yes"/>
      <point x="240.469" y="0"/>
      <point x="239.636" y="0.00976562"/>
      <point x="238.802" y="0.0283203" type="curve" smooth="yes"/>
      <point x="236.637" y="0.0771484"/>
      <point x="224.322" y="0.0791016"/>
      <point x="222.184" y="0.166992" type="curve" smooth="yes"/>
      <point x="218.634" y="0.3125"/>
      <point x="217.652" y="2.12793"/>
      <point x="217.652" y="4.84082" type="curve" smooth="yes"/>
      <point x="217.652" y="6.59766"/>
      <point x="218.064" y="8.73047"/>
      <point x="218.457" y="11.0303" type="curve" smooth="yes"/>
      <point x="219.036" y="14.4199"/>
      <point x="220.778" y="19.9385"/>
      <point x="220.975" y="20.7891" type="curve" smooth="yes"/>
      <point x="239.86" y="101.696"/>
      <point x="259.845" y="184.71"/>
      <point x="278.558" y="265" type="curve"/>
      <point x="59.1963" y="265" type="line" smooth="yes"/>
      <point x="46.7637" y="265"/>
      <point x="41" y="275.991"/>
    </contour>
  </outline>
</glyph>
<glyph name="five" format="1">
  <advance width="540"/>
  <unicode hex="0035"/>
  <outline>
    <contour>
      <point x="226.687" y="611.098" type="line"/>
      <point x="413.393" y="611.098" type="line" smooth="yes"/>
      <point x="430.423" y="611.098"/>
      <point x="449.241" y="611.976"/>
      <point x="461.54" y="614.683" type="curve" smooth="yes"/>
      <point x="464.548" y="615.359"/>
      <point x="476.155" y="617"/>
      <point x="481.393" y="617" type="curve" smooth="yes"/>
      <point x="488.521" y="617"/>
      <point x="497.546" y="614.553"/>
      <point x="497.546" y="604.151" type="curve" smooth="yes"/>
      <point x="497.546" y="592.392"/>
      <point x="479.912" y="573.785"/>
      <point x="471.494" y="560.602" type="curve" smooth="yes"/>
      <point x="467.694" y="554.653" type="line"/>
      <point x="285.308" y="554.653" type="line"/>
      <point x="221" y="409" type="line"/>
      <point x="265.243" y="425.191"/>
      <point x="286.519" y="431"/>
      <point x="355.607" y="431" type="curve" smooth="yes"/>
      <point x="436.735" y="431"/>
      <point x="485.55" y="341.094"/>
      <point x="485.55" y="258.247" type="curve" smooth="yes"/>
      <point x="485.55" y="101.903"/>
      <point x="354.716" y="-11.9697"/>
      <point x="217.592" y="-11.9697" type="curve" smooth="yes"/>
      <point x="144.99" y="-11.9697"/>
      <point x="96.6055" y="27.7812"/>
      <point x="52.1367" y="81.3135" type="curve" smooth="yes"/>
      <point x="47.3701" y="87.0488"/>
      <point x="45.3604" y="94.6221"/>
      <point x="45.3604" y="101.248" type="curve" smooth="yes"/>
      <point x="45.3604" y="116.404"/>
      <point x="60.2617" y="129.03"/>
      <point x="72.0361" y="129.03" type="curve" smooth="yes"/>
      <point x="80.2021" y="129.03"/>
      <point x="84.2402" y="123.408"/>
      <point x="86.4727" y="120.611" type="curve"/>
      <point x="112.771" y="87.9199"/>
      <point x="149.766" y="62.0264"/>
      <point x="198.979" y="62.0264" type="curve" smooth="yes"/>
      <point x="298.123" y="62.0264"/>
      <point x="343.62" y="144.459"/>
      <point x="343.62" y="214.56" type="curve" smooth="yes"/>
      <point x="343.62" y="284.501"/>
      <point x="317.428" y="324.778"/>
      <point x="253.567" y="324.778" type="curve" smooth="yes"/>
      <point x="184.64" y="324.778"/>
      <point x="138.873" y="299.798"/>
      <point x="75.7559" y="264.975" type="curve"/>
    </contour>
  </outline>
</glyph>
<glyph name="six" format="1">
  <advance width="540"/>
  <unicode hex="0036"/>
  <outline>
    <contour>
      <point x="514.955" y="597.133" type="curve" smooth="yes"/>
      <point x="321.975" y="543.071"/>
      <point x="180.341" y="401.892"/>
      <point x="180.341" y="180.651" type="curve" smooth="yes"/>
      <point x="180.341" y="119.346"/>
      <point x="215.411" y="49.8301"/>
      <point x="259.616" y="49.8301" type="curve" smooth="yes"/>
      <point x="318.585" y="49.8301"/>
      <point x="389.488" y="127.124"/>
      <point x="389.488" y="253.338" type="curve" smooth="yes"/>
      <point x="389.488" y="311.274"/>
      <point x="352.743" y="344.349"/>
      <point x="323.104" y="344.349" type="curve" smooth="yes"/>
      <point x="297.429" y="344.349"/>
      <point x="280.607" y="335.944"/>
      <point x="257.235" y="317.445" type="curve" smooth="yes"/>
      <point x="256.807" y="317.105" type="line"/>
      <point x="256.358" y="316.81" type="line" smooth="yes"/>
      <point x="251.917" y="313.881"/>
      <point x="245.897" y="310.725"/>
      <point x="241.162" y="310.725" type="curve" smooth="yes"/>
      <point x="233.339" y="310.725"/>
      <point x="223.054" y="315.228"/>
      <point x="223.054" y="327.606" type="curve" smooth="yes"/>
      <point x="223.054" y="335.527"/>
      <point x="230.997" y="343.142"/>
      <point x="234.88" y="348.442" type="curve"/>
      <point x="257.503" y="376.474"/>
      <point x="295.677" y="412.309"/>
      <point x="366.493" y="412.309" type="curve" smooth="yes"/>
      <point x="461.22" y="412.309"/>
      <point x="531.31" y="369.396"/>
      <point x="531.31" y="268.431" type="curve" smooth="yes"/>
      <point x="531.31" y="118.531"/>
      <point x="432.286" y="-8"/>
      <point x="237.749" y="-8" type="curve" smooth="yes"/>
      <point x="122.931" y="-8"/>
      <point x="23.2529" y="79.3828"/>
      <point x="23.2529" y="185.563" type="curve" smooth="yes"/>
      <point x="23.2529" y="455.488"/>
      <point x="318.104" y="598.637"/>
      <point x="518.948" y="636.732" type="curve"/>
      <point x="530.437" y="639.126" type="line"/>
      <point x="532.067" y="633.947" type="line" smooth="yes"/>
      <point x="533.178" y="630.421"/>
      <point x="533.77" y="626.701"/>
      <point x="533.77" y="623.022" type="curve" smooth="yes"/>
      <point x="533.77" y="611.735"/>
      <point x="528.198" y="600.843"/>
    </contour>
  </outline>
</glyph>
<glyph name="seven" format="1">
  <advance width="550"/>
  <unicode hex="0037"/>
  <outline>
    <contour>
      <point x="34.0811" y="7.95215" type="line" smooth="yes"/>
      <point x="95.4346" y="166.287"/>
      <point x="241.867" y="395.012"/>
      <point x="386.607" y="542" type="curve"/>
      <point x="162.709" y="542" type="line" smooth="yes"/>
      <point x="146.581" y="542"/>
      <point x="139.497" y="523.55"/>
      <point x="138.475" y="522.381" type="curve"/>
      <point x="133.58" y="516" type="line"/>
      <point x="127.742" y="516" type="line" smooth="yes"/>
      <point x="116.881" y="516"/>
      <point x="111.925" y="528.345"/>
      <point x="111.925" y="528.345" type="curve" smooth="yes"/>
      <point x="110.396" y="532.186" type="line"/>
      <point x="112.301" y="537.599" type="line"/>
      <point x="142.128" y="604.908" type="line"/>
      <point x="142.596" y="605.688" type="line" smooth="yes"/>
      <point x="146.721" y="612.565"/>
      <point x="153.401" y="622"/>
      <point x="164.886" y="622" type="curve" smooth="yes"/>
      <point x="566.742" y="622" type="line" smooth="yes"/>
      <point x="578.861" y="622"/>
      <point x="587.988" y="611.626"/>
      <point x="587.988" y="601.45" type="curve" smooth="yes"/>
      <point x="587.988" y="587.893"/>
      <point x="576.83" y="576.947"/>
      <point x="574.899" y="574.595" type="curve"/>
      <point x="421.25" y="393.072"/>
      <point x="265.517" y="163.467"/>
      <point x="203.222" y="3.90137" type="curve" smooth="yes"/>
      <point x="201.766" y="0" type="line"/>
      <point x="31" y="0" type="line"/>
    </contour>
  </outline>
</glyph>
<glyph name="eight" format="1">
  <advance width="540"/>
  <unicode hex="0038"/>
  <outline>
    <contour>
      <point x="291.879" y="298.298" type="curve"/>
      <point x="203.698" y="238.67"/>
      <point x="166.434" y="208.564"/>
      <point x="166.434" y="138.346" type="curve" smooth="yes"/>
      <point x="166.434" y="79.2129"/>
      <point x="206.929" y="43.0928"/>
      <point x="237.714" y="43.0928" type="curve" smooth="yes"/>
      <point x="299.958" y="43.0928"/>
      <point x="350.974" y="110.299"/>
      <point x="350.974" y="183.353" type="curve" smooth="yes"/>
      <point x="350.974" y="233.814"/>
      <point x="339.209" y="261.88"/>
    </contour>
    <contour>
      <point x="371.781" y="591.219" type="curve" smooth="yes"/>
      <point x="318.268" y="591.219"/>
      <point x="284.177" y="544.597"/>
      <point x="284.177" y="490.774" type="curve" smooth="yes"/>
      <point x="284.177" y="453.162"/>
      <point x="291.623" y="434.129"/>
      <point x="326.349" y="407.955" type="curve"/>
      <point x="378.524" y="444.776"/>
      <point x="422.3" y="484.006"/>
      <point x="422.3" y="526.179" type="curve" smooth="yes"/>
      <point x="422.3" y="571.292"/>
      <point x="402.809" y="591.219"/>
    </contour>
    <contour>
      <point x="387.574" y="643" type="curve" smooth="yes"/>
      <point x="478.387" y="643"/>
      <point x="548.329" y="597.554"/>
      <point x="548.329" y="532.452" type="curve" smooth="yes"/>
      <point x="548.329" y="448.643"/>
      <point x="437.998" y="399.168"/>
      <point x="383.186" y="363.708" type="curve"/>
      <point x="435.836" y="316.574"/>
      <point x="494.286" y="267.016"/>
      <point x="494.286" y="194.616" type="curve" smooth="yes"/>
      <point x="494.286" y="87.9463"/>
      <point x="374.295" y="-8"/>
      <point x="222.444" y="-8" type="curve" smooth="yes"/>
      <point x="129.018" y="-8"/>
      <point x="18" y="39.6729"/>
      <point x="18" y="123.052" type="curve" smooth="yes"/>
      <point x="18" y="227.342"/>
      <point x="122.649" y="282.42"/>
      <point x="216.379" y="341.364" type="curve"/>
      <point x="178.188" y="372.051"/>
      <point x="137.442" y="405.29"/>
      <point x="137.442" y="464.972" type="curve" smooth="yes"/>
      <point x="137.442" y="550.57"/>
      <point x="213.755" y="643"/>
    </contour>
  </outline>
</glyph>
<glyph name="nine" format="1">
  <advance width="550"/>
  <unicode hex="0039"/>
  <outline>
    <contour>
      <point x="44.4463" y="-6.58984" type="line"/>
      <point x="43.916" y="-5.18848"/>
      <point x="42" y="-0.00683594"/>
      <point x="42" y="6.95703" type="curve" smooth="yes"/>
      <point x="42" y="19.1992"/>
      <point x="48.7354" y="30.7598"/>
      <point x="62.9062" y="34.6426" type="curve"/>
      <point x="256.912" y="100.266"/>
      <point x="394.742" y="256.577"/>
      <point x="394.742" y="469.899" type="curve" smooth="yes"/>
      <point x="394.742" y="536.792"/>
      <point x="352.443" y="596"/>
      <point x="314.87" y="596" type="curve" smooth="yes"/>
      <point x="262.372" y="596"/>
      <point x="181.193" y="528.517"/>
      <point x="181.193" y="405.116" type="curve" smooth="yes"/>
      <point x="181.193" y="341.016"/>
      <point x="205.419" y="323.492"/>
      <point x="240.641" y="323.492" type="curve" smooth="yes"/>
      <point x="283.542" y="323.492"/>
      <point x="295.977" y="330.979"/>
      <point x="317.478" y="349.026" type="curve" smooth="yes"/>
      <point x="323.129" y="353.768"/>
      <point x="328.835" y="355.424"/>
      <point x="334.42" y="355.424" type="curve" smooth="yes"/>
      <point x="342.749" y="355.424"/>
      <point x="351.896" y="345.847"/>
      <point x="351.896" y="336.352" type="curve" smooth="yes"/>
      <point x="351.896" y="327.823"/>
      <point x="347.221" y="321.119"/>
      <point x="344.052" y="317.485" type="curve" smooth="yes"/>
      <point x="343.729" y="317.116" type="line"/>
      <point x="343.327" y="316.729" type="line" smooth="yes"/>
      <point x="314.092" y="288.69"/>
      <point x="278.702" y="239.96"/>
      <point x="192.042" y="239.96" type="curve" smooth="yes"/>
      <point x="122.464" y="239.96"/>
      <point x="40.7148" y="279.288"/>
      <point x="40.7148" y="379.707" type="curve" smooth="yes"/>
      <point x="40.7148" y="549.38"/>
      <point x="180.679" y="641"/>
      <point x="321.691" y="641" type="curve" smooth="yes"/>
      <point x="440.587" y="641"/>
      <point x="530.011" y="573.251"/>
      <point x="530.011" y="462.29" type="curve" smooth="yes"/>
      <point x="530.011" y="155.118"/>
      <point x="261.273" y="31.8545"/>
      <point x="59.9336" y="-14.5879" type="curve"/>
      <point x="48.3721" y="-17.6045" type="line"/>
    </contour>
  </outline>
</glyph>
<glyph name="colon" format="1">
  <advance width="294"/>
  <unicode hex="003A"/>
  <outline>
    <contour>
      <point x="128.75" y="159.629" type="curve" smooth="yes"/>
      <point x="169.256" y="159.629"/>
      <point x="196.524" y="127.986"/>
      <point x="196.524" y="88.5205" type="curve" smooth="yes"/>
      <point x="196.524" y="27.9883"/>
      <point x="141.312" y="-18"/>
      <point x="92" y="-18" type="curve" smooth="yes"/>
      <point x="50.501" y="-18"/>
      <point x="24.1436" y="13.3545"/>
      <point x="24.1436" y="52.4268" type="curve" smooth="yes"/>
      <point x="24.1436" y="113.11"/>
      <point x="77.5312" y="159.629"/>
    </contour>
    <contour>
      <point x="199.6" y="463.9" type="curve" smooth="yes"/>
      <point x="240.105" y="463.9"/>
      <point x="267.374" y="432.258"/>
      <point x="267.374" y="392.792" type="curve" smooth="yes"/>
      <point x="267.374" y="332.26"/>
      <point x="212.161" y="286.271"/>
      <point x="162.85" y="286.271" type="curve" smooth="yes"/>
      <point x="121.351" y="286.271"/>
      <point x="94.9932" y="317.626"/>
      <point x="94.9932" y="356.698" type="curve" smooth="yes"/>
      <point x="94.9932" y="417.382"/>
      <point x="148.381" y="463.9"/>
    </contour>
  </outline>
</glyph>
<glyph name="semicolon" format="1">
  <advance width="325"/>
  <unicode hex="003B"/>
  <outline>
    <contour>
      <point x="228.6" y="463.9" type="curve" smooth="yes"/>
      <point x="269.105" y="463.9"/>
      <point x="296.374" y="432.258"/>
      <point x="296.374" y="392.792" type="curve" smooth="yes"/>
      <point x="296.374" y="332.26"/>
      <point x="241.161" y="286.271"/>
      <point x="191.85" y="286.271" type="curve" smooth="yes"/>
      <point x="150.351" y="286.271"/>
      <point x="123.993" y="317.626"/>
      <point x="123.993" y="356.698" type="curve" smooth="yes"/>
      <point x="123.993" y="417.382"/>
      <point x="177.381" y="463.9"/>
    </contour>
    <contour>
      <point x="166" y="164" type="curve" smooth="yes"/>
      <point x="206.921" y="164"/>
      <point x="232.071" y="132.414"/>
      <point x="232.071" y="97.6133" type="curve" smooth="yes"/>
      <point x="232.071" y="-25.126"/>
      <point x="132.76" y="-98.332"/>
      <point x="49.3408" y="-98.332" type="curve" smooth="yes"/>
      <point x="20.5576" y="-98.332" type="line"/>
      <point x="6.55859" y="-63.7383" type="line"/>
      <point x="21.6357" y="-63.7383" type="line" smooth="yes"/>
      <point x="43.2617" y="-63.7383"/>
      <point x="96.0049" y="-37.6289"/>
      <point x="96.0049" y="-16.1738" type="curve" smooth="yes"/>
      <point x="96.0049" y="11.8525"/>
      <point x="60.1465" y="21.4619"/>
      <point x="60.1465" y="61.4463" type="curve" smooth="yes"/>
      <point x="60.1465" y="120.323"/>
      <point x="116.514" y="164"/>
    </contour>
  </outline>
</glyph>
<glyph name="less" format="1">
  <advance width="533"/>
  <unicode hex="003C"/>
  <outline>
    <contour>
      <point x="194.086" y="313.146" type="line"/>
      <point x="398.823" y="174.969" type="line"/>
      <point x="373.561" y="72.1797" type="line"/>
      <point x="31.2939" y="300.885" type="line"/>
      <point x="35.7393" y="324.592" type="line"/>
      <point x="484.344" y="553.459" type="line"/>
      <point x="451.1" y="441.349" type="line"/>
    </contour>
  </outline>
</glyph>
<glyph name="equal" format="1">
  <advance width="423"/>
  <unicode hex="003D"/>
  <outline>
    <contour>
      <point x="93.6133" y="324.901" type="line" smooth="yes"/>
      <point x="85.3135" y="328.22"/>
      <point x="84.291" y="347.495"/>
      <point x="84.291" y="354.105" type="curve" smooth="yes"/>
      <point x="84.291" y="366.728"/>
      <point x="92.6934" y="404.6"/>
      <point x="109.713" y="404.6" type="curve" smooth="yes"/>
      <point x="350.463" y="404.6" type="line" smooth="yes"/>
      <point x="360.995" y="404.6"/>
      <point x="363.232" y="392.657"/>
      <point x="363.232" y="390.229" type="curve" smooth="yes"/>
      <point x="363.232" y="382.134"/>
      <point x="358.467" y="324.4"/>
      <point x="339.963" y="324.4" type="curve" smooth="yes"/>
      <point x="97.8652" y="324.4" type="line"/>
    </contour>
    <contour>
      <point x="72.4629" y="186.901" type="line" smooth="yes"/>
      <point x="64.1631" y="190.22"/>
      <point x="60.1406" y="209.495"/>
      <point x="60.1406" y="216.104" type="curve" smooth="yes"/>
      <point x="60.1406" y="228.728"/>
      <point x="68.543" y="266.6"/>
      <point x="85.5625" y="266.6" type="curve" smooth="yes"/>
      <point x="326.312" y="266.6" type="line" smooth="yes"/>
      <point x="336.844" y="266.6"/>
      <point x="339.083" y="244.658"/>
      <point x="339.083" y="242.229" type="curve" smooth="yes"/>
      <point x="339.083" y="234.135"/>
      <point x="334.316" y="186.4"/>
      <point x="315.812" y="186.4" type="curve" smooth="yes"/>
      <point x="73.7148" y="186.4" type="line"/>
    </contour>
  </outline>
</glyph>
<glyph name="greater" format="1">
  <advance width="529"/>
  <unicode hex="003E"/>
  <outline>
    <contour>
      <point x="325.914" y="314.854" type="line"/>
      <point x="128.184" y="453.026" type="line"/>
      <point x="155.423" y="551.832" type="line"/>
      <point x="477.706" y="323.115" type="line"/>
      <point x="473.261" y="299.408" type="line"/>
      <point x="44.6396" y="70.5322" type="line"/>
      <point x="84.9033" y="186.653" type="line"/>
    </contour>
  </outline>
</glyph>
<glyph name="question" format="1">
  <advance width="598"/>
  <unicode hex="003F"/>
  <outline>
    <contour>
      <point x="208.75" y="159.629" type="curve" smooth="yes"/>
      <point x="249.256" y="159.629"/>
      <point x="276.524" y="127.986"/>
      <point x="276.524" y="88.5205" type="curve" smooth="yes"/>
      <point x="276.524" y="27.9883"/>
      <point x="221.312" y="-18"/>
      <point x="172" y="-18" type="curve" smooth="yes"/>
      <point x="130.501" y="-18"/>
      <point x="104.144" y="13.3545"/>
      <point x="104.144" y="52.4268" type="curve" smooth="yes"/>
      <point x="104.144" y="113.11"/>
      <point x="157.531" y="159.629"/>
    </contour>
    <contour>
      <point x="165.932" y="333.521" type="curve" smooth="yes"/>
      <point x="167" y="338" type="line" smooth="yes"/>
      <point x="179.523" y="394.92"/>
      <point x="237.268" y="445.512"/>
      <point x="278.762" y="478.91" type="curve"/>
      <point x="354.169" y="539.018"/>
      <point x="398.215" y="554.013"/>
      <point x="398.215" y="633.542" type="curve" smooth="yes"/>
      <point x="398.215" y="695.137"/>
      <point x="367.057" y="736.575"/>
      <point x="342.214" y="736.575" type="curve" smooth="yes"/>
      <point x="306.461" y="736.575"/>
      <point x="275.771" y="682.045"/>
      <point x="266.074" y="660.713" type="curve"/>
      <point x="253.612" y="630.257"/>
      <point x="209.612" y="603.575"/>
      <point x="182.313" y="603.575" type="curve" smooth="yes"/>
      <point x="156.526" y="603.575"/>
      <point x="124.209" y="633.979"/>
      <point x="124.209" y="656.311" type="curve" smooth="yes"/>
      <point x="124.209" y="730.309"/>
      <point x="241.417" y="776.375"/>
      <point x="337.764" y="776.375" type="curve" smooth="yes"/>
      <point x="444.241" y="776.375"/>
      <point x="568.136" y="725.972"/>
      <point x="568.136" y="626.959" type="curve" smooth="yes"/>
      <point x="568.136" y="516.524"/>
      <point x="485.575" y="491.084"/>
      <point x="419.479" y="444.49" type="curve" smooth="yes"/>
      <point x="377.26" y="414.938"/>
      <point x="335.575" y="386.834"/>
      <point x="317.696" y="345.694" type="curve" smooth="yes"/>
      <point x="290.479" y="283.066"/>
      <point x="276.697" y="205.399"/>
      <point x="274.641" y="197.163" type="curve"/>
      <point x="155.062" y="205.167" type="line"/>
      <point x="159.957" y="250.479"/>
      <point x="165.913" y="332.776"/>
    </contour>
  </outline>
</glyph>
<glyph name="at" format="1">
  <advance width="813"/>
  <unicode hex="0040"/>
  <outline>
    <contour>
      <point x="367.1" y="-24.6748" type="curve" smooth="yes"/>
      <point x="488.667" y="-24.6748"/>
      <point x="587.528" y="11.7734"/>
      <point x="626.67" y="43.6748" type="curve"/>
      <point x="629.1" y="43.6748" type="line" smooth="yes"/>
      <point x="635.786" y="43.6748"/>
      <point x="645.175" y="34.7061"/>
      <point x="645.175" y="27.5098" type="curve" smooth="yes"/>
      <point x="645.175" y="20.8125"/>
      <point x="642.298" y="14.3223"/>
      <point x="639.171" y="11.2314" type="curve" smooth="yes"/>
      <point x="597.052" y="-24.4082"/>
      <point x="514.061" y="-75.6748"/>
      <point x="355.649" y="-75.6748" type="curve" smooth="yes"/>
      <point x="216.998" y="-75.6748"/>
      <point x="-4.60547" y="-11.3213"/>
      <point x="-4.60547" y="147.973" type="curve" smooth="yes"/>
      <point x="-4.60547" y="369.917"/>
      <point x="261.102" y="529.675"/>
      <point x="520.35" y="529.675" type="curve" smooth="yes"/>
      <point x="666.073" y="529.675"/>
      <point x="823.46" y="463.456"/>
      <point x="823.46" y="330.724" type="curve" smooth="yes"/>
      <point x="823.46" y="169.553"/>
      <point x="674.545" y="56.875"/>
      <point x="490" y="56.875" type="curve" smooth="yes"/>
      <point x="460.771" y="56.875"/>
      <point x="454.594" y="81.6787"/>
      <point x="452.816" y="89.6289" type="curve"/>
      <point x="438.09" y="79.4072"/>
      <point x="393.822" y="48.6748"/>
      <point x="341.35" y="48.6748" type="curve" smooth="yes"/>
      <point x="255.848" y="48.6748"/>
      <point x="192.952" y="101.953"/>
      <point x="192.952" y="161.431" type="curve" smooth="yes"/>
      <point x="192.952" y="333.084"/>
      <point x="384.091" y="407.675"/>
      <point x="485.699" y="407.675" type="curve" smooth="yes"/>
      <point x="514.938" y="407.675"/>
      <point x="583.458" y="391.487"/>
      <point x="588.271" y="391.116" type="curve"/>
      <point x="595.383" y="391.52"/>
      <point x="606.309" y="398.533"/>
      <point x="609.45" y="401.675" type="curve" smooth="yes"/>
      <point x="611.5" y="403.725" type="line"/>
      <point x="614.399" y="403.725" type="line" smooth="yes"/>
      <point x="628.605" y="403.725"/>
      <point x="636.418" y="396.266"/>
      <point x="641.224" y="389.058" type="curve" smooth="yes"/>
      <point x="643.744" y="385.278" type="line"/>
      <point x="641.318" y="381.437" type="line" smooth="yes"/>
      <point x="629.303" y="362.412"/>
      <point x="616.54" y="334.589"/>
      <point x="605.48" y="301.632" type="curve"/>
      <point x="605.217" y="300.842" type="line"/>
      <point x="535.119" y="129.257" type="line"/>
      <point x="535.024" y="128.434"/>
      <point x="534.986" y="127.743"/>
      <point x="534.986" y="127.057" type="curve" smooth="yes"/>
      <point x="534.986" y="116.729"/>
      <point x="546.991" y="110.775"/>
      <point x="563.449" y="110.775" type="curve" smooth="yes"/>
      <point x="621.768" y="110.775"/>
      <point x="686.231" y="219.581"/>
      <point x="686.231" y="319.032" type="curve" smooth="yes"/>
      <point x="686.231" y="420.542"/>
      <point x="631.761" y="481.075"/>
      <point x="501.5" y="481.075" type="curve" smooth="yes"/>
      <point x="340.575" y="481.075"/>
      <point x="141.274" y="362.254"/>
      <point x="141.274" y="161.259" type="curve" smooth="yes"/>
      <point x="141.274" y="25.6611"/>
      <point x="265.108" y="-24.6748"/>
    </contour>
    <contour>
      <point x="331.648" y="186.241" type="curve" smooth="yes"/>
      <point x="331.648" y="152.745"/>
      <point x="342.699" y="106.675"/>
      <point x="378.6" y="106.675" type="curve" smooth="yes"/>
      <point x="420.178" y="106.675"/>
      <point x="440.876" y="138.575"/>
      <point x="451.211" y="161.135" type="curve" smooth="yes"/>
      <point x="472.4" y="208.026"/>
      <point x="491.985" y="256.167"/>
      <point x="512.223" y="303.653" type="curve" smooth="yes"/>
      <point x="513.149" y="308.19"/>
      <point x="513.415" y="311.027"/>
      <point x="513.415" y="314.312" type="curve" smooth="yes"/>
      <point x="513.415" y="338.544"/>
      <point x="490.904" y="347.259"/>
      <point x="463.329" y="347.259" type="curve" smooth="yes"/>
      <point x="416.698" y="347.259"/>
      <point x="331.648" y="282.383"/>
    </contour>
  </outline>
</glyph>
<glyph name="A" format="1">
  <advance width="769"/>
  <unicode hex="0041"/>
  <outline>
    <contour>
      <point x="726.881" y="34" type="line"/>
      <point x="726.881" y="34"/>
      <point x="727.239" y="31.9473"/>
      <point x="727.239" y="29.0059" type="curve" smooth="yes"/>
      <point x="727.239" y="25.9619"/>
      <point x="725.855" y="19.9639"/>
      <point x="724.292" y="16.3047" type="curve" smooth="yes"/>
      <point x="720.936" y="8.44727"/>
      <point x="710.9" y="0"/>
      <point x="710.9" y="0" type="curve"/>
      <point x="423.9" y="0" type="line"/>
      <point x="423.9" y="0"/>
      <point x="423.101" y="2.6875"/>
      <point x="423.101" y="6.43457" type="curve" smooth="yes"/>
      <point x="423.101" y="9.34082"/>
      <point x="423.582" y="14.8848"/>
      <point x="425.292" y="18.3047" type="curve" smooth="yes"/>
      <point x="429.292" y="26.3047"/>
      <point x="437.9" y="34"/>
      <point x="437.9" y="34" type="curve"/>
      <point x="443.435" y="34" type="line" smooth="yes"/>
      <point x="450.663" y="34"/>
      <point x="458.946" y="34.9707"/>
      <point x="466.273" y="35.8623" type="curve" smooth="yes"/>
      <point x="479.891" y="38.835"/>
      <point x="486.201" y="47.1748"/>
      <point x="490.567" y="62.7461" type="curve"/>
      <point x="491.487" y="68.1621"/>
      <point x="491.849" y="76.21"/>
      <point x="491.849" y="80.5059" type="curve" smooth="yes"/>
      <point x="491.849" y="82.1943"/>
      <point x="491.733" y="84.1504"/>
      <point x="491.498" y="85.9834" type="curve" smooth="yes"/>
      <point x="454.56" y="291.724" type="line"/>
      <point x="453.979" y="294.013"/>
      <point x="453.782" y="294.599"/>
      <point x="453.651" y="295" type="curve"/>
      <point x="295.282" y="295" type="line" smooth="yes"/>
      <point x="293.386" y="295"/>
      <point x="293.371" y="294.722"/>
      <point x="289.816" y="290.156" type="curve"/>
      <point x="161.363" y="90.1045" type="line"/>
      <point x="150.752" y="74.0078"/>
      <point x="145.598" y="67.21"/>
      <point x="145.598" y="55.8047" type="curve" smooth="yes"/>
      <point x="145.598" y="49.1133"/>
      <point x="150.047" y="42.0879"/>
      <point x="159.786" y="36.8555" type="curve" smooth="yes"/>
      <point x="164.259" y="34.4531"/>
      <point x="170.413" y="34"/>
      <point x="177.435" y="34" type="curve" smooth="yes"/>
      <point x="185.881" y="34" type="line"/>
      <point x="185.881" y="34"/>
      <point x="186.239" y="31.9473"/>
      <point x="186.239" y="29.0059" type="curve" smooth="yes"/>
      <point x="186.239" y="25.9619"/>
      <point x="184.855" y="19.9639"/>
      <point x="183.292" y="16.3047" type="curve" smooth="yes"/>
      <point x="179.936" y="8.44727"/>
      <point x="169.9" y="0"/>
      <point x="169.9" y="0" type="curve"/>
      <point x="-3.09961" y="0" type="line"/>
      <point x="-3.09961" y="0"/>
      <point x="-3.89941" y="2.6875"/>
      <point x="-3.89941" y="6.43457" type="curve" smooth="yes"/>
      <point x="-3.89941" y="9.34082"/>
      <point x="-3.41797" y="14.8848"/>
      <point x="-1.70801" y="18.3047" type="curve" smooth="yes"/>
      <point x="2.29199" y="26.3047"/>
      <point x="10.9004" y="34"/>
      <point x="10.9004" y="34" type="curve"/>
      <point x="17.4346" y="34" type="line" smooth="yes"/>
      <point x="23.459" y="34"/>
      <point x="32.8369" y="34.377"/>
      <point x="39.0635" y="36.8457" type="curve" smooth="yes"/>
      <point x="54.4766" y="42.957"/>
      <point x="65.4863" y="62.3252"/>
      <point x="76.5088" y="79.0254" type="curve"/>
      <point x="480.139" y="709.146" type="line"/>
      <point x="481.167" y="709.921" type="line" smooth="yes"/>
      <point x="495.96" y="721.076"/>
      <point x="548.707" y="718.951"/>
      <point x="561.109" y="728.504" type="curve" smooth="yes"/>
      <point x="579.62" y="735.977" type="line"/>
      <point x="687.335" y="57.915" type="line" smooth="yes"/>
      <point x="689.261" y="48.4707"/>
      <point x="691.198" y="41.9775"/>
      <point x="696.799" y="37.8398" type="curve" smooth="yes"/>
      <point x="700.877" y="34.8262"/>
      <point x="712.007" y="34"/>
      <point x="718.435" y="34" type="curve" smooth="yes"/>
    </contour>
    <contour>
      <point x="421" y="497" type="line"/>
      <point x="325.787" y="350" type="line"/>
      <point x="443.435" y="350" type="line" smooth="yes"/>
      <point x="443.731" y="350"/>
      <point x="444" y="350.032"/>
      <point x="444.179" y="350.049" type="curve"/>
      <point x="443.883" y="352.365"/>
      <point x="443.508" y="354.988" type="line"/>
    </contour>
  </outline>
</glyph>
<glyph name="B" format="1">
  <advance width="676"/>
  <unicode hex="0042"/>
  <outline>
    <contour>
      <point x="138.971" y="700" type="line"/>
      <point x="138.971" y="700"/>
      <point x="138.101" y="702.688"/>
      <point x="138.101" y="706.435" type="curve" smooth="yes"/>
      <point x="138.101" y="709.341"/>
      <point x="138.582" y="712.885"/>
      <point x="140.292" y="716.305" type="curve" smooth="yes"/>
      <point x="144.292" y="724.305"/>
      <point x="151.9" y="730"/>
      <point x="151.9" y="730" type="curve"/>
      <point x="183.556" y="730" type="line" smooth="yes"/>
      <point x="245.835" y="730"/>
      <point x="386.018" y="734"/>
      <point x="447.957" y="734" type="curve" smooth="yes"/>
      <point x="578.002" y="734"/>
      <point x="644.678" y="673.322"/>
      <point x="644.678" y="585.227" type="curve" smooth="yes"/>
      <point x="644.678" y="483.218"/>
      <point x="552.583" y="418.802"/>
      <point x="465.152" y="390.651" type="curve"/>
      <point x="529.882" y="375.898"/>
      <point x="610.793" y="323.447"/>
      <point x="610.793" y="235.921" type="curve" smooth="yes"/>
      <point x="610.793" y="68.1953"/>
      <point x="482.672" y="-2"/>
      <point x="343.577" y="-2" type="curve" smooth="yes"/>
      <point x="275.524" y="-2"/>
      <point x="156.282" y="0"/>
      <point x="60.9658" y="0" type="curve" smooth="yes"/>
      <point x="-20.0996" y="0" type="line"/>
      <point x="-20.0996" y="0"/>
      <point x="-20.8994" y="2.6875"/>
      <point x="-20.8994" y="6.43457" type="curve" smooth="yes"/>
      <point x="-20.8994" y="9.34082"/>
      <point x="-20.418" y="14.8848"/>
      <point x="-18.708" y="18.3047" type="curve" smooth="yes"/>
      <point x="-14.708" y="26.3047"/>
      <point x="-6.09961" y="34"/>
      <point x="-6.09961" y="34" type="curve"/>
      <point x="-3.03418" y="34" type="line" smooth="yes"/>
      <point x="5.08594" y="34"/>
      <point x="12.0723" y="34.9922"/>
      <point x="19.3945" y="36.7852" type="curve"/>
      <point x="35.793" y="40.167"/>
      <point x="45.6963" y="60.6172"/>
      <point x="48.1562" y="71.0566" type="curve"/>
      <point x="78.1729" y="186.71"/>
      <point x="99.1455" y="288.184"/>
      <point x="126.284" y="403.742" type="curve" smooth="yes"/>
      <point x="146.56" y="490.078"/>
      <point x="180.85" y="653.242"/>
      <point x="180.85" y="653.242" type="curve"/>
      <point x="181.648" y="656.801"/>
      <point x="185" y="673.499"/>
      <point x="185" y="677" type="curve" smooth="yes"/>
      <point x="185" y="689.967"/>
      <point x="180.611" y="696.006"/>
      <point x="173.133" y="698.346" type="curve"/>
      <point x="167.437" y="699.873"/>
      <point x="159.637" y="700"/>
      <point x="151.329" y="700" type="curve" smooth="yes"/>
    </contour>
    <contour>
      <point x="300.003" y="345.34" type="curve"/>
      <point x="234.172" y="70.2188" type="line" smooth="yes"/>
      <point x="233.654" y="67.5479"/>
      <point x="230.375" y="53.749"/>
      <point x="230.375" y="51.8389" type="curve" smooth="yes"/>
      <point x="230.375" y="44.8115"/>
      <point x="234.381" y="44"/>
      <point x="240.672" y="44" type="curve" smooth="yes"/>
      <point x="256.653" y="44"/>
      <point x="264.311" y="43"/>
      <point x="279.643" y="43" type="curve" smooth="yes"/>
      <point x="395.526" y="43"/>
      <point x="441.461" y="143.081"/>
      <point x="441.461" y="233.94" type="curve" smooth="yes"/>
      <point x="441.461" y="306.993"/>
      <point x="386.469" y="347"/>
      <point x="342.533" y="347" type="curve" smooth="yes"/>
      <point x="326.231" y="347"/>
      <point x="310.22" y="345.849"/>
    </contour>
    <contour>
      <point x="387.561" y="688.055" type="curve"/>
      <point x="378.288" y="687.031"/>
      <point x="375.853" y="685"/>
      <point x="373.417" y="676.647" type="curve" smooth="yes"/>
      <point x="335.873" y="517.655" type="line"/>
      <point x="311.638" y="416" type="line"/>
      <point x="337.314" y="416" type="line" smooth="yes"/>
      <point x="420.536" y="416"/>
      <point x="483.036" y="482.696"/>
      <point x="483.036" y="591.899" type="curve" smooth="yes"/>
      <point x="483.036" y="653.011"/>
      <point x="451.467" y="690"/>
      <point x="416.168" y="690" type="curve" smooth="yes"/>
      <point x="400.986" y="690"/>
      <point x="388.738" y="688.098"/>
    </contour>
  </outline>
</glyph>
<glyph name="C" format="1">
  <advance width="813"/>
  <unicode hex="0043"/>
  <outline>
    <contour>
      <point x="566.452" y="742" type="curve" smooth="yes"/>
      <point x="708.433" y="742"/>
      <point x="758.955" y="659"/>
      <point x="780.392" y="659" type="curve" smooth="yes"/>
      <point x="797.969" y="659"/>
      <point x="802.81" y="685"/>
      <point x="819.392" y="685" type="curve" smooth="yes"/>
      <point x="825.211" y="685"/>
      <point x="832.227" y="679.325"/>
      <point x="832.227" y="670.501" type="curve" smooth="yes"/>
      <point x="832.227" y="668.637"/>
      <point x="832.078" y="665.925"/>
      <point x="831.632" y="663.589" type="curve"/>
      <point x="786.312" y="462.139" type="line"/>
      <point x="784.765" y="455.265"/>
      <point x="777.135" y="450.732"/>
      <point x="769.786" y="450.732" type="curve" smooth="yes"/>
      <point x="764.865" y="450.732"/>
      <point x="756.392" y="456.616"/>
      <point x="756.392" y="466" type="curve" smooth="yes"/>
      <point x="756.392" y="565.635"/>
      <point x="682.836" y="687"/>
      <point x="543.783" y="687" type="curve" smooth="yes"/>
      <point x="344.003" y="687"/>
      <point x="263.698" y="432.79"/>
      <point x="263.698" y="237.338" type="curve" smooth="yes"/>
      <point x="263.698" y="77.2354"/>
      <point x="355.991" y="50"/>
      <point x="412.164" y="50" type="curve" smooth="yes"/>
      <point x="580.13" y="50"/>
      <point x="681.373" y="187.746"/>
      <point x="694" y="206" type="curve"/>
      <point x="732.461" y="182.655" type="line"/>
      <point x="728.635" y="175.823"/>
      <point x="654.586" y="-10"/>
      <point x="394.951" y="-10" type="curve" smooth="yes"/>
      <point x="250.068" y="-10"/>
      <point x="57.3896" y="37.2637"/>
      <point x="57.3896" y="241.982" type="curve" smooth="yes"/>
      <point x="57.3896" y="524.517"/>
      <point x="230.938" y="742"/>
    </contour>
  </outline>
</glyph>
<glyph name="D" format="1">
  <advance width="867"/>
  <unicode hex="0044"/>
  <outline>
    <contour>
      <point x="216.291" y="696" type="line"/>
      <point x="215.9" y="696"/>
      <point x="214.101" y="698.688"/>
      <point x="214.101" y="702.435" type="curve" smooth="yes"/>
      <point x="214.101" y="705.341"/>
      <point x="214.582" y="710.885"/>
      <point x="216.292" y="714.305" type="curve" smooth="yes"/>
      <point x="220.292" y="722.305"/>
      <point x="227.9" y="730"/>
      <point x="227.9" y="730" type="curve"/>
      <point x="451.358" y="730" type="line" smooth="yes"/>
      <point x="501.667" y="730"/>
      <point x="512.07" y="731"/>
      <point x="561.547" y="731" type="curve" smooth="yes"/>
      <point x="728.76" y="731"/>
      <point x="874.99" y="641.958"/>
      <point x="874.99" y="467.927" type="curve" smooth="yes"/>
      <point x="874.99" y="170.607"/>
      <point x="684.869" y="-3"/>
      <point x="417.412" y="-3" type="curve" smooth="yes"/>
      <point x="409.183" y="-3" type="line" smooth="yes"/>
      <point x="397.893" y="-3"/>
      <point x="376.304" y="-2.05371"/>
      <point x="374.992" y="-1.99609" type="curve"/>
      <point x="371.639" y="-1.9248"/>
      <point x="281.074" y="0"/>
      <point x="265.166" y="0" type="curve" smooth="yes"/>
      <point x="52.9004" y="0" type="line"/>
      <point x="52.9004" y="0"/>
      <point x="52.1006" y="2.6875"/>
      <point x="52.1006" y="6.43457" type="curve" smooth="yes"/>
      <point x="52.1006" y="9.34082"/>
      <point x="52.582" y="14.8848"/>
      <point x="54.292" y="18.3047" type="curve" smooth="yes"/>
      <point x="58.292" y="26.3047"/>
      <point x="66.9004" y="34"/>
      <point x="66.9004" y="34" type="curve"/>
      <point x="70.9658" y="34" type="line" smooth="yes"/>
      <point x="79.0859" y="34"/>
      <point x="86.0723" y="34.9922"/>
      <point x="93.3945" y="36.7852" type="curve"/>
      <point x="109.793" y="40.167"/>
      <point x="116.696" y="50.6172"/>
      <point x="119.156" y="61.0566" type="curve"/>
      <point x="148.181" y="176.741"/>
      <point x="167" y="268"/>
      <point x="198.897" y="402.797" type="curve" smooth="yes"/>
      <point x="224" y="509"/>
      <point x="237.395" y="570.76"/>
      <point x="258" y="662" type="curve"/>
      <point x="258.467" y="663.927"/>
      <point x="259.67" y="671.614"/>
      <point x="259.67" y="673.312" type="curve" smooth="yes"/>
      <point x="259.67" y="683.582"/>
      <point x="256.868" y="691.675"/>
      <point x="247.496" y="694.224" type="curve" smooth="yes"/>
      <point x="241.385" y="695.886"/>
      <point x="235" y="696"/>
      <point x="226.514" y="696" type="curve" smooth="yes"/>
    </contour>
    <contour>
      <point x="464.126" y="671.872" type="curve"/>
      <point x="461.056" y="656.779" type="line"/>
      <point x="411.593" y="450.931"/>
      <point x="324.873" y="59.3086"/>
      <point x="324.873" y="59.3086" type="curve"/>
      <point x="324.16" y="55.6934"/>
      <point x="323.752" y="52.4258"/>
      <point x="323.752" y="50.5869" type="curve" smooth="yes"/>
      <point x="323.752" y="48.8672"/>
      <point x="324.071" y="48.1289"/>
      <point x="324.071" y="48.127" type="curve"/>
      <point x="324.208" y="48.0371"/>
      <point x="326.409" y="47.3086"/>
      <point x="329.356" y="47.0029" type="curve"/>
      <point x="375.361" y="48" type="line"/>
      <point x="393.924" y="48" type="line" smooth="yes"/>
      <point x="596.946" y="48"/>
      <point x="688.703" y="260.384"/>
      <point x="688.703" y="480.383" type="curve" smooth="yes"/>
      <point x="688.703" y="626.278"/>
      <point x="591.014" y="678"/>
      <point x="493.256" y="678" type="curve" smooth="yes"/>
      <point x="471.444" y="678" type="line" smooth="yes"/>
      <point x="468.258" y="678"/>
      <point x="464.637" y="674.787"/>
    </contour>
  </outline>
</glyph>
<glyph name="E" format="1">
  <advance width="688"/>
  <unicode hex="0045"/>
  <outline>
    <contour>
      <point x="185.174" y="695.564" type="line"/>
      <point x="185.174" y="695.564"/>
      <point x="184.101" y="698.688"/>
      <point x="184.101" y="702.435" type="curve" smooth="yes"/>
      <point x="184.101" y="705.341"/>
      <point x="183.582" y="710.885"/>
      <point x="185.292" y="714.305" type="curve" smooth="yes"/>
      <point x="189.292" y="722.305"/>
      <point x="196.9" y="730"/>
      <point x="196.9" y="730" type="curve"/>
      <point x="675.062" y="730" type="line"/>
      <point x="653.307" y="565.543" type="line"/>
      <point x="630.941" y="567.498" type="line"/>
      <point x="631.165" y="574.232" type="line" smooth="yes"/>
      <point x="631.248" y="576.752"/>
      <point x="631.291" y="579.207"/>
      <point x="631.291" y="581.598" type="curve" smooth="yes"/>
      <point x="631.291" y="633.845"/>
      <point x="613.492" y="663.014"/>
      <point x="566.762" y="680.424" type="curve"/>
      <point x="539.771" y="689.819"/>
      <point x="545.069" y="691"/>
      <point x="499.44" y="691" type="curve" smooth="yes"/>
      <point x="480.018" y="691"/>
      <point x="462.103" y="690.061"/>
      <point x="442.448" y="688.117" type="curve"/>
      <point x="428.682" y="686.502"/>
      <point x="421.752" y="677.434"/>
      <point x="419.476" y="668.879" type="curve"/>
      <point x="358.979" y="415.262" type="line"/>
      <point x="387.564" y="413.264"/>
      <point x="406.654" y="411"/>
      <point x="434.578" y="411" type="curve" smooth="yes"/>
      <point x="470.163" y="411"/>
      <point x="476.929" y="411.374"/>
      <point x="506.782" y="416.909" type="curve" smooth="yes"/>
      <point x="522.054" y="419.741"/>
      <point x="530.512" y="426.15"/>
      <point x="536.693" y="438.901" type="curve" smooth="yes"/>
      <point x="541.446" y="449.195"/>
      <point x="544" y="459"/>
      <point x="546.61" y="470" type="curve"/>
      <point x="567.951" y="470" type="line"/>
      <point x="527.637" y="308" type="line"/>
      <point x="509.291" y="308" type="line"/>
      <point x="510.896" y="315.703"/>
      <point x="511.909" y="323.627"/>
      <point x="511.909" y="330.595" type="curve" smooth="yes"/>
      <point x="511.909" y="335.386"/>
      <point x="511.43" y="339.725"/>
      <point x="510.336" y="343.229" type="curve" smooth="yes"/>
      <point x="506.848" y="354.404"/>
      <point x="500.875" y="361.766"/>
      <point x="492.434" y="363.091" type="curve" smooth="yes"/>
      <point x="465.075" y="367.387"/>
      <point x="457.26" y="368"/>
      <point x="425.307" y="368" type="curve" smooth="yes"/>
      <point x="395.68" y="368"/>
      <point x="371.266" y="365.24"/>
      <point x="345.482" y="362.69" type="curve"/>
      <point x="276.882" y="63.9424" type="line"/>
      <point x="276.43" y="62.0908"/>
      <point x="276.21" y="60.2734"/>
      <point x="276.21" y="58.4062" type="curve" smooth="yes"/>
      <point x="276.21" y="49.8057"/>
      <point x="286.34" y="43.0049"/>
      <point x="296.375" y="41.8916" type="curve" smooth="yes"/>
      <point x="314.075" y="39.9277"/>
      <point x="316.833" y="39"/>
      <point x="334.194" y="39" type="curve" smooth="yes"/>
      <point x="394.364" y="39"/>
      <point x="401.727" y="40.0713"/>
      <point x="444.173" y="49.8008" type="curve"/>
      <point x="504.217" y="64.251"/>
      <point x="536.353" y="99.0244"/>
      <point x="562.738" y="157.783" type="curve" smooth="yes"/>
      <point x="564.443" y="161.719" type="line"/>
      <point x="592.253" y="164.645" type="line"/>
      <point x="534.354" y="0" type="line"/>
      <point x="20.1953" y="0" type="line"/>
      <point x="20.1953" y="0"/>
      <point x="19.1006" y="2.6875"/>
      <point x="19.1006" y="6.43457" type="curve" smooth="yes"/>
      <point x="19.1006" y="9.34082"/>
      <point x="19.582" y="14.8848"/>
      <point x="21.292" y="18.3047" type="curve" smooth="yes"/>
      <point x="25.292" y="26.3047"/>
      <point x="33.9004" y="34"/>
      <point x="33.9004" y="34" type="curve"/>
      <point x="37.1611" y="33.4355" type="line" smooth="yes"/>
      <point x="47.166" y="33.4355"/>
      <point x="48.6455" y="33.4707"/>
      <point x="57.7529" y="35.2578" type="curve"/>
      <point x="73.8379" y="38.5801"/>
      <point x="82.9062" y="50.1436"/>
      <point x="85.3398" y="60.4902" type="curve" smooth="yes"/>
      <point x="85.415" y="60.8086" type="line"/>
      <point x="85.5195" y="61.1182" type="line" smooth="yes"/>
      <point x="91.1357" y="77.6494"/>
      <point x="134.261" y="250.382"/>
      <point x="170.66" y="411.663" type="curve" smooth="yes"/>
      <point x="198.757" y="536.155"/>
      <point x="221.858" y="632.321"/>
      <point x="226.891" y="657.079" type="curve" smooth="yes"/>
      <point x="230.657" y="675.851" type="line" smooth="yes"/>
      <point x="230.657" y="683.133"/>
      <point x="228.281" y="691.857"/>
      <point x="216.676" y="693.785" type="curve" smooth="yes"/>
      <point x="209.064" y="695.05"/>
      <point x="205.875" y="695.564"/>
      <point x="197.487" y="695.564" type="curve" smooth="yes"/>
    </contour>
  </outline>
</glyph>
<glyph name="F" format="1">
  <advance width="683"/>
  <unicode hex="0046"/>
  <outline>
    <contour>
      <point x="316.881" y="34" type="line"/>
      <point x="316.881" y="34"/>
      <point x="317.239" y="31.9473"/>
      <point x="317.239" y="29.0059" type="curve" smooth="yes"/>
      <point x="317.239" y="25.9619"/>
      <point x="315.855" y="19.9639"/>
      <point x="314.292" y="16.3047" type="curve" smooth="yes"/>
      <point x="310.936" y="8.44727"/>
      <point x="300.9" y="0"/>
      <point x="300.9" y="0" type="curve"/>
      <point x="18" y="0" type="line"/>
      <point x="18" y="0"/>
      <point x="17.1006" y="2.6875"/>
      <point x="17.1006" y="6.43457" type="curve" smooth="yes"/>
      <point x="17.1006" y="9.34082"/>
      <point x="17.582" y="14.8848"/>
      <point x="19.292" y="18.3047" type="curve" smooth="yes"/>
      <point x="23.292" y="26.3047"/>
      <point x="31.9004" y="34"/>
      <point x="31.9004" y="34" type="curve"/>
      <point x="36.9658" y="34" type="line" smooth="yes"/>
      <point x="45.0859" y="34"/>
      <point x="54.0723" y="34.9922"/>
      <point x="61.3945" y="36.7871" type="curve"/>
      <point x="78.0479" y="41.2246"/>
      <point x="86.752" y="59.8867"/>
      <point x="89.29" y="70.5762" type="curve" smooth="yes"/>
      <point x="95.0029" y="88.3105"/>
      <point x="131.196" y="241.565"/>
      <point x="168.082" y="397.241" type="curve" smooth="yes"/>
      <point x="199.253" y="528.799"/>
      <point x="228.34" y="657.555"/>
      <point x="228.367" y="657.676" type="curve"/>
      <point x="228.748" y="659.237"/>
      <point x="233.084" y="678.143"/>
      <point x="233.084" y="678.889" type="curve" smooth="yes"/>
      <point x="233.084" y="686.162"/>
      <point x="229.554" y="692.268"/>
      <point x="218.169" y="694.8" type="curve"/>
      <point x="209.952" y="696.526"/>
      <point x="209.118" y="696.588"/>
      <point x="198.748" y="696.588" type="curve" smooth="yes"/>
      <point x="183.449" y="696.588" type="line"/>
      <point x="183.449" y="696.588"/>
      <point x="182.101" y="698.688"/>
      <point x="182.101" y="702.435" type="curve" smooth="yes"/>
      <point x="182.101" y="705.341"/>
      <point x="181.582" y="710.885"/>
      <point x="183.292" y="714.305" type="curve" smooth="yes"/>
      <point x="187.292" y="722.305"/>
      <point x="194.9" y="730"/>
      <point x="194.9" y="730" type="curve"/>
      <point x="698.811" y="730" type="line"/>
      <point x="677.162" y="565.571" type="line"/>
      <point x="653.743" y="567.466" type="line"/>
      <point x="653.97" y="574.234" type="line" smooth="yes"/>
      <point x="654.065" y="577.105"/>
      <point x="654.114" y="579.907"/>
      <point x="654.114" y="582.636" type="curve" smooth="yes"/>
      <point x="654.114" y="635.01"/>
      <point x="638.532" y="666.828"/>
      <point x="591.075" y="680.26" type="curve"/>
      <point x="555.479" y="689.896"/>
      <point x="550.417" y="691"/>
      <point x="493.438" y="691" type="curve" smooth="yes"/>
      <point x="473.998" y="691"/>
      <point x="464.16" y="690.064"/>
      <point x="444.415" y="688.106" type="curve" smooth="yes"/>
      <point x="428.538" y="686.532"/>
      <point x="418.102" y="664.668"/>
      <point x="415.498" y="654.037" type="curve"/>
      <point x="354.98" y="396.326" type="line"/>
      <point x="390.663" y="394.097"/>
      <point x="400.805" y="392.926"/>
      <point x="437.927" y="392.926" type="curve" smooth="yes"/>
      <point x="483.962" y="392.926"/>
      <point x="503.471" y="394.199"/>
      <point x="519.395" y="418.902" type="curve" smooth="yes"/>
      <point x="525.534" y="428.428"/>
      <point x="529" y="437"/>
      <point x="533.293" y="452" type="curve"/>
      <point x="554.937" y="452" type="line"/>
      <point x="513.338" y="290" type="line"/>
      <point x="495.029" y="290" type="line"/>
      <point x="495.969" y="300.353"/>
      <point x="497.076" y="312.378"/>
      <point x="497.076" y="327.229" type="curve" smooth="yes"/>
      <point x="497.076" y="339.242"/>
      <point x="487.775" y="342.608"/>
      <point x="478.216" y="344.089" type="curve" smooth="yes"/>
      <point x="451.213" y="348.27"/>
      <point x="438.092" y="350"/>
      <point x="406.21" y="350" type="curve" smooth="yes"/>
      <point x="376.472" y="350"/>
      <point x="366.637" y="347.284"/>
      <point x="340.319" y="344.671" type="curve"/>
      <point x="318.179" y="248.196"/>
      <point x="300.65" y="168.109"/>
      <point x="276.165" y="70.9795" type="curve" smooth="yes"/>
      <point x="275.658" y="68.9697"/>
      <point x="274.472" y="62.2744"/>
      <point x="274.472" y="60.6201" type="curve" smooth="yes"/>
      <point x="274.472" y="53.8525"/>
      <point x="274.893" y="41.5322"/>
      <point x="284.243" y="37.4922" type="curve" smooth="yes"/>
      <point x="291.185" y="34.4932"/>
      <point x="297" y="34"/>
      <point x="307.788" y="34" type="curve" smooth="yes"/>
    </contour>
  </outline>
</glyph>
<glyph name="G" format="1">
  <advance width="805"/>
  <unicode hex="0047"/>
  <outline>
    <contour>
      <point x="775.811" y="284" type="line" smooth="yes"/>
      <point x="746.604" y="284"/>
      <point x="727.138" y="266.15"/>
      <point x="722.615" y="247.009" type="curve" smooth="yes"/>
      <point x="703.607" y="167.037" type="line"/>
      <point x="697.302" y="141.385"/>
      <point x="688.449" y="134.321"/>
      <point x="669.401" y="113.422" type="curve"/>
      <point x="618.632" y="58.2988"/>
      <point x="495.814" y="-10"/>
      <point x="353.39" y="-10" type="curve" smooth="yes"/>
      <point x="232.36" y="-10"/>
      <point x="38.0381" y="36.7383"/>
      <point x="38.0381" y="243.393" type="curve" smooth="yes"/>
      <point x="38.0381" y="525.32"/>
      <point x="212.058" y="742"/>
      <point x="538.856" y="742" type="curve" smooth="yes"/>
      <point x="680.834" y="742"/>
      <point x="720.374" y="658"/>
      <point x="741.811" y="658" type="curve" smooth="yes"/>
      <point x="760.369" y="658"/>
      <point x="761.353" y="685"/>
      <point x="781.811" y="685" type="curve" smooth="yes"/>
      <point x="790.384" y="685"/>
      <point x="797.481" y="676.648"/>
      <point x="797.481" y="669.294" type="curve" smooth="yes"/>
      <point x="797.481" y="668.157"/>
      <point x="797.422" y="667.371"/>
      <point x="797.201" y="665.998" type="curve"/>
      <point x="757" y="470" type="line" smooth="yes"/>
      <point x="755.543" y="462.968"/>
      <point x="749.292" y="451"/>
      <point x="739" y="451" type="curve" smooth="yes"/>
      <point x="732.397" y="451"/>
      <point x="720.811" y="459.885"/>
      <point x="720.811" y="468" type="curve" smooth="yes"/>
      <point x="720.811" y="567.635"/>
      <point x="659.255" y="687"/>
      <point x="520.188" y="687" type="curve" smooth="yes"/>
      <point x="331.604" y="687"/>
      <point x="241.694" y="435.552"/>
      <point x="241.694" y="241.036" type="curve" smooth="yes"/>
      <point x="241.694" y="97.5342"/>
      <point x="319.098" y="51"/>
      <point x="368.754" y="51" type="curve" smooth="yes"/>
      <point x="453.436" y="51"/>
      <point x="540" y="125"/>
      <point x="550.698" y="172.712" type="curve"/>
      <point x="566.244" y="247.226" type="line"/>
      <point x="566.717" y="249.159"/>
      <point x="567.918" y="258.815"/>
      <point x="567.918" y="260.502" type="curve" smooth="yes"/>
      <point x="567.918" y="276.165"/>
      <point x="552.742" y="284"/>
      <point x="534.041" y="284" type="curve" smooth="yes"/>
      <point x="525.351" y="284" type="line"/>
      <point x="531.146" y="309" type="line"/>
      <point x="788.776" y="309" type="line"/>
      <point x="781.276" y="284" type="line"/>
    </contour>
  </outline>
</glyph>
<glyph name="H" format="1">
  <advance width="878"/>
  <unicode hex="0048"/>
  <outline>
    <contour>
      <point x="459" y="0" type="line"/>
      <point x="458.9" y="0"/>
      <point x="458.101" y="2.6875"/>
      <point x="458.101" y="6.43457" type="curve" smooth="yes"/>
      <point x="458.101" y="9.34082"/>
      <point x="458.582" y="14.8848"/>
      <point x="460.292" y="18.3047" type="curve" smooth="yes"/>
      <point x="464.292" y="26.3047"/>
      <point x="472.9" y="34"/>
      <point x="472.9" y="34" type="curve"/>
      <point x="477.966" y="34" type="line" smooth="yes"/>
      <point x="486.062" y="34"/>
      <point x="495" y="35"/>
      <point x="501.357" y="36.7773" type="curve" smooth="yes"/>
      <point x="518.556" y="41.5859"/>
      <point x="527.809" y="60.1201"/>
      <point x="530.144" y="70.0352" type="curve" smooth="yes"/>
      <point x="598" y="365" type="line"/>
      <point x="597.737" y="365.359"/>
      <point x="596.67" y="366"/>
      <point x="595.882" y="366" type="curve"/>
      <point x="543.236" y="366.001"/>
      <point x="536.372" y="368"/>
      <point x="474.255" y="368" type="curve" smooth="yes"/>
      <point x="413.085" y="368"/>
      <point x="390.119" y="366.042"/>
      <point x="341.904" y="366.021" type="curve"/>
      <point x="340.722" y="365.491"/>
      <point x="339.075" y="363.076"/>
      <point x="338.68" y="362.096" type="curve"/>
      <point x="330.919" y="325.679"/>
      <point x="322.958" y="298.2"/>
      <point x="314.485" y="262.688" type="curve"/>
      <point x="296.806" y="192.198"/>
      <point x="287.727" y="148.318"/>
      <point x="270.827" y="78.1465" type="curve"/>
      <point x="269.559" y="72.8848"/>
      <point x="267.595" y="61.1074"/>
      <point x="267.595" y="59.8721" type="curve" smooth="yes"/>
      <point x="267.595" y="49.9746"/>
      <point x="269.205" y="41.4395"/>
      <point x="279.776" y="36.7275" type="curve" smooth="yes"/>
      <point x="285.812" y="34.0371"/>
      <point x="292.852" y="34"/>
      <point x="300.966" y="34" type="curve" smooth="yes"/>
      <point x="309.881" y="34" type="line"/>
      <point x="309.881" y="34"/>
      <point x="310.239" y="31.9473"/>
      <point x="310.239" y="29.0059" type="curve" smooth="yes"/>
      <point x="310.239" y="25.9619"/>
      <point x="308.855" y="17.9639"/>
      <point x="307.292" y="14.3047" type="curve" smooth="yes"/>
      <point x="303.936" y="6.44727"/>
      <point x="294.431" y="0"/>
      <point x="294.431" y="0" type="curve"/>
      <point x="10" y="0" type="line"/>
      <point x="10" y="0"/>
      <point x="9.10059" y="2.6875"/>
      <point x="9.10059" y="6.43457" type="curve" smooth="yes"/>
      <point x="9.10059" y="9.34082"/>
      <point x="9.58203" y="14.8848"/>
      <point x="11.292" y="18.3047" type="curve" smooth="yes"/>
      <point x="15.292" y="26.3047"/>
      <point x="23.9004" y="34"/>
      <point x="23.9004" y="34" type="curve"/>
      <point x="27.9658" y="34" type="line" smooth="yes"/>
      <point x="36.0859" y="34"/>
      <point x="43.0723" y="34.9922"/>
      <point x="50.3945" y="36.7852" type="curve"/>
      <point x="66.792" y="40.167"/>
      <point x="77.6973" y="60.6221"/>
      <point x="80.1543" y="71.0508" type="curve"/>
      <point x="109.182" y="187.725"/>
      <point x="133.148" y="289.175"/>
      <point x="160.141" y="405.707" type="curve" smooth="yes"/>
      <point x="181.15" y="495.865"/>
      <point x="199.105" y="569.762"/>
      <point x="218.127" y="659.977" type="curve"/>
      <point x="218.595" y="661.962"/>
      <point x="220.784" y="672.603"/>
      <point x="220.784" y="674.316" type="curve" smooth="yes"/>
      <point x="220.784" y="681.697"/>
      <point x="218.201" y="686.779"/>
      <point x="209.245" y="691.251" type="curve" smooth="yes"/>
      <point x="203.73" y="694.005"/>
      <point x="195.851" y="696"/>
      <point x="186.966" y="696" type="curve" smooth="yes"/>
      <point x="175.9" y="696" type="line"/>
      <point x="175.9" y="696"/>
      <point x="174.101" y="700.688"/>
      <point x="174.101" y="704.435" type="curve" smooth="yes"/>
      <point x="174.101" y="707.341"/>
      <point x="174.582" y="710.885"/>
      <point x="176.292" y="714.305" type="curve" smooth="yes"/>
      <point x="180.292" y="722.305"/>
      <point x="187.9" y="730"/>
      <point x="187.9" y="730" type="curve"/>
      <point x="479.077" y="730" type="line"/>
      <point x="479.077" y="730"/>
      <point x="480.239" y="727.947"/>
      <point x="480.239" y="725.006" type="curve" smooth="yes"/>
      <point x="480.239" y="721.962"/>
      <point x="479.855" y="716.964"/>
      <point x="478.292" y="713.305" type="curve" smooth="yes"/>
      <point x="474.936" y="705.447"/>
      <point x="465.9" y="697"/>
      <point x="465.9" y="697" type="curve"/>
      <point x="459.966" y="697" type="line" smooth="yes"/>
      <point x="452.472" y="697"/>
      <point x="444.733" y="696.302"/>
      <point x="435.536" y="694.247" type="curve" smooth="yes"/>
      <point x="421" y="691"/>
      <point x="411.285" y="674.477"/>
      <point x="407.798" y="660.156" type="curve"/>
      <point x="394.756" y="605.367"/>
      <point x="383.81" y="561.075"/>
      <point x="370.771" y="506.298" type="curve"/>
      <point x="363.87" y="479.376"/>
      <point x="358.626" y="455.116"/>
      <point x="352.919" y="430.95" type="curve"/>
      <point x="402.643" y="430.905"/>
      <point x="423.396" y="429"/>
      <point x="484.725" y="429" type="curve" smooth="yes"/>
      <point x="547.819" y="429"/>
      <point x="553.68" y="429.998"/>
      <point x="606.403" y="431" type="curve"/>
      <point x="612.083" y="431"/>
      <point x="612.583" y="432.757"/>
      <point x="613.069" y="433.877" type="curve"/>
      <point x="668.131" y="663.1" type="line"/>
      <point x="668.557" y="665.04"/>
      <point x="669.784" y="672.029"/>
      <point x="669.784" y="673.751" type="curve" smooth="yes"/>
      <point x="669.784" y="681.195"/>
      <point x="667.828" y="685.579"/>
      <point x="660.362" y="691.231" type="curve" smooth="yes"/>
      <point x="655.137" y="695.188"/>
      <point x="647" y="696"/>
      <point x="637.966" y="696" type="curve" smooth="yes"/>
      <point x="628.9" y="696" type="line"/>
      <point x="628.9" y="696"/>
      <point x="627.101" y="700.688"/>
      <point x="627.101" y="704.435" type="curve" smooth="yes"/>
      <point x="627.101" y="707.341"/>
      <point x="627.582" y="710.885"/>
      <point x="629.292" y="714.305" type="curve" smooth="yes"/>
      <point x="633.292" y="722.305"/>
      <point x="640.9" y="730"/>
      <point x="640.9" y="730" type="curve"/>
      <point x="928.931" y="730" type="line"/>
      <point x="928.931" y="730"/>
      <point x="930.239" y="727.947"/>
      <point x="930.239" y="725.006" type="curve" smooth="yes"/>
      <point x="930.239" y="721.962"/>
      <point x="929.855" y="715.964"/>
      <point x="928.292" y="712.305" type="curve" smooth="yes"/>
      <point x="924.936" y="704.447"/>
      <point x="915.9" y="696"/>
      <point x="915.9" y="696" type="curve"/>
      <point x="910.966" y="696" type="line" smooth="yes"/>
      <point x="902.868" y="696"/>
      <point x="894.811" y="695.996"/>
      <point x="887.574" y="694.224" type="curve"/>
      <point x="871.61" y="690.749"/>
      <point x="860.957" y="671.787"/>
      <point x="857.724" y="660.701" type="curve"/>
      <point x="833.818" y="568.988"/>
      <point x="815.771" y="490.736"/>
      <point x="793.785" y="398.717" type="curve"/>
      <point x="766.789" y="283.149"/>
      <point x="745.801" y="186.615"/>
      <point x="719.794" y="71" type="curve"/>
      <point x="719.438" y="69.4873"/>
      <point x="718.287" y="63.1543"/>
      <point x="718.287" y="61.8252" type="curve" smooth="yes"/>
      <point x="718.287" y="54.8662"/>
      <point x="720.553" y="41.0459"/>
      <point x="728.776" y="37.7266" type="curve" smooth="yes"/>
      <point x="736.511" y="34.6045"/>
      <point x="742.852" y="34"/>
      <point x="750.966" y="34" type="curve" smooth="yes"/>
      <point x="759.881" y="34" type="line"/>
      <point x="759.881" y="34"/>
      <point x="760.239" y="31.9473"/>
      <point x="760.239" y="29.0059" type="curve" smooth="yes"/>
      <point x="760.239" y="25.9619"/>
      <point x="758.855" y="17.9639"/>
      <point x="757.292" y="14.3047" type="curve" smooth="yes"/>
      <point x="753.936" y="6.44727"/>
      <point x="743.9" y="0"/>
      <point x="743.9" y="0" type="curve"/>
    </contour>
  </outline>
</glyph>
<glyph name="I" format="1">
  <advance width="467"/>
  <unicode hex="0049"/>
  <outline>
    <contour>
      <point x="302.077" y="35" type="line"/>
      <point x="302.077" y="35"/>
      <point x="303.239" y="31.9473"/>
      <point x="303.239" y="29.0059" type="curve" smooth="yes"/>
      <point x="303.239" y="25.9619"/>
      <point x="302.855" y="20.9639"/>
      <point x="301.292" y="17.3047" type="curve" smooth="yes"/>
      <point x="297.936" y="9.44727"/>
      <point x="287.9" y="0"/>
      <point x="287.9" y="0" type="curve"/>
      <point x="-0.0996094" y="0" type="line"/>
      <point x="-0.0996094" y="0"/>
      <point x="-0.899414" y="2.6875"/>
      <point x="-0.899414" y="6.43457" type="curve" smooth="yes"/>
      <point x="-0.899414" y="9.34082"/>
      <point x="-0.417969" y="14.8848"/>
      <point x="1.29199" y="18.3047" type="curve" smooth="yes"/>
      <point x="5.29199" y="26.3047"/>
      <point x="12.9004" y="34"/>
      <point x="12.9004" y="34" type="curve"/>
      <point x="17.9658" y="34" type="line" smooth="yes"/>
      <point x="26.0859" y="34"/>
      <point x="33.0996" y="34.8232"/>
      <point x="41.3945" y="37.7852" type="curve" smooth="yes"/>
      <point x="56" y="43"/>
      <point x="66.5293" y="56.8545"/>
      <point x="70.1543" y="71.0498" type="curve" smooth="yes"/>
      <point x="120.432" y="267.928"/>
      <point x="169.576" y="462.961"/>
      <point x="211.136" y="658.015" type="curve" smooth="yes"/>
      <point x="211.543" y="659.926"/>
      <point x="212.785" y="666.626"/>
      <point x="212.785" y="668.315" type="curve" smooth="yes"/>
      <point x="212.785" y="679.443"/>
      <point x="212" y="685"/>
      <point x="202.042" y="691.305" type="curve" smooth="yes"/>
      <point x="196.966" y="694.519"/>
      <point x="190.013" y="696"/>
      <point x="181.966" y="696" type="curve" smooth="yes"/>
      <point x="171.9" y="696" type="line"/>
      <point x="171.9" y="696"/>
      <point x="171.101" y="698.688"/>
      <point x="171.101" y="702.435" type="curve" smooth="yes"/>
      <point x="171.101" y="705.341"/>
      <point x="171.582" y="710.885"/>
      <point x="173.292" y="714.305" type="curve" smooth="yes"/>
      <point x="177.292" y="722.305"/>
      <point x="184.5" y="730"/>
      <point x="184.5" y="730" type="curve"/>
      <point x="458.931" y="730" type="line"/>
      <point x="458.931" y="730"/>
      <point x="460.239" y="726.947"/>
      <point x="460.239" y="724.006" type="curve" smooth="yes"/>
      <point x="460.239" y="720.962"/>
      <point x="459.855" y="715.964"/>
      <point x="458.292" y="712.305" type="curve" smooth="yes"/>
      <point x="454.936" y="704.447"/>
      <point x="444.9" y="696"/>
      <point x="444.9" y="696" type="curve"/>
      <point x="438.966" y="696" type="line" smooth="yes"/>
      <point x="435.296" y="696"/>
      <point x="430.85" y="695.47"/>
      <point x="423.182" y="693.146" type="curve" smooth="yes"/>
      <point x="409.433" y="688.978"/>
      <point x="399.34" y="670.95"/>
      <point x="396.771" y="660.889" type="curve" smooth="yes"/>
      <point x="349.32" y="474.964"/>
      <point x="296.552" y="256.546"/>
      <point x="256" y="73" type="curve" smooth="yes"/>
      <point x="254.855" y="67.8184"/>
      <point x="253.122" y="62.0332"/>
      <point x="253.122" y="56.3633" type="curve" smooth="yes"/>
      <point x="253.122" y="49.0703"/>
      <point x="255.833" y="41.6143"/>
      <point x="263.316" y="38.7266" type="curve" smooth="yes"/>
      <point x="269.025" y="36.5244"/>
      <point x="277.852" y="35"/>
      <point x="285.966" y="35" type="curve" smooth="yes"/>
    </contour>
  </outline>
</glyph>
<glyph name="J" format="1">
  <advance width="396"/>
  <unicode hex="004A"/>
  <outline>
    <contour>
      <point x="372.668" y="660.779" type="curve"/>
      <point x="357.669" y="600.736"/>
      <point x="338.735" y="520.055"/>
      <point x="316.689" y="422.847" type="curve" smooth="yes"/>
      <point x="276.581" y="245.994"/>
      <point x="231.247" y="60.6416"/>
      <point x="225.89" y="37.9873" type="curve"/>
      <point x="190.766" y="-99.2529"/>
      <point x="38.7998" y="-175"/>
      <point x="-172.91" y="-179.996" type="curve" smooth="yes"/>
      <point x="-182" y="-180.288" type="line"/>
      <point x="-171.029" y="-138.413" type="line"/>
      <point x="-167.07" y="-137.273" type="line" smooth="yes"/>
      <point x="-34.9912" y="-100.341"/>
      <point x="8.03418" y="-66.1289"/>
      <point x="47.2803" y="84.9102" type="curve"/>
      <point x="54.7471" y="112.347"/>
      <point x="105.341" y="318.154"/>
      <point x="138.687" y="467.432" type="curve" smooth="yes"/>
      <point x="156.961" y="549.239"/>
      <point x="170.032" y="602.821"/>
      <point x="182.032" y="657.905" type="curve" smooth="yes"/>
      <point x="182.439" y="659.816"/>
      <point x="183.682" y="666.517"/>
      <point x="183.682" y="668.206" type="curve" smooth="yes"/>
      <point x="183.682" y="679.334"/>
      <point x="182.896" y="684.891"/>
      <point x="172.938" y="691.195" type="curve" smooth="yes"/>
      <point x="167.862" y="694.409"/>
      <point x="160.909" y="695.891"/>
      <point x="152.862" y="695.891" type="curve" smooth="yes"/>
      <point x="142.797" y="695.891" type="line"/>
      <point x="142.797" y="695.891"/>
      <point x="141.997" y="698.578"/>
      <point x="141.997" y="702.325" type="curve" smooth="yes"/>
      <point x="141.997" y="705.231"/>
      <point x="142.479" y="710.775"/>
      <point x="144.188" y="714.195" type="curve" smooth="yes"/>
      <point x="148.188" y="722.195"/>
      <point x="155.396" y="729.891"/>
      <point x="155.396" y="729.891" type="curve"/>
      <point x="434.827" y="729.891" type="line"/>
      <point x="434.827" y="729.891"/>
      <point x="436.136" y="726.838"/>
      <point x="436.136" y="723.896" type="curve" smooth="yes"/>
      <point x="436.136" y="720.853"/>
      <point x="435.752" y="715.854"/>
      <point x="434.188" y="712.195" type="curve" smooth="yes"/>
      <point x="430.832" y="704.338"/>
      <point x="420.797" y="695.891"/>
      <point x="420.797" y="695.891" type="curve"/>
      <point x="414.862" y="695.891" type="line" smooth="yes"/>
      <point x="411.192" y="695.891"/>
      <point x="406.746" y="695.36"/>
      <point x="399.078" y="693.036" type="curve" smooth="yes"/>
      <point x="385.329" y="688.869"/>
      <point x="375.236" y="670.841"/>
    </contour>
  </outline>
</glyph>
<glyph name="K" format="1">
  <advance width="729"/>
  <unicode hex="004B"/>
  <outline>
    <contour>
      <point x="723.431" y="0" type="curve"/>
      <point x="445.531" y="0" type="line"/>
      <point x="445.531" y="0"/>
      <point x="444.101" y="2.6875"/>
      <point x="444.101" y="6.43457" type="curve" smooth="yes"/>
      <point x="444.101" y="9.34082"/>
      <point x="444.582" y="14.8848"/>
      <point x="446.292" y="18.3047" type="curve" smooth="yes"/>
      <point x="450.292" y="26.3047"/>
      <point x="457.5" y="34"/>
      <point x="457.5" y="34" type="curve"/>
      <point x="460.966" y="34" type="line" smooth="yes"/>
      <point x="467" y="34"/>
      <point x="476.247" y="34.8076"/>
      <point x="483.844" y="36.9111" type="curve" smooth="yes"/>
      <point x="495" y="40"/>
      <point x="503.902" y="51.125"/>
      <point x="503.902" y="64.1191" type="curve" smooth="yes"/>
      <point x="503.902" y="69.2207"/>
      <point x="502.208" y="78.1924"/>
      <point x="497.538" y="88.2207" type="curve" smooth="yes"/>
      <point x="453.562" y="182.658"/>
      <point x="423.392" y="235.637"/>
      <point x="376" y="329" type="curve"/>
      <point x="362.907" y="318.962"/>
      <point x="363.32" y="321.34"/>
      <point x="352" y="318" type="curve"/>
      <point x="287" y="78" type="line" smooth="yes"/>
      <point x="285.667" y="72.4307"/>
      <point x="283.098" y="63.4678"/>
      <point x="283.098" y="57.2031" type="curve" smooth="yes"/>
      <point x="283.098" y="49.3057"/>
      <point x="284.914" y="39.8789"/>
      <point x="293.228" y="36.8906" type="curve" smooth="yes"/>
      <point x="301.205" y="34.0225"/>
      <point x="309.472" y="34"/>
      <point x="315.966" y="34" type="curve" smooth="yes"/>
      <point x="324.931" y="34" type="line"/>
      <point x="324.931" y="34"/>
      <point x="326.239" y="30.9473"/>
      <point x="326.239" y="28.0059" type="curve" smooth="yes"/>
      <point x="326.239" y="24.9619"/>
      <point x="325.855" y="19.9639"/>
      <point x="324.292" y="16.3047" type="curve" smooth="yes"/>
      <point x="320.936" y="8.44727"/>
      <point x="310.9" y="0"/>
      <point x="310.9" y="0" type="curve"/>
      <point x="26.9004" y="0" type="line"/>
      <point x="26.9004" y="0"/>
      <point x="26.1006" y="2.6875"/>
      <point x="26.1006" y="6.43457" type="curve" smooth="yes"/>
      <point x="26.1006" y="9.34082"/>
      <point x="26.582" y="14.8848"/>
      <point x="28.292" y="18.3047" type="curve" smooth="yes"/>
      <point x="32.292" y="26.3047"/>
      <point x="39.5" y="34"/>
      <point x="39.5" y="34" type="curve"/>
      <point x="42.9658" y="34" type="line" smooth="yes"/>
      <point x="49.1523" y="34"/>
      <point x="57.4307" y="34.9688"/>
      <point x="64.8457" y="35.875" type="curve"/>
      <point x="81.7803" y="39.7295"/>
      <point x="91.6895" y="59.79"/>
      <point x="95.1426" y="71.0049" type="curve"/>
      <point x="125.18" y="186.738"/>
      <point x="149.132" y="288.126"/>
      <point x="176.138" y="403.732" type="curve" smooth="yes"/>
      <point x="197.15" y="494.885"/>
      <point x="216.103" y="570.768"/>
      <point x="235.125" y="661.969" type="curve"/>
      <point x="235.597" y="663.97"/>
      <point x="236.784" y="671.599"/>
      <point x="236.784" y="673.316" type="curve" smooth="yes"/>
      <point x="236.784" y="679.103"/>
      <point x="235.289" y="685.874"/>
      <point x="225.042" y="691.305" type="curve" smooth="yes"/>
      <point x="219.525" y="694.229"/>
      <point x="210.967" y="696"/>
      <point x="203.966" y="696" type="curve" smooth="yes"/>
      <point x="194.9" y="696" type="line"/>
      <point x="194.9" y="696"/>
      <point x="194.101" y="698.688"/>
      <point x="194.101" y="702.435" type="curve" smooth="yes"/>
      <point x="194.101" y="705.341"/>
      <point x="194.582" y="710.885"/>
      <point x="196.292" y="714.305" type="curve" smooth="yes"/>
      <point x="200.292" y="722.305"/>
      <point x="207.5" y="730"/>
      <point x="207.5" y="730" type="curve"/>
      <point x="493.4" y="730" type="line"/>
      <point x="493.4" y="730"/>
      <point x="495.239" y="726.947"/>
      <point x="495.239" y="724.006" type="curve" smooth="yes"/>
      <point x="495.239" y="720.962"/>
      <point x="494.855" y="715.964"/>
      <point x="493.292" y="712.305" type="curve" smooth="yes"/>
      <point x="489.936" y="704.447"/>
      <point x="479.9" y="696"/>
      <point x="479.9" y="696" type="curve"/>
      <point x="476.966" y="696" type="line" smooth="yes"/>
      <point x="469.886" y="696"/>
      <point x="460.027" y="694.797"/>
      <point x="451.536" y="692.177" type="curve" smooth="yes"/>
      <point x="438" y="688"/>
      <point x="427.132" y="670.591"/>
      <point x="424.786" y="660.428" type="curve" smooth="yes"/>
      <point x="369.784" y="430.431" type="line"/>
      <point x="386.078" y="438.228"/>
      <point x="399.85" y="449.415"/>
      <point x="426.828" y="474.755" type="curve"/>
      <point x="602.867" y="639.797" type="line"/>
      <point x="621.884" y="659.869"/>
      <point x="629.509" y="667.015"/>
      <point x="629.509" y="674.726" type="curve" smooth="yes"/>
      <point x="629.509" y="679.628"/>
      <point x="628.513" y="684.963"/>
      <point x="621.814" y="690.096" type="curve" smooth="yes"/>
      <point x="618.175" y="692.885"/>
      <point x="609.969" y="696"/>
      <point x="601.966" y="696" type="curve" smooth="yes"/>
      <point x="590.167" y="696" type="line"/>
      <point x="590.167" y="696"/>
      <point x="589.101" y="698.688"/>
      <point x="589.101" y="702.435" type="curve" smooth="yes"/>
      <point x="589.101" y="705.341"/>
      <point x="589.582" y="710.885"/>
      <point x="591.292" y="714.305" type="curve" smooth="yes"/>
      <point x="595.292" y="722.305"/>
      <point x="602.5" y="730"/>
      <point x="602.5" y="730" type="curve"/>
      <point x="798.931" y="730" type="line"/>
      <point x="798.931" y="730"/>
      <point x="800.239" y="726.947"/>
      <point x="800.239" y="724.006" type="curve" smooth="yes"/>
      <point x="800.239" y="720.962"/>
      <point x="799.855" y="715.964"/>
      <point x="798.292" y="712.305" type="curve" smooth="yes"/>
      <point x="794.936" y="704.447"/>
      <point x="784.9" y="696"/>
      <point x="784.9" y="696" type="curve"/>
      <point x="781.966" y="696" type="line" smooth="yes"/>
      <point x="775.585" y="696"/>
      <point x="764.202" y="695.122"/>
      <point x="755.411" y="692.209" type="curve"/>
      <point x="743.533" y="688.882"/>
      <point x="729.314" y="668.829"/>
      <point x="714.096" y="652.929" type="curve"/>
      <point x="494" y="438" type="line"/>
      <point x="521.299" y="389.777" type="line"/>
      <point x="601.27" y="256.62"/>
      <point x="663.35" y="123.257"/>
      <point x="689.405" y="63.3613" type="curve" smooth="yes"/>
      <point x="696.849" y="46.251"/>
      <point x="708" y="34"/>
      <point x="727.966" y="34" type="curve" smooth="yes"/>
      <point x="736.931" y="34" type="line"/>
      <point x="736.931" y="34"/>
      <point x="738.239" y="30.9473"/>
      <point x="738.239" y="28.0059" type="curve" smooth="yes"/>
      <point x="738.239" y="24.9619"/>
      <point x="737.855" y="19.9639"/>
      <point x="736.292" y="16.3047" type="curve" smooth="yes"/>
      <point x="732.936" y="8.44727"/>
      <point x="723.431" y="0"/>
    </contour>
  </outline>
</glyph>
<glyph name="L" format="1">
  <advance width="655"/>
  <unicode hex="004C"/>
  <outline>
    <contour>
      <point x="-1" y="0" type="line"/>
      <point x="-1" y="0"/>
      <point x="-1.89941" y="2.6875"/>
      <point x="-1.89941" y="6.43457" type="curve" smooth="yes"/>
      <point x="-1.89941" y="9.34082"/>
      <point x="-1.41797" y="14.8848"/>
      <point x="0.291992" y="18.3047" type="curve" smooth="yes"/>
      <point x="4.29199" y="26.3047"/>
      <point x="11.5" y="34"/>
      <point x="11.5" y="34" type="curve"/>
      <point x="21.9766" y="34.9668"/>
      <point x="27.0439" y="34.3662"/>
      <point x="36.5576" y="36.2324" type="curve" smooth="yes"/>
      <point x="52.6494" y="39.5537"/>
      <point x="61.7012" y="60.0654"/>
      <point x="64.1562" y="70.4922" type="curve"/>
      <point x="93.1719" y="186.241"/>
      <point x="119.683" y="287.835"/>
      <point x="146.829" y="403.473" type="curve" smooth="yes"/>
      <point x="168.507" y="495.814"/>
      <point x="186.117" y="571.736"/>
      <point x="206.133" y="662.982" type="curve"/>
      <point x="206.587" y="664.912"/>
      <point x="207.785" y="671.603"/>
      <point x="207.785" y="673.3" type="curve" smooth="yes"/>
      <point x="207.785" y="680.688"/>
      <point x="206.202" y="687.775"/>
      <point x="196.245" y="692.25" type="curve" smooth="yes"/>
      <point x="190.623" y="694.776"/>
      <point x="184.851" y="696"/>
      <point x="176.966" y="696" type="curve" smooth="yes"/>
      <point x="164.9" y="696" type="line"/>
      <point x="164.9" y="696"/>
      <point x="164.101" y="698.688"/>
      <point x="164.101" y="702.435" type="curve" smooth="yes"/>
      <point x="164.101" y="705.341"/>
      <point x="164.582" y="710.885"/>
      <point x="166.292" y="714.305" type="curve" smooth="yes"/>
      <point x="170.292" y="722.305"/>
      <point x="177.5" y="730"/>
      <point x="177.5" y="730" type="curve"/>
      <point x="462.931" y="730" type="line"/>
      <point x="462.931" y="730"/>
      <point x="464.239" y="726.947"/>
      <point x="464.239" y="724.006" type="curve" smooth="yes"/>
      <point x="464.239" y="720.962"/>
      <point x="463.855" y="715.964"/>
      <point x="462.292" y="712.305" type="curve" smooth="yes"/>
      <point x="458.936" y="704.447"/>
      <point x="448.9" y="696"/>
      <point x="448.9" y="696" type="curve"/>
      <point x="445.966" y="696" type="line" smooth="yes"/>
      <point x="434" y="696"/>
      <point x="426.678" y="695.326"/>
      <point x="419.116" y="692.396" type="curve" smooth="yes"/>
      <point x="406.099" y="687.351"/>
      <point x="396.127" y="669.909"/>
      <point x="393.775" y="659.932" type="curve"/>
      <point x="368.749" y="567.762"/>
      <point x="352.869" y="490.75"/>
      <point x="331.783" y="398.757" type="curve" smooth="yes"/>
      <point x="305.681" y="284.879"/>
      <point x="281.845" y="184.673"/>
      <point x="256.235" y="70.9912" type="curve"/>
      <point x="255.793" y="69.2949"/>
      <point x="252.603" y="58.7764"/>
      <point x="252.603" y="57.21" type="curve" smooth="yes"/>
      <point x="252.603" y="49.5176"/>
      <point x="256.955" y="43.1143"/>
      <point x="268.646" y="41.8936" type="curve" smooth="yes"/>
      <point x="288.519" y="39.9346"/>
      <point x="297.861" y="39"/>
      <point x="318.538" y="39" type="curve" smooth="yes"/>
      <point x="381.367" y="39"/>
      <point x="427.498" y="40.0635"/>
      <point x="472.636" y="49.8008" type="curve"/>
      <point x="533.107" y="64.251"/>
      <point x="561.08" y="100.024"/>
      <point x="586.543" y="158.783" type="curve" smooth="yes"/>
      <point x="588.248" y="162.719" type="line"/>
      <point x="619.058" y="164.645" type="line"/>
      <point x="562.932" y="0" type="line"/>
    </contour>
  </outline>
</glyph>
<glyph name="M" format="1">
  <advance width="940"/>
  <unicode hex="004D"/>
  <outline>
    <contour>
      <point x="998.791" y="730" type="line"/>
      <point x="998.791" y="730"/>
      <point x="1000.24" y="726.947"/>
      <point x="1000.24" y="724.006" type="curve" smooth="yes"/>
      <point x="1000.24" y="720.962"/>
      <point x="999.855" y="715.964"/>
      <point x="998.292" y="712.305" type="curve" smooth="yes"/>
      <point x="994.936" y="704.447"/>
      <point x="984.9" y="696"/>
      <point x="984.9" y="696" type="curve"/>
      <point x="980.356" y="696" type="line" smooth="yes"/>
      <point x="972.38" y="696"/>
      <point x="964.268" y="694.005"/>
      <point x="955.782" y="692.18" type="curve" smooth="yes"/>
      <point x="941" y="689"/>
      <point x="932.576" y="674.102"/>
      <point x="929.17" y="660.921" type="curve" smooth="yes"/>
      <point x="913.502" y="600.292"/>
      <point x="909" y="564"/>
      <point x="892.18" y="492.769" type="curve" smooth="yes"/>
      <point x="853" y="321"/>
      <point x="829.17" y="218.876"/>
      <point x="793.238" y="73.2461" type="curve"/>
      <point x="793.238" y="73.2461"/>
      <point x="791.611" y="61.332"/>
      <point x="791.611" y="59.3115" type="curve" smooth="yes"/>
      <point x="791.611" y="52.3418"/>
      <point x="792.73" y="41.7734"/>
      <point x="803.054" y="37.7539" type="curve" smooth="yes"/>
      <point x="809.981" y="35.0566"/>
      <point x="819.337" y="34"/>
      <point x="827.356" y="34" type="curve" smooth="yes"/>
      <point x="832.931" y="34" type="line"/>
      <point x="832.931" y="34"/>
      <point x="834.239" y="30.9473"/>
      <point x="834.239" y="28.0059" type="curve" smooth="yes"/>
      <point x="834.239" y="24.9619"/>
      <point x="833.855" y="19.9639"/>
      <point x="832.292" y="16.3047" type="curve" smooth="yes"/>
      <point x="828.936" y="8.44727"/>
      <point x="818.821" y="0"/>
      <point x="818.821" y="0" type="curve"/>
      <point x="530.391" y="0" type="line"/>
      <point x="530.391" y="0"/>
      <point x="529.101" y="2.6875"/>
      <point x="529.101" y="6.43457" type="curve" smooth="yes"/>
      <point x="529.101" y="9.34082"/>
      <point x="529.582" y="16.8848"/>
      <point x="531.292" y="20.3047" type="curve" smooth="yes"/>
      <point x="535.292" y="28.3047"/>
      <point x="542.5" y="34"/>
      <point x="542.5" y="34" type="curve"/>
      <point x="545.356" y="34" type="line" smooth="yes"/>
      <point x="553.477" y="34"/>
      <point x="560.798" y="34.4766"/>
      <point x="568.785" y="36.8232" type="curve" smooth="yes"/>
      <point x="583" y="41"/>
      <point x="596.084" y="60.9521"/>
      <point x="598.55" y="71.6357" type="curve"/>
      <point x="614.553" y="135.648"/>
      <point x="627.756" y="185.668"/>
      <point x="643.541" y="249.599" type="curve" smooth="yes"/>
      <point x="663.548" y="330.628"/>
      <point x="673.026" y="364.914"/>
      <point x="692.665" y="446.934" type="curve"/>
      <point x="700.066" y="477.018"/>
      <point x="705.453" y="508.813"/>
      <point x="711.828" y="536.377" type="curve"/>
      <point x="430.173" y="149.016" type="line"/>
      <point x="427.021" y="144.464"/>
      <point x="413.374" y="127"/>
      <point x="400.541" y="127" type="curve" smooth="yes"/>
      <point x="389.71" y="127"/>
      <point x="374.608" y="141.338"/>
      <point x="373.038" y="149.571" type="curve" smooth="yes"/>
      <point x="373.038" y="149.571"/>
      <point x="294.088" y="449.831"/>
      <point x="270" y="555" type="curve"/>
      <point x="156.217" y="73.5645" type="line"/>
      <point x="155.733" y="70.5596"/>
      <point x="154.003" y="60.375"/>
      <point x="153.979" y="60.0947" type="curve"/>
      <point x="154.245" y="50.9268"/>
      <point x="154.716" y="43.5117"/>
      <point x="165.167" y="37.7627" type="curve" smooth="yes"/>
      <point x="171.267" y="34.4072"/>
      <point x="180.242" y="34"/>
      <point x="188.356" y="34" type="curve" smooth="yes"/>
      <point x="196.61" y="34" type="line"/>
      <point x="196.61" y="34"/>
      <point x="198.239" y="30.9473"/>
      <point x="198.239" y="28.0059" type="curve" smooth="yes"/>
      <point x="198.239" y="24.9619"/>
      <point x="197.855" y="19.9639"/>
      <point x="196.292" y="16.3047" type="curve" smooth="yes"/>
      <point x="192.936" y="8.44727"/>
      <point x="182.9" y="0"/>
      <point x="182.9" y="0" type="curve"/>
      <point x="-8.60938" y="0" type="line"/>
      <point x="-8.60938" y="0"/>
      <point x="-9.89941" y="2.6875"/>
      <point x="-9.89941" y="6.43457" type="curve" smooth="yes"/>
      <point x="-9.89941" y="9.34082"/>
      <point x="-9.41797" y="16.8848"/>
      <point x="-7.70801" y="20.3047" type="curve" smooth="yes"/>
      <point x="-3.70801" y="28.3047"/>
      <point x="3.5" y="34"/>
      <point x="3.5" y="34" type="curve"/>
      <point x="7.35645" y="34" type="line" smooth="yes"/>
      <point x="15.4766" y="34"/>
      <point x="23.3604" y="34.4922"/>
      <point x="32.7852" y="36.7852" type="curve" smooth="yes"/>
      <point x="46" y="40"/>
      <point x="57.1182" y="62.1289"/>
      <point x="59.6289" y="74.3066" type="curve"/>
      <point x="114.543" y="277.736"/>
      <point x="149.584" y="452.649"/>
      <point x="199.573" y="659.288" type="curve"/>
      <point x="200.404" y="662.435"/>
      <point x="202.182" y="672.479"/>
      <point x="202.182" y="673.597" type="curve" smooth="yes"/>
      <point x="202.182" y="692.056"/>
      <point x="188" y="696"/>
      <point x="168.356" y="696" type="curve" smooth="yes"/>
      <point x="159.9" y="696" type="line"/>
      <point x="159.9" y="696"/>
      <point x="159.101" y="698.688"/>
      <point x="159.101" y="702.435" type="curve" smooth="yes"/>
      <point x="159.101" y="705.341"/>
      <point x="159.582" y="710.885"/>
      <point x="161.292" y="714.305" type="curve" smooth="yes"/>
      <point x="165.292" y="722.305"/>
      <point x="172.5" y="730"/>
      <point x="172.5" y="730" type="curve"/>
      <point x="403.957" y="730" type="line"/>
      <point x="494" y="384" type="line"/>
      <point x="747.692" y="730" type="line"/>
    </contour>
  </outline>
</glyph>
<glyph name="N" format="1">
  <advance width="844"/>
  <unicode hex="004E"/>
  <outline>
    <contour>
      <point x="696.9" y="696" type="line"/>
      <point x="696.9" y="696"/>
      <point x="696.101" y="698.688"/>
      <point x="696.101" y="702.435" type="curve" smooth="yes"/>
      <point x="696.101" y="705.341"/>
      <point x="696.582" y="710.885"/>
      <point x="698.292" y="714.305" type="curve" smooth="yes"/>
      <point x="702.292" y="722.305"/>
      <point x="709.5" y="730"/>
      <point x="709.5" y="730" type="curve"/>
      <point x="897.4" y="730" type="line"/>
      <point x="897.4" y="730"/>
      <point x="899.239" y="726.947"/>
      <point x="899.239" y="724.006" type="curve" smooth="yes"/>
      <point x="899.239" y="720.962"/>
      <point x="898.855" y="715.964"/>
      <point x="897.292" y="712.305" type="curve" smooth="yes"/>
      <point x="893.936" y="704.447"/>
      <point x="883.9" y="696"/>
      <point x="883.9" y="696" type="curve"/>
      <point x="879.966" y="696" type="line" smooth="yes"/>
      <point x="872.034" y="696"/>
      <point x="863.432" y="695.267"/>
      <point x="856.568" y="693.222" type="curve" smooth="yes"/>
      <point x="841.709" y="688.795"/>
      <point x="831.992" y="672.877"/>
      <point x="828.724" y="661.663" type="curve"/>
      <point x="804.81" y="569.852"/>
      <point x="782.384" y="490.869"/>
      <point x="758.785" y="398.502" type="curve" smooth="yes"/>
      <point x="725.479" y="268.137"/>
      <point x="690.531" y="136.996"/>
      <point x="657.563" y="5.68359" type="curve" smooth="yes"/>
      <point x="655.179" y="-3.81445"/>
      <point x="646.527" y="-9"/>
      <point x="639.118" y="-9" type="curve" smooth="yes"/>
      <point x="626.82" y="-9"/>
      <point x="622.535" y="3.46484"/>
      <point x="622.535" y="3.46484" type="curve"/>
      <point x="497.468" y="207.394"/>
      <point x="408.029" y="343.072"/>
      <point x="284.816" y="545.537" type="curve"/>
      <point x="272.967" y="494.833"/>
      <point x="249.517" y="400.056"/>
      <point x="237.782" y="350.41" type="curve"/>
      <point x="196.793" y="170.456" type="line"/>
      <point x="188.817" y="134.564"/>
      <point x="178.688" y="102.888"/>
      <point x="170.88" y="67.8457" type="curve"/>
      <point x="170.787" y="67.002"/>
      <point x="169.548" y="60.3574"/>
      <point x="169.548" y="57.6621" type="curve" smooth="yes"/>
      <point x="169.548" y="50.6465"/>
      <point x="170.521" y="39.3262"/>
      <point x="179.776" y="36.7627" type="curve" smooth="yes"/>
      <point x="185.596" y="35.1504"/>
      <point x="193.906" y="34"/>
      <point x="201.966" y="34" type="curve" smooth="yes"/>
      <point x="210.931" y="34" type="line"/>
      <point x="210.931" y="34"/>
      <point x="212.239" y="30.9473"/>
      <point x="212.239" y="28.0059" type="curve" smooth="yes"/>
      <point x="212.239" y="24.9619"/>
      <point x="211.855" y="19.9639"/>
      <point x="210.292" y="16.3047" type="curve" smooth="yes"/>
      <point x="206.936" y="8.44727"/>
      <point x="196.9" y="0"/>
      <point x="196.9" y="0" type="curve"/>
      <point x="-5" y="0" type="line"/>
      <point x="-5" y="0"/>
      <point x="-5.89941" y="2.6875"/>
      <point x="-5.89941" y="6.43457" type="curve" smooth="yes"/>
      <point x="-5.89941" y="9.34082"/>
      <point x="-5.41797" y="14.8848"/>
      <point x="-3.70801" y="18.3047" type="curve" smooth="yes"/>
      <point x="0.291992" y="26.3047"/>
      <point x="7.5" y="34"/>
      <point x="7.5" y="34" type="curve"/>
      <point x="10.9658" y="34" type="line" smooth="yes"/>
      <point x="19.0859" y="34"/>
      <point x="25.6846" y="34.7031"/>
      <point x="33.3945" y="36.7852" type="curve" smooth="yes"/>
      <point x="49" y="41"/>
      <point x="60.6367" y="62.3037"/>
      <point x="64.1514" y="73.9746" type="curve"/>
      <point x="64.1514" y="73.9746"/>
      <point x="113.826" y="267.271"/>
      <point x="144.141" y="399.832" type="curve" smooth="yes"/>
      <point x="168.716" y="507.297"/>
      <point x="202.09" y="659.87"/>
      <point x="202.09" y="659.87" type="curve"/>
      <point x="202.09" y="659.87"/>
      <point x="204.878" y="671.633"/>
      <point x="204.878" y="673.351" type="curve" smooth="yes"/>
      <point x="204.878" y="682.393"/>
      <point x="202.625" y="685.378"/>
      <point x="194.042" y="691.305" type="curve" smooth="yes"/>
      <point x="188.46" y="695.159"/>
      <point x="179.984" y="696"/>
      <point x="171.966" y="696" type="curve" smooth="yes"/>
      <point x="163.9" y="696" type="line"/>
      <point x="163.9" y="696"/>
      <point x="163.101" y="700.688"/>
      <point x="163.101" y="704.435" type="curve" smooth="yes"/>
      <point x="163.101" y="707.341"/>
      <point x="163.582" y="710.885"/>
      <point x="165.292" y="714.305" type="curve" smooth="yes"/>
      <point x="169.292" y="722.305"/>
      <point x="176.5" y="730"/>
      <point x="176.5" y="730" type="curve"/>
      <point x="366.933" y="730" type="line"/>
      <point x="637" y="299" type="line"/>
      <point x="737.091" y="662.34" type="line"/>
      <point x="737.091" y="662.34"/>
      <point x="738.785" y="669.808"/>
      <point x="738.785" y="671.309" type="curve" smooth="yes"/>
      <point x="738.785" y="678.943"/>
      <point x="737.639" y="687.533"/>
      <point x="727.042" y="692.27" type="curve" smooth="yes"/>
      <point x="721.664" y="694.673"/>
      <point x="713.984" y="696"/>
      <point x="705.966" y="696" type="curve" smooth="yes"/>
    </contour>
  </outline>
</glyph>
<glyph name="O" format="1">
  <advance width="825"/>
  <unicode hex="004F"/>
  <outline>
    <contour>
      <point x="38.1074" y="241.868" type="curve" smooth="yes"/>
      <point x="38.1074" y="544.682"/>
      <point x="225.053" y="734"/>
      <point x="521.898" y="734" type="curve" smooth="yes"/>
      <point x="692.144" y="734"/>
      <point x="821.174" y="643.687"/>
      <point x="821.174" y="473.903" type="curve" smooth="yes"/>
      <point x="821.174" y="180.783"/>
      <point x="592.188" y="-11"/>
      <point x="342.474" y="-11" type="curve" smooth="yes"/>
      <point x="217.599" y="-11"/>
      <point x="38.1074" y="37.0938"/>
    </contour>
    <contour>
      <point x="501.275" y="681" type="curve" smooth="yes"/>
      <point x="296.873" y="681"/>
      <point x="242.054" y="363.399"/>
      <point x="242.054" y="244.335" type="curve" smooth="yes"/>
      <point x="242.054" y="82.167"/>
      <point x="323.831" y="51"/>
      <point x="377.941" y="51" type="curve" smooth="yes"/>
      <point x="478.058" y="51"/>
      <point x="638.391" y="190.418"/>
      <point x="638.391" y="494.999" type="curve" smooth="yes"/>
      <point x="638.391" y="604.614"/>
      <point x="600.007" y="681"/>
    </contour>
  </outline>
</glyph>
<glyph name="P" format="1">
  <advance width="712"/>
  <unicode hex="0050"/>
  <outline>
    <contour>
      <point x="180.9" y="696" type="line"/>
      <point x="180.9" y="696"/>
      <point x="180.101" y="698.688"/>
      <point x="180.101" y="702.435" type="curve" smooth="yes"/>
      <point x="180.101" y="705.341"/>
      <point x="180.582" y="710.885"/>
      <point x="182.292" y="714.305" type="curve" smooth="yes"/>
      <point x="186.292" y="722.305"/>
      <point x="193.5" y="730"/>
      <point x="193.5" y="730" type="curve"/>
      <point x="219.566" y="730" type="line" smooth="yes"/>
      <point x="281.746" y="730"/>
      <point x="423.235" y="732"/>
      <point x="484.691" y="732" type="curve" smooth="yes"/>
      <point x="608.512" y="732"/>
      <point x="729.562" y="677.309"/>
      <point x="729.562" y="557.904" type="curve" smooth="yes"/>
      <point x="729.562" y="329.967"/>
      <point x="544.547" y="265"/>
      <point x="407.331" y="265" type="curve" smooth="yes"/>
      <point x="395.465" y="265"/>
      <point x="383.802" y="265.03"/>
      <point x="373.361" y="267.035" type="curve" smooth="yes"/>
      <point x="363.362" y="268.955"/>
      <point x="353.825" y="286.435"/>
      <point x="353.825" y="298.676" type="curve" smooth="yes"/>
      <point x="353.825" y="313.155"/>
      <point x="364.769" y="332"/>
      <point x="379.279" y="332" type="curve" smooth="yes"/>
      <point x="483.993" y="332"/>
      <point x="557.987" y="391.885"/>
      <point x="557.987" y="565.353" type="curve" smooth="yes"/>
      <point x="557.987" y="639.186"/>
      <point x="516.01" y="686"/>
      <point x="451.173" y="686" type="curve" smooth="yes"/>
      <point x="414.377" y="686" type="line"/>
      <point x="389.515" y="586.433"/>
      <point x="369.64" y="493.705"/>
      <point x="347.661" y="394.678" type="curve" smooth="yes"/>
      <point x="322.41" y="280.905"/>
      <point x="298.635" y="180.67"/>
      <point x="270.641" y="66.0146" type="curve"/>
      <point x="270.214" y="64.2676"/>
      <point x="269.04" y="58.7969"/>
      <point x="269.04" y="57.3057" type="curve" smooth="yes"/>
      <point x="269.04" y="51.8525"/>
      <point x="269.856" y="41.1602"/>
      <point x="280.124" y="36.7256" type="curve" smooth="yes"/>
      <point x="286.27" y="34.0713"/>
      <point x="294.737" y="34"/>
      <point x="303.138" y="34" type="curve" smooth="yes"/>
      <point x="309.931" y="34" type="line"/>
      <point x="309.931" y="34"/>
      <point x="311.239" y="30.9473"/>
      <point x="311.239" y="28.0059" type="curve" smooth="yes"/>
      <point x="311.239" y="24.9619"/>
      <point x="310.855" y="19.9639"/>
      <point x="309.292" y="16.3047" type="curve" smooth="yes"/>
      <point x="305.936" y="8.44727"/>
      <point x="295.9" y="0"/>
      <point x="295.9" y="0" type="curve"/>
      <point x="11.9004" y="0" type="line"/>
      <point x="11.9004" y="0"/>
      <point x="11.1006" y="2.6875"/>
      <point x="11.1006" y="6.43457" type="curve" smooth="yes"/>
      <point x="11.1006" y="9.34082"/>
      <point x="11.582" y="14.8848"/>
      <point x="13.292" y="18.3047" type="curve" smooth="yes"/>
      <point x="17.292" y="26.3047"/>
      <point x="24.5" y="34"/>
      <point x="24.5" y="34" type="curve"/>
      <point x="27.4346" y="34" type="line" smooth="yes"/>
      <point x="35.5312" y="34"/>
      <point x="42.6484" y="34.0186"/>
      <point x="49.8643" y="35.7852" type="curve"/>
      <point x="66.0879" y="39.1309"/>
      <point x="79.0957" y="60.3203"/>
      <point x="81.625" y="71.0566" type="curve"/>
      <point x="110.632" y="186.67"/>
      <point x="130.753" y="267.289"/>
      <point x="161.567" y="401.788" type="curve" smooth="yes"/>
      <point x="185.087" y="504.445"/>
      <point x="218.846" y="650.221"/>
      <point x="218.846" y="650.221" type="curve"/>
      <point x="219.65" y="653.824"/>
      <point x="223.196" y="669.217"/>
      <point x="223.196" y="673.05" type="curve" smooth="yes"/>
      <point x="223.196" y="683.232"/>
      <point x="220.212" y="688.322"/>
      <point x="212.222" y="693.346" type="curve" smooth="yes"/>
      <point x="208" y="696"/>
      <point x="197.784" y="696"/>
      <point x="189.515" y="696" type="curve" smooth="yes"/>
    </contour>
  </outline>
</glyph>
<glyph name="Q" format="1">
  <advance width="830"/>
  <unicode hex="0051"/>
  <outline>
    <contour>
      <point x="493.476" y="681" type="curve" smooth="yes"/>
      <point x="286.571" y="681"/>
      <point x="243.16" y="395.008"/>
      <point x="243.16" y="240.567" type="curve" smooth="yes"/>
      <point x="243.16" y="92.1768"/>
      <point x="316.154" y="50"/>
      <point x="373.188" y="50" type="curve" smooth="yes"/>
      <point x="464.257" y="50"/>
      <point x="640.553" y="178.624"/>
      <point x="640.553" y="487.7" type="curve" smooth="yes"/>
      <point x="640.553" y="591.045"/>
      <point x="604.652" y="681"/>
    </contour>
    <contour>
      <point x="40.1045" y="236.561" type="curve" smooth="yes"/>
      <point x="40.1045" y="583.562"/>
      <point x="277.502" y="733"/>
      <point x="510.053" y="733" type="curve" smooth="yes"/>
      <point x="692.062" y="733"/>
      <point x="821.569" y="641.945"/>
      <point x="821.569" y="470.435" type="curve" smooth="yes"/>
      <point x="821.569" y="172.005"/>
      <point x="574" y="3"/>
      <point x="384.575" y="-14.4551" type="curve"/>
      <point x="381.068" y="-22.8682"/>
      <point x="379.717" y="-29.6416"/>
      <point x="379.717" y="-36.5088" type="curve" smooth="yes"/>
      <point x="379.717" y="-69.5732"/>
      <point x="405.999" y="-98"/>
      <point x="494.597" y="-98" type="curve" smooth="yes"/>
      <point x="501.146" y="-98"/>
      <point x="509.472" y="-97"/>
      <point x="518.296" y="-97" type="curve" smooth="yes"/>
      <point x="525.771" y="-97" type="line"/>
      <point x="524.244" y="-142.5" type="line"/>
      <point x="517.819" y="-142.979" type="line" smooth="yes"/>
      <point x="491.074" y="-144.976"/>
      <point x="467.217" y="-147"/>
      <point x="444.107" y="-147" type="curve" smooth="yes"/>
      <point x="328.479" y="-147"/>
      <point x="242.638" y="-114.556"/>
      <point x="242.638" y="-36.1182" type="curve" smooth="yes"/>
      <point x="242.638" y="-27.7207"/>
      <point x="243.894" y="-17.8799"/>
      <point x="245.773" y="-9.29199" type="curve"/>
      <point x="161.657" y="9.85449"/>
      <point x="40.1045" y="76.3291"/>
    </contour>
  </outline>
</glyph>
<glyph name="R" format="1">
  <advance width="759"/>
  <unicode hex="0052"/>
  <outline>
    <contour>
      <point x="162.9" y="696" type="line"/>
      <point x="162.9" y="696"/>
      <point x="162.101" y="698.688"/>
      <point x="162.101" y="702.435" type="curve" smooth="yes"/>
      <point x="162.101" y="705.341"/>
      <point x="162.582" y="710.885"/>
      <point x="164.292" y="714.305" type="curve" smooth="yes"/>
      <point x="168.292" y="722.305"/>
      <point x="175.5" y="730"/>
      <point x="175.5" y="730" type="curve"/>
      <point x="203.158" y="730" type="line" smooth="yes"/>
      <point x="265.182" y="730"/>
      <point x="406.669" y="734"/>
      <point x="468.286" y="734" type="curve" smooth="yes"/>
      <point x="590.604" y="734"/>
      <point x="705.604" y="691.567"/>
      <point x="705.604" y="588.395" type="curve" smooth="yes"/>
      <point x="705.604" y="459.519"/>
      <point x="623.148" y="392.076"/>
      <point x="509.186" y="366.2" type="curve"/>
      <point x="586.819" y="350.636"/>
      <point x="658.225" y="301.362"/>
      <point x="658.225" y="234.171" type="curve" smooth="yes"/>
      <point x="658.225" y="231.372"/>
      <point x="658.134" y="228.548"/>
      <point x="657.952" y="225.698" type="curve" smooth="yes"/>
      <point x="654.35" y="169.303"/>
      <point x="647.628" y="152.368"/>
      <point x="644.951" y="111.252" type="curve" smooth="yes"/>
      <point x="644.637" y="106.414"/>
      <point x="644.485" y="101.949"/>
      <point x="644.485" y="97.832" type="curve" smooth="yes"/>
      <point x="644.485" y="62.8545"/>
      <point x="654.41" y="35.9287"/>
      <point x="677.688" y="35.9287" type="curve" smooth="yes"/>
      <point x="689.099" y="35.9287"/>
      <point x="705.489" y="39.5889"/>
      <point x="710.835" y="42.2607" type="curve"/>
      <point x="714.265" y="9.38867" type="line" smooth="yes"/>
      <point x="690.817" y="1.23242"/>
      <point x="625.786" y="-4.91602"/>
      <point x="586.973" y="-5" type="curve"/>
      <point x="523.219" y="-5"/>
      <point x="455.584" y="35.5996"/>
      <point x="455.584" y="78.417" type="curve" smooth="yes"/>
      <point x="455.584" y="80.0449"/>
      <point x="455.616" y="82.5645"/>
      <point x="455.694" y="84.3047" type="curve" smooth="yes"/>
      <point x="457.785" y="130.47"/>
      <point x="462.688" y="198.965"/>
      <point x="466.188" y="233.677" type="curve" smooth="yes"/>
      <point x="466.543" y="237.183"/>
      <point x="467.715" y="248.549"/>
      <point x="467.715" y="251.783" type="curve" smooth="yes"/>
      <point x="467.715" y="317.847"/>
      <point x="410.625" y="345.593"/>
      <point x="321.491" y="352.555" type="curve"/>
      <point x="252.188" y="66.4609" type="line" smooth="yes"/>
      <point x="251.832" y="64.9385"/>
      <point x="249.661" y="56.5127"/>
      <point x="249.661" y="55.1982" type="curve" smooth="yes"/>
      <point x="249.661" y="48.1016"/>
      <point x="251.136" y="40.5586"/>
      <point x="262.754" y="36.7627" type="curve" smooth="yes"/>
      <point x="268.937" y="34.7432"/>
      <point x="276.3" y="34"/>
      <point x="284.931" y="34" type="curve"/>
      <point x="284.931" y="34"/>
      <point x="286.239" y="30.9473"/>
      <point x="286.239" y="28.0059" type="curve" smooth="yes"/>
      <point x="286.239" y="24.9619"/>
      <point x="285.855" y="19.9639"/>
      <point x="284.292" y="16.3047" type="curve" smooth="yes"/>
      <point x="280.936" y="8.44727"/>
      <point x="270.9" y="0"/>
      <point x="270.9" y="0" type="curve"/>
      <point x="-7.09961" y="0" type="line"/>
      <point x="-7.09961" y="0"/>
      <point x="-7.89941" y="2.6875"/>
      <point x="-7.89941" y="6.43457" type="curve" smooth="yes"/>
      <point x="-7.89941" y="9.34082"/>
      <point x="-7.41797" y="14.8848"/>
      <point x="-5.70801" y="18.3047" type="curve" smooth="yes"/>
      <point x="-1.70801" y="26.3047"/>
      <point x="5.5" y="34"/>
      <point x="5.5" y="34" type="curve"/>
      <point x="10.9658" y="34" type="line" smooth="yes"/>
      <point x="19.0859" y="34"/>
      <point x="30.6357" y="35.8037"/>
      <point x="36.3945" y="37.7852" type="curve" smooth="yes"/>
      <point x="49.5557" y="42.3125"/>
      <point x="60.6973" y="60.6221"/>
      <point x="63.1543" y="71.0508" type="curve"/>
      <point x="93.1807" y="187.721"/>
      <point x="118.394" y="288.892"/>
      <point x="145.196" y="405.701" type="curve" smooth="yes"/>
      <point x="164.98" y="491.923"/>
      <point x="181.739" y="562.057"/>
      <point x="200.427" y="648.191" type="curve"/>
      <point x="201.246" y="651.864"/>
      <point x="205.648" y="669.501"/>
      <point x="205.648" y="674.032" type="curve" smooth="yes"/>
      <point x="205.648" y="685.727"/>
      <point x="199.974" y="689.562"/>
      <point x="193.306" y="692.213" type="curve" smooth="yes"/>
      <point x="187.032" y="694.708"/>
      <point x="180.166" y="696"/>
      <point x="172.067" y="696" type="curve" smooth="yes"/>
    </contour>
    <contour>
      <point x="337.413" y="426.788" type="curve" smooth="yes"/>
      <point x="335.234" y="417.103"/>
      <point x="333.11" y="407.942"/>
      <point x="331.084" y="399.081" type="curve"/>
      <point x="340.124" y="399.05"/>
      <point x="347.818" y="399"/>
      <point x="356.301" y="399" type="curve" smooth="yes"/>
      <point x="450.565" y="399"/>
      <point x="525.969" y="454.325"/>
      <point x="525.969" y="591.837" type="curve" smooth="yes"/>
      <point x="525.969" y="666.392"/>
      <point x="478.224" y="696"/>
      <point x="418.767" y="696" type="curve" smooth="yes"/>
      <point x="399.018" y="696" type="line"/>
      <point x="373.138" y="596.743"/>
      <point x="359.579" y="525.32"/>
    </contour>
  </outline>
</glyph>
<glyph name="S" format="1">
  <advance width="604"/>
  <unicode hex="0053"/>
  <outline>
    <contour>
      <point x="112.861" y="180.627" type="curve" smooth="yes"/>
      <point x="112.861" y="138.073"/>
      <point x="158.296" y="44"/>
      <point x="235.639" y="44" type="curve" smooth="yes"/>
      <point x="324.52" y="44"/>
      <point x="359.903" y="121.686"/>
      <point x="359.903" y="194.549" type="curve" smooth="yes"/>
      <point x="359.903" y="246.198"/>
      <point x="304.898" y="311.314"/>
      <point x="244.637" y="359.164" type="curve" smooth="yes"/>
      <point x="181.815" y="409.046"/>
      <point x="103.27" y="443.823"/>
      <point x="103.27" y="535.593" type="curve" smooth="yes"/>
      <point x="103.27" y="665.252"/>
      <point x="283.556" y="742"/>
      <point x="448.188" y="742" type="curve" smooth="yes"/>
      <point x="536.705" y="742"/>
      <point x="615.034" y="715.725"/>
      <point x="615.034" y="688.427" type="curve" smooth="yes"/>
      <point x="615.034" y="687.436"/>
      <point x="615.171" y="686.549"/>
      <point x="614.719" y="684.509" type="curve"/>
      <point x="611.732" y="670.576"/>
      <point x="581.025" y="589"/>
      <point x="560.879" y="589" type="curve" smooth="yes"/>
      <point x="528.228" y="589"/>
      <point x="509.413" y="691"/>
      <point x="435.213" y="691" type="curve" smooth="yes"/>
      <point x="367.538" y="691"/>
      <point x="307.839" y="624.69"/>
      <point x="307.839" y="558.649" type="curve" smooth="yes"/>
      <point x="307.839" y="507.937"/>
      <point x="360.015" y="479.572"/>
      <point x="414.77" y="435.629" type="curve" smooth="yes"/>
      <point x="488.069" y="376.802"/>
      <point x="558.221" y="320.464"/>
      <point x="558.221" y="243.134" type="curve" smooth="yes"/>
      <point x="558.221" y="140.841"/>
      <point x="497.84" y="75.7861"/>
      <point x="441.645" y="37.4102" type="curve" smooth="yes"/>
      <point x="396.699" y="6.53125"/>
      <point x="331.526" y="-10"/>
      <point x="244.106" y="-10" type="curve" smooth="yes"/>
      <point x="84.0791" y="-10"/>
      <point x="11.0117" y="61.6621"/>
      <point x="11.0117" y="109.759" type="curve" smooth="yes"/>
      <point x="11.0117" y="113.158"/>
      <point x="11.334" y="116.357"/>
      <point x="12.0596" y="119.579" type="curve"/>
      <point x="17.624" y="142.949"/>
      <point x="77.1436" y="214"/>
      <point x="99.8789" y="214" type="curve" smooth="yes"/>
      <point x="100.142" y="214"/>
      <point x="114.075" y="210.845"/>
      <point x="114.075" y="201.402" type="curve" smooth="yes"/>
      <point x="114.075" y="199.831"/>
      <point x="114.016" y="200.182"/>
      <point x="113.652" y="197.564" type="curve"/>
      <point x="113.281" y="194.149"/>
      <point x="112.861" y="186.104"/>
    </contour>
  </outline>
</glyph>
<glyph name="T" format="1">
  <advance width="733"/>
  <unicode hex="0054"/>
  <outline>
    <contour>
      <point x="411.931" y="30" type="line"/>
      <point x="411.931" y="30"/>
      <point x="413.239" y="26.9473"/>
      <point x="413.239" y="24.0059" type="curve" smooth="yes"/>
      <point x="413.239" y="20.9619"/>
      <point x="412.855" y="17.9639"/>
      <point x="411.292" y="14.3047" type="curve" smooth="yes"/>
      <point x="407.936" y="6.44727"/>
      <point x="397.9" y="0"/>
      <point x="397.9" y="0" type="curve"/>
      <point x="112.9" y="0" type="line"/>
      <point x="112.9" y="0"/>
      <point x="112.101" y="2.6875"/>
      <point x="112.101" y="6.43457" type="curve" smooth="yes"/>
      <point x="112.101" y="9.34082"/>
      <point x="112.582" y="12.8848"/>
      <point x="114.292" y="16.3047" type="curve" smooth="yes"/>
      <point x="118.292" y="24.3047"/>
      <point x="125.5" y="30"/>
      <point x="125.5" y="30" type="curve"/>
      <point x="130.052" y="30" type="line" smooth="yes"/>
      <point x="138" y="30"/>
      <point x="148.682" y="31.4668"/>
      <point x="156.9" y="35.6045" type="curve" smooth="yes"/>
      <point x="169.673" y="42.0342"/>
      <point x="176.889" y="46.084"/>
      <point x="179.243" y="56.0762" type="curve"/>
      <point x="202.25" y="147.188"/>
      <point x="224.246" y="239.232"/>
      <point x="246.227" y="330.233" type="curve"/>
      <point x="321.398" y="656.881" type="line"/>
      <point x="322.182" y="660.58"/>
      <point x="325.021" y="672"/>
      <point x="325.021" y="675.332" type="curve" smooth="yes"/>
      <point x="325.021" y="683.067"/>
      <point x="319.772" y="686.365"/>
      <point x="315.709" y="687.132" type="curve"/>
      <point x="310.848" y="687.896"/>
      <point x="301.359" y="688"/>
      <point x="287.966" y="688" type="curve" smooth="yes"/>
      <point x="260.212" y="688"/>
      <point x="224.614" y="684.993"/>
      <point x="195.301" y="680.112" type="curve" smooth="yes"/>
      <point x="154.764" y="672.391"/>
      <point x="121" y="614"/>
      <point x="113.755" y="586" type="curve"/>
      <point x="82" y="586" type="line"/>
      <point x="130.619" y="728.787" type="line" smooth="yes"/>
      <point x="132.998" y="733.571"/>
      <point x="137.549" y="736"/>
      <point x="142.052" y="736" type="curve" smooth="yes"/>
      <point x="149.188" y="736"/>
      <point x="161.857" y="734"/>
      <point x="168.154" y="734" type="curve"/>
      <point x="202.385" y="732.993"/>
      <point x="318.601" y="730"/>
      <point x="435.729" y="730" type="curve"/>
      <point x="539.463" y="731"/>
      <point x="619.228" y="731.993"/>
      <point x="703.927" y="735" type="curve"/>
      <point x="706.974" y="735"/>
      <point x="729.979" y="737"/>
      <point x="737.052" y="737" type="curve" smooth="yes"/>
      <point x="739.972" y="737"/>
      <point x="753.18" y="735.201"/>
      <point x="753.18" y="727.972" type="curve" smooth="yes"/>
      <point x="753.18" y="724.999"/>
      <point x="752.225" y="721.821"/>
      <point x="751.829" y="720.25" type="curve"/>
      <point x="717" y="586" type="line"/>
      <point x="687.753" y="585.505" type="line"/>
      <point x="689.285" y="593.915"/>
      <point x="695.271" y="615.366"/>
      <point x="695.271" y="638.008" type="curve" smooth="yes"/>
      <point x="695.271" y="666.52"/>
      <point x="690.464" y="678.945"/>
      <point x="674.339" y="682.212" type="curve" smooth="yes"/>
      <point x="651.165" y="686.906"/>
      <point x="647.832" y="688"/>
      <point x="595.865" y="688" type="curve" smooth="yes"/>
      <point x="579.562" y="688"/>
      <point x="556.904" y="687"/>
      <point x="538.984" y="687" type="curve" smooth="yes"/>
      <point x="520.446" y="687"/>
      <point x="513.62" y="664.23"/>
      <point x="510.852" y="652.906" type="curve"/>
      <point x="481.768" y="538.204"/>
      <point x="462.923" y="461.961"/>
      <point x="433.312" y="327.143" type="curve" smooth="yes"/>
      <point x="410" y="221"/>
      <point x="399" y="176"/>
      <point x="372.884" y="68.9922" type="curve" smooth="yes"/>
      <point x="372.367" y="66.875"/>
      <point x="371.232" y="59.377"/>
      <point x="371.232" y="57.6807" type="curve" smooth="yes"/>
      <point x="371.232" y="50.1621"/>
      <point x="371.874" y="39.8008"/>
      <point x="379.975" y="34.6953" type="curve" smooth="yes"/>
      <point x="384.951" y="31.5586"/>
      <point x="395.032" y="30"/>
      <point x="403.052" y="30" type="curve" smooth="yes"/>
    </contour>
  </outline>
</glyph>
<glyph name="U" format="1">
  <advance width="804"/>
  <unicode hex="0055"/>
  <outline>
    <contour>
      <point x="874.932" y="730" type="line"/>
      <point x="875.931" y="730"/>
      <point x="877.239" y="726.947"/>
      <point x="877.239" y="724.006" type="curve" smooth="yes"/>
      <point x="877.239" y="720.962"/>
      <point x="876.855" y="715.964"/>
      <point x="875.292" y="712.305" type="curve" smooth="yes"/>
      <point x="871.936" y="704.447"/>
      <point x="861.9" y="696"/>
      <point x="861.9" y="696" type="curve"/>
      <point x="856.966" y="696" type="line" smooth="yes"/>
      <point x="849" y="696"/>
      <point x="843.811" y="695.996"/>
      <point x="836.574" y="694.222" type="curve" smooth="yes"/>
      <point x="819.769" y="690.558"/>
      <point x="808.982" y="674.59"/>
      <point x="805.729" y="661.663" type="curve" smooth="yes"/>
      <point x="799.377" y="636.427"/>
      <point x="777.133" y="541.394"/>
      <point x="756.785" y="454.206" type="curve" smooth="yes"/>
      <point x="737.784" y="372.787"/>
      <point x="725.814" y="313.471"/>
      <point x="717" y="279" type="curve" smooth="yes"/>
      <point x="655.879" y="39.9678"/>
      <point x="550.748" y="-9.65527"/>
      <point x="370.362" y="-9.65527" type="curve" smooth="yes"/>
      <point x="192.6" y="-9.65527"/>
      <point x="52.5527" y="37.7686"/>
      <point x="52.5527" y="206.39" type="curve" smooth="yes"/>
      <point x="52.5527" y="232.952"/>
      <point x="60.0186" y="262.327"/>
      <point x="67.54" y="294.982" type="curve" smooth="yes"/>
      <point x="151.162" y="661.132" type="line" smooth="yes"/>
      <point x="151.748" y="663.705"/>
      <point x="153.082" y="672.897"/>
      <point x="153.082" y="675.021" type="curve" smooth="yes"/>
      <point x="153.082" y="683.965"/>
      <point x="148.312" y="689.619"/>
      <point x="141.364" y="692.221" type="curve" smooth="yes"/>
      <point x="136.28" y="694.125"/>
      <point x="128" y="696"/>
      <point x="120.966" y="696" type="curve" smooth="yes"/>
      <point x="110.9" y="696" type="line"/>
      <point x="110.9" y="696"/>
      <point x="110.101" y="698.688"/>
      <point x="110.101" y="702.435" type="curve" smooth="yes"/>
      <point x="110.101" y="705.341"/>
      <point x="110.582" y="710.885"/>
      <point x="112.292" y="714.305" type="curve" smooth="yes"/>
      <point x="116.292" y="722.305"/>
      <point x="123.5" y="730"/>
      <point x="123.5" y="730" type="curve"/>
      <point x="414.932" y="730" type="line"/>
      <point x="414.932" y="730"/>
      <point x="417.239" y="726.947"/>
      <point x="417.239" y="724.006" type="curve" smooth="yes"/>
      <point x="417.239" y="720.962"/>
      <point x="416.855" y="715.964"/>
      <point x="415.292" y="712.305" type="curve" smooth="yes"/>
      <point x="411.936" y="704.447"/>
      <point x="401.9" y="696"/>
      <point x="401.9" y="696" type="curve"/>
      <point x="397.966" y="696" type="line" smooth="yes"/>
      <point x="390" y="696"/>
      <point x="382.59" y="695.069"/>
      <point x="373.569" y="692.224" type="curve" smooth="yes"/>
      <point x="357.167" y="687.049"/>
      <point x="348.54" y="672.086"/>
      <point x="344.966" y="658.73" type="curve" smooth="yes"/>
      <point x="342.374" y="650.496"/>
      <point x="342.103" y="648.131"/>
      <point x="339.782" y="638.41" type="curve" smooth="yes"/>
      <point x="321.774" y="562.968"/>
      <point x="266.217" y="319.125"/>
      <point x="266.158" y="318.899" type="curve" smooth="yes"/>
      <point x="254.132" y="267.599"/>
      <point x="248.634" y="228.088"/>
      <point x="248.634" y="192.963" type="curve" smooth="yes"/>
      <point x="248.634" y="99.0967"/>
      <point x="298.29" y="49.3447"/>
      <point x="378.637" y="49.3447" type="curve" smooth="yes"/>
      <point x="496.461" y="49.3447"/>
      <point x="580.278" y="119.834"/>
      <point x="627.494" y="308.358" type="curve" smooth="yes"/>
      <point x="635.097" y="338.713"/>
      <point x="702.913" y="631.788"/>
      <point x="710.167" y="662.093" type="curve" smooth="yes"/>
      <point x="710.772" y="664.622"/>
      <point x="712.062" y="673.267"/>
      <point x="712.062" y="674.861" type="curve" smooth="yes"/>
      <point x="712.062" y="681.078"/>
      <point x="707.563" y="687.102"/>
      <point x="700.043" y="691.305" type="curve" smooth="yes"/>
      <point x="693.079" y="695.197"/>
      <point x="694" y="696"/>
      <point x="685.966" y="696" type="curve" smooth="yes"/>
      <point x="668.9" y="696" type="line"/>
      <point x="668.9" y="696"/>
      <point x="668.101" y="698.688"/>
      <point x="668.101" y="702.435" type="curve" smooth="yes"/>
      <point x="668.101" y="705.341"/>
      <point x="668.582" y="710.885"/>
      <point x="670.292" y="714.305" type="curve" smooth="yes"/>
      <point x="674.292" y="722.305"/>
      <point x="681.5" y="730"/>
      <point x="681.5" y="730" type="curve"/>
    </contour>
  </outline>
</glyph>
<glyph name="V" format="1">
  <advance width="691"/>
  <unicode hex="0056"/>
  <outline>
    <contour>
      <point x="806.931" y="730" type="line"/>
      <point x="806.931" y="730"/>
      <point x="808.239" y="726.947"/>
      <point x="808.239" y="724.006" type="curve" smooth="yes"/>
      <point x="808.239" y="720.962"/>
      <point x="807.855" y="715.964"/>
      <point x="806.292" y="712.305" type="curve" smooth="yes"/>
      <point x="802.936" y="704.447"/>
      <point x="792.9" y="696"/>
      <point x="792.9" y="696" type="curve"/>
      <point x="787.966" y="696" type="line" smooth="yes"/>
      <point x="753.728" y="696"/>
      <point x="749.828" y="677.767"/>
      <point x="732.861" y="652.928" type="curve"/>
      <point x="592.376" y="432.383"/>
      <point x="457.96" y="220.886"/>
      <point x="318.827" y="5.3457" type="curve" smooth="yes"/>
      <point x="315.752" y="0.486328"/>
      <point x="304.29" y="-10"/>
      <point x="289.25" y="-10" type="curve" smooth="yes"/>
      <point x="274.989" y="-10"/>
      <point x="263.794" y="0.230469"/>
      <point x="262.812" y="7.68652" type="curve"/>
      <point x="260.78" y="20.21"/>
      <point x="160.023" y="470.334"/>
      <point x="135.048" y="640.813" type="curve"/>
      <point x="134.067" y="646.583"/>
      <point x="133.042" y="655.589"/>
      <point x="132.044" y="660.479" type="curve" smooth="yes"/>
      <point x="128.94" y="675.686"/>
      <point x="128.593" y="685.349"/>
      <point x="122.528" y="690.185" type="curve" smooth="yes"/>
      <point x="117.479" y="694.211"/>
      <point x="109.623" y="696"/>
      <point x="102.966" y="696" type="curve" smooth="yes"/>
      <point x="92.9004" y="696" type="line"/>
      <point x="92.9004" y="696"/>
      <point x="92.1006" y="698.688"/>
      <point x="92.1006" y="702.435" type="curve" smooth="yes"/>
      <point x="92.1006" y="705.341"/>
      <point x="92.582" y="710.885"/>
      <point x="94.292" y="714.305" type="curve" smooth="yes"/>
      <point x="98.292" y="722.305"/>
      <point x="104.866" y="730"/>
      <point x="104.866" y="730" type="curve"/>
      <point x="387" y="730" type="line"/>
      <point x="387" y="730"/>
      <point x="389.239" y="726.947"/>
      <point x="389.239" y="724.006" type="curve" smooth="yes"/>
      <point x="389.239" y="720.962"/>
      <point x="388.855" y="715.964"/>
      <point x="387.292" y="712.305" type="curve" smooth="yes"/>
      <point x="383.936" y="704.447"/>
      <point x="373.9" y="696"/>
      <point x="373.9" y="696" type="curve"/>
      <point x="370.23" y="696" type="line" smooth="yes"/>
      <point x="363.124" y="696"/>
      <point x="350.992" y="694.498"/>
      <point x="344.012" y="692.18" type="curve" smooth="yes"/>
      <point x="327.702" y="686.763"/>
      <point x="316.755" y="679.488"/>
      <point x="316.755" y="661.137" type="curve" smooth="yes"/>
      <point x="316.755" y="658.384"/>
      <point x="317.986" y="647.353"/>
      <point x="318.495" y="644.024" type="curve" smooth="yes"/>
      <point x="387" y="273" type="line"/>
      <point x="639.635" y="641.724" type="line"/>
      <point x="650.755" y="658.455"/>
      <point x="653.802" y="665.115"/>
      <point x="653.802" y="676.947" type="curve" smooth="yes"/>
      <point x="653.802" y="687.556"/>
      <point x="644.588" y="696"/>
      <point x="622.919" y="696" type="curve" smooth="yes"/>
      <point x="612.9" y="696" type="line"/>
      <point x="612.9" y="696"/>
      <point x="612.101" y="698.688"/>
      <point x="612.101" y="702.435" type="curve" smooth="yes"/>
      <point x="612.101" y="705.341"/>
      <point x="612.582" y="710.885"/>
      <point x="614.292" y="714.305" type="curve" smooth="yes"/>
      <point x="618.292" y="722.305"/>
      <point x="625.5" y="730"/>
      <point x="625.5" y="730" type="curve"/>
    </contour>
  </outline>
</glyph>
<glyph name="W" format="1">
  <advance width="1070"/>
  <unicode hex="0057"/>
  <outline>
    <contour>
      <point x="260.177" y="6.3125" type="line"/>
      <point x="260.044" y="6.11719" type="line" smooth="yes"/>
      <point x="254.25" y="-2.4043"/>
      <point x="246.531" y="-9"/>
      <point x="229.844" y="-9" type="curve" smooth="yes"/>
      <point x="211.851" y="-9"/>
      <point x="202.869" y="-3.36816"/>
      <point x="200.39" y="12.7988" type="curve" smooth="yes"/>
      <point x="186.524" y="103.21"/>
      <point x="76.2432" y="597.651"/>
      <point x="64.1016" y="657.193" type="curve" smooth="yes"/>
      <point x="60.0127" y="677.243"/>
      <point x="58.376" y="688.377"/>
      <point x="52.083" y="692.291" type="curve" smooth="yes"/>
      <point x="48.6338" y="694.437"/>
      <point x="44.0371" y="696"/>
      <point x="35.9658" y="696" type="curve" smooth="yes"/>
      <point x="26.9004" y="696" type="line"/>
      <point x="26.9004" y="696"/>
      <point x="26.1006" y="698.688"/>
      <point x="26.1006" y="702.435" type="curve" smooth="yes"/>
      <point x="26.1006" y="705.341"/>
      <point x="26.582" y="710.885"/>
      <point x="28.292" y="714.305" type="curve" smooth="yes"/>
      <point x="32.292" y="722.305"/>
      <point x="38.8662" y="730"/>
      <point x="38.5" y="730" type="curve"/>
      <point x="109.349" y="730"/>
      <point x="250.197" y="730"/>
      <point x="321.046" y="730" type="curve"/>
      <point x="321" y="730"/>
      <point x="323.239" y="726.947"/>
      <point x="323.239" y="724.006" type="curve" smooth="yes"/>
      <point x="323.239" y="720.962"/>
      <point x="322.855" y="715.964"/>
      <point x="321.292" y="712.305" type="curve" smooth="yes"/>
      <point x="317.936" y="704.447"/>
      <point x="307.9" y="696"/>
      <point x="307.9" y="696" type="curve"/>
      <point x="303.383" y="696" type="line" smooth="yes"/>
      <point x="272.721" y="696"/>
      <point x="252.942" y="685.312"/>
      <point x="252.942" y="655.772" type="curve" smooth="yes"/>
      <point x="252.942" y="655.146"/>
      <point x="254.014" y="644.337"/>
      <point x="254.317" y="641.958" type="curve"/>
      <point x="338" y="268" type="line"/>
      <point x="450.711" y="413.479" type="line"/>
      <point x="431.154" y="534.603"/>
      <point x="410.098" y="605.438"/>
      <point x="401" y="659" type="curve"/>
      <point x="396" y="683"/>
      <point x="391.158" y="696"/>
      <point x="373.54" y="696" type="curve" smooth="yes"/>
      <point x="361.396" y="696" type="line"/>
      <point x="360.9" y="696"/>
      <point x="360.101" y="698.688"/>
      <point x="360.101" y="702.435" type="curve" smooth="yes"/>
      <point x="360.101" y="705.341"/>
      <point x="360.582" y="710.885"/>
      <point x="362.292" y="714.305" type="curve" smooth="yes"/>
      <point x="366.292" y="722.305"/>
      <point x="372.866" y="730"/>
      <point x="372.866" y="730" type="curve"/>
      <point x="636.339" y="730" type="line"/>
      <point x="637" y="730"/>
      <point x="639.239" y="726.947"/>
      <point x="639.239" y="724.006" type="curve" smooth="yes"/>
      <point x="639.239" y="720.962"/>
      <point x="638.855" y="715.964"/>
      <point x="637.292" y="712.305" type="curve" smooth="yes"/>
      <point x="633.936" y="704.447"/>
      <point x="623.9" y="696"/>
      <point x="623.9" y="696" type="curve"/>
      <point x="618.676" y="696" type="line" smooth="yes"/>
      <point x="586" y="696"/>
      <point x="566.005" y="680.304"/>
      <point x="566.005" y="657.645" type="curve" smooth="yes"/>
      <point x="566.005" y="657.547"/>
      <point x="566.439" y="653.251"/>
      <point x="566.626" y="652.116" type="curve" smooth="yes"/>
      <point x="596.215" y="519.512" type="line"/>
      <point x="690.395" y="640.797" type="line"/>
      <point x="699.995" y="654.915"/>
      <point x="704.516" y="662.96"/>
      <point x="704.516" y="674.104" type="curve" smooth="yes"/>
      <point x="704.516" y="683.27"/>
      <point x="694.621" y="696"/>
      <point x="675.935" y="696" type="curve" smooth="yes"/>
      <point x="665.9" y="696" type="line"/>
      <point x="665.9" y="696"/>
      <point x="665.101" y="698.688"/>
      <point x="665.101" y="702.435" type="curve" smooth="yes"/>
      <point x="665.101" y="705.341"/>
      <point x="665.582" y="710.885"/>
      <point x="667.292" y="714.305" type="curve" smooth="yes"/>
      <point x="671.292" y="722.305"/>
      <point x="677.866" y="730"/>
      <point x="677.866" y="730" type="curve"/>
      <point x="859.835" y="730" type="line"/>
      <point x="860" y="730"/>
      <point x="862.239" y="726.947"/>
      <point x="862.239" y="724.006" type="curve" smooth="yes"/>
      <point x="862.239" y="720.962"/>
      <point x="861.855" y="715.964"/>
      <point x="860.292" y="712.305" type="curve" smooth="yes"/>
      <point x="856.936" y="704.447"/>
      <point x="846.9" y="696"/>
      <point x="846.9" y="696" type="curve"/>
      <point x="841.611" y="696" type="line" smooth="yes"/>
      <point x="833.984" y="696"/>
      <point x="826.973" y="695.092"/>
      <point x="820.766" y="692.181" type="curve" smooth="yes"/>
      <point x="803.595" y="684.128"/>
      <point x="797.104" y="671.762"/>
      <point x="785.466" y="653.162" type="curve"/>
      <point x="622.47" y="427.962" type="line"/>
      <point x="661" y="223" type="line"/>
      <point x="950.747" y="638.606" type="line" smooth="yes"/>
      <point x="960.831" y="655.053"/>
      <point x="966.802" y="662.472"/>
      <point x="966.802" y="673.84" type="curve" smooth="yes"/>
      <point x="966.802" y="682.795"/>
      <point x="956.005" y="696"/>
      <point x="934.348" y="696" type="curve" smooth="yes"/>
      <point x="924.9" y="696" type="line"/>
      <point x="924.9" y="696"/>
      <point x="924.101" y="698.688"/>
      <point x="924.101" y="702.435" type="curve" smooth="yes"/>
      <point x="924.101" y="705.341"/>
      <point x="924.582" y="710.885"/>
      <point x="926.292" y="714.305" type="curve" smooth="yes"/>
      <point x="930.292" y="722.305"/>
      <point x="936.866" y="730"/>
      <point x="936.866" y="730" type="curve"/>
      <point x="1120" y="730" type="line"/>
      <point x="1120" y="730"/>
      <point x="1122.24" y="726.947"/>
      <point x="1122.24" y="724.006" type="curve" smooth="yes"/>
      <point x="1122.24" y="720.962"/>
      <point x="1121.86" y="715.964"/>
      <point x="1120.29" y="712.305" type="curve" smooth="yes"/>
      <point x="1116.94" y="704.447"/>
      <point x="1106.9" y="696"/>
      <point x="1106.9" y="696" type="curve"/>
      <point x="1100.97" y="696" type="line" smooth="yes"/>
      <point x="1093.58" y="696"/>
      <point x="1084.17" y="694.501"/>
      <point x="1076.72" y="692.277" type="curve" smooth="yes"/>
      <point x="1061.72" y="687.804"/>
      <point x="1053.22" y="667.926"/>
      <point x="1042.99" y="651.131" type="curve" smooth="yes"/>
      <point x="907.727" y="429.047"/>
      <point x="733.59" y="234.633"/>
      <point x="595.058" y="10.4307" type="curve" smooth="yes"/>
      <point x="590.043" y="2.31445"/>
      <point x="582.816" y="-10"/>
      <point x="564.637" y="-10" type="curve" smooth="yes"/>
      <point x="548.176" y="-10"/>
      <point x="539.571" y="1.71875"/>
      <point x="536.38" y="15.0713" type="curve"/>
      <point x="533.588" y="20.501"/>
      <point x="501.136" y="133.45"/>
      <point x="473" y="297" type="curve"/>
    </contour>
  </outline>
</glyph>
<glyph name="X" format="1">
  <advance width="692"/>
  <unicode hex="0058"/>
  <outline>
    <contour>
      <point x="638.431" y="0" type="curve"/>
      <point x="348" y="0" type="line"/>
      <point x="347.9" y="0"/>
      <point x="347.101" y="2.6875"/>
      <point x="347.101" y="6.43457" type="curve" smooth="yes"/>
      <point x="347.101" y="9.34082"/>
      <point x="347.582" y="12.8848"/>
      <point x="349.292" y="16.3047" type="curve" smooth="yes"/>
      <point x="353.292" y="24.3047"/>
      <point x="359.866" y="30"/>
      <point x="359.866" y="30" type="curve"/>
      <point x="385.966" y="30" type="line" smooth="yes"/>
      <point x="402.005" y="30"/>
      <point x="407.041" y="40.2152"/>
      <point x="407.041" y="52.9646" type="curve" smooth="yes"/>
      <point x="407.041" y="63.1882"/>
      <point x="403.803" y="75.0414"/>
      <point x="400.402" y="84.5635" type="curve"/>
      <point x="319" y="276" type="line"/>
      <point x="130.104" y="86.2461" type="line"/>
      <point x="115.184" y="68.3301"/>
      <point x="104.506" y="55.8193"/>
      <point x="101.738" y="50.2295" type="curve" smooth="yes"/>
      <point x="99.958" y="46.6338"/>
      <point x="99.0898" y="43.5391"/>
      <point x="99.0898" y="40.9238" type="curve" smooth="yes"/>
      <point x="99.0898" y="33.3008"/>
      <point x="106.461" y="29.75"/>
      <point x="120.091" y="29.75" type="curve" smooth="yes"/>
      <point x="123.114" y="29.75"/>
      <point x="126.67" y="30"/>
      <point x="130.966" y="30" type="curve" smooth="yes"/>
      <point x="141" y="30" type="line"/>
      <point x="141" y="30"/>
      <point x="143.239" y="26.9473"/>
      <point x="143.239" y="24.0059" type="curve" smooth="yes"/>
      <point x="143.239" y="20.9619"/>
      <point x="142.855" y="17.9639"/>
      <point x="141.292" y="14.3047" type="curve" smooth="yes"/>
      <point x="137.936" y="6.44727"/>
      <point x="127.9" y="0"/>
      <point x="127.9" y="0" type="curve"/>
      <point x="-80.0996" y="0" type="line"/>
      <point x="-80.0996" y="0"/>
      <point x="-80.8994" y="2.6875"/>
      <point x="-80.8994" y="6.43457" type="curve" smooth="yes"/>
      <point x="-80.8994" y="9.34082"/>
      <point x="-80.418" y="12.8848"/>
      <point x="-78.708" y="16.3047" type="curve" smooth="yes"/>
      <point x="-74.708" y="24.3047"/>
      <point x="-68.1338" y="30"/>
      <point x="-68.1338" y="30" type="curve"/>
      <point x="-63.0342" y="30" type="line" smooth="yes"/>
      <point x="-27.9844" y="30"/>
      <point x="-19.9277" y="49.2881"/>
      <point x="2.80664" y="73.042" type="curve"/>
      <point x="272.021" y="355.602" type="line"/>
      <point x="221.085" y="485.736"/>
      <point x="157.768" y="616.694"/>
      <point x="132" y="673" type="curve"/>
      <point x="125.059" y="689.317"/>
      <point x="117.876" y="696"/>
      <point x="91.9658" y="696" type="curve" smooth="yes"/>
      <point x="84.9004" y="696" type="line"/>
      <point x="84.9004" y="696"/>
      <point x="84.1006" y="698.688"/>
      <point x="84.1006" y="702.435" type="curve" smooth="yes"/>
      <point x="84.1006" y="705.341"/>
      <point x="84.582" y="710.885"/>
      <point x="86.292" y="714.305" type="curve" smooth="yes"/>
      <point x="90.292" y="722.305"/>
      <point x="96.8662" y="730"/>
      <point x="96.8662" y="730" type="curve"/>
      <point x="389" y="730" type="line"/>
      <point x="389" y="730"/>
      <point x="391.239" y="726.947"/>
      <point x="391.239" y="724.006" type="curve" smooth="yes"/>
      <point x="391.239" y="720.962"/>
      <point x="390.855" y="713.964"/>
      <point x="389.292" y="710.305" type="curve" smooth="yes"/>
      <point x="385.936" y="702.447"/>
      <point x="375.9" y="696"/>
      <point x="376.431" y="696" type="curve"/>
      <point x="370.966" y="696" type="line" smooth="yes"/>
      <point x="343.595" y="696"/>
      <point x="328.77" y="683.362"/>
      <point x="328.77" y="662.755" type="curve" smooth="yes"/>
      <point x="328.77" y="658.033"/>
      <point x="332.496" y="649.086"/>
      <point x="335.473" y="641.58" type="curve" smooth="yes"/>
      <point x="411" y="480" type="line"/>
      <point x="578.775" y="638.697" type="line"/>
      <point x="597.625" y="659.642"/>
      <point x="605.275" y="665.682"/>
      <point x="605.275" y="676.925" type="curve" smooth="yes"/>
      <point x="605.275" y="682.442"/>
      <point x="596.811" y="696"/>
      <point x="577.966" y="696" type="curve" smooth="yes"/>
      <point x="566.9" y="696" type="line"/>
      <point x="566.9" y="696"/>
      <point x="566.101" y="698.688"/>
      <point x="566.101" y="702.435" type="curve" smooth="yes"/>
      <point x="566.101" y="705.341"/>
      <point x="566.582" y="710.885"/>
      <point x="568.292" y="714.305" type="curve" smooth="yes"/>
      <point x="572.292" y="722.305"/>
      <point x="578.866" y="730"/>
      <point x="578.866" y="730" type="curve"/>
      <point x="781" y="730" type="line"/>
      <point x="781" y="730"/>
      <point x="783.239" y="726.947"/>
      <point x="783.239" y="724.006" type="curve" smooth="yes"/>
      <point x="783.239" y="720.962"/>
      <point x="782.855" y="713.964"/>
      <point x="781.292" y="710.305" type="curve" smooth="yes"/>
      <point x="777.936" y="702.447"/>
      <point x="767.9" y="696"/>
      <point x="767.9" y="696" type="curve"/>
      <point x="762.966" y="696" type="line" smooth="yes"/>
      <point x="727.879" y="696"/>
      <point x="715.911" y="675.723"/>
      <point x="694.117" y="652.951" type="curve"/>
      <point x="448.816" y="401.759" type="line"/>
      <point x="454.683" y="387.073" type="line"/>
      <point x="517.963" y="250.972"/>
      <point x="577.53" y="117.836"/>
      <point x="604.397" y="58.3789" type="curve"/>
      <point x="611.915" y="40.707"/>
      <point x="618.72" y="30"/>
      <point x="642.966" y="30" type="curve" smooth="yes"/>
      <point x="651" y="30" type="line"/>
      <point x="651" y="30"/>
      <point x="653.239" y="26.9473"/>
      <point x="653.239" y="24.0059" type="curve" smooth="yes"/>
      <point x="653.239" y="20.9619"/>
      <point x="652.855" y="17.9639"/>
      <point x="651.292" y="14.3047" type="curve" smooth="yes"/>
      <point x="647.936" y="6.44727"/>
      <point x="637.9" y="0"/>
    </contour>
  </outline>
</glyph>
<glyph name="Y" format="1">
  <advance width="713"/>
  <unicode hex="0059"/>
  <outline>
    <contour>
      <point x="795.931" y="730" type="line"/>
      <point x="796" y="730"/>
      <point x="798.239" y="726.947"/>
      <point x="798.239" y="724.006" type="curve" smooth="yes"/>
      <point x="798.239" y="720.962"/>
      <point x="797.855" y="713.964"/>
      <point x="796.292" y="710.305" type="curve" smooth="yes"/>
      <point x="792.936" y="702.447"/>
      <point x="782.9" y="696"/>
      <point x="782.9" y="696" type="curve"/>
      <point x="775.966" y="696" type="line" smooth="yes"/>
      <point x="744.868" y="696"/>
      <point x="729.799" y="676.884"/>
      <point x="720.229" y="665.807" type="curve"/>
      <point x="457.284" y="391.95" type="line"/>
      <point x="444.563" y="346.952"/>
      <point x="436.243" y="302.264"/>
      <point x="425.676" y="256.682" type="curve" smooth="yes"/>
      <point x="409.993" y="189.036"/>
      <point x="399.764" y="150.349"/>
      <point x="382.841" y="83.0654" type="curve"/>
      <point x="382.841" y="83.0654"/>
      <point x="378.146" y="66.5723"/>
      <point x="378.146" y="60.6006" type="curve" smooth="yes"/>
      <point x="378.146" y="45.6777"/>
      <point x="388.697" y="34"/>
      <point x="410.187" y="34" type="curve" smooth="yes"/>
      <point x="419" y="34" type="line"/>
      <point x="419" y="34"/>
      <point x="421.239" y="30.9473"/>
      <point x="421.239" y="28.0059" type="curve" smooth="yes"/>
      <point x="421.239" y="24.9619"/>
      <point x="420.855" y="19.9639"/>
      <point x="419.292" y="16.3047" type="curve" smooth="yes"/>
      <point x="415.936" y="8.44727"/>
      <point x="406.742" y="0"/>
      <point x="406.742" y="0" type="curve"/>
      <point x="125" y="0" type="line"/>
      <point x="124.9" y="0"/>
      <point x="124.101" y="2.6875"/>
      <point x="124.101" y="6.43457" type="curve" smooth="yes"/>
      <point x="124.101" y="9.34082"/>
      <point x="124.582" y="14.8848"/>
      <point x="126.292" y="18.3047" type="curve" smooth="yes"/>
      <point x="130.292" y="26.3047"/>
      <point x="136.866" y="34"/>
      <point x="136.866" y="34" type="curve"/>
      <point x="142.966" y="34" type="line" smooth="yes"/>
      <point x="151.086" y="34"/>
      <point x="159.04" y="34.9932"/>
      <point x="167.395" y="37.7852" type="curve" smooth="yes"/>
      <point x="183" y="43"/>
      <point x="192.713" y="60.6875"/>
      <point x="195.153" y="71.0479" type="curve" smooth="yes"/>
      <point x="212.195" y="139.781"/>
      <point x="227.168" y="193.263"/>
      <point x="243.147" y="260.764" type="curve" smooth="yes"/>
      <point x="252.905" y="301.862"/>
      <point x="263.185" y="345.393"/>
      <point x="271.724" y="384.931" type="curve"/>
      <point x="223.597" y="508.672"/>
      <point x="172.438" y="622.969"/>
      <point x="147.547" y="676.61" type="curve"/>
      <point x="140.5" y="693.177"/>
      <point x="135.604" y="696"/>
      <point x="111.966" y="696" type="curve" smooth="yes"/>
      <point x="103.9" y="696" type="line"/>
      <point x="103.9" y="696"/>
      <point x="103.101" y="698.688"/>
      <point x="103.101" y="702.435" type="curve" smooth="yes"/>
      <point x="103.101" y="705.341"/>
      <point x="103.582" y="710.885"/>
      <point x="105.292" y="714.305" type="curve" smooth="yes"/>
      <point x="109.292" y="722.305"/>
      <point x="115.866" y="730"/>
      <point x="115.5" y="730" type="curve"/>
      <point x="402.4" y="730" type="line"/>
      <point x="403" y="730"/>
      <point x="405.239" y="726.947"/>
      <point x="405.239" y="724.006" type="curve" smooth="yes"/>
      <point x="405.239" y="720.962"/>
      <point x="404.855" y="713.964"/>
      <point x="403.292" y="710.305" type="curve" smooth="yes"/>
      <point x="399.936" y="702.447"/>
      <point x="389.9" y="696"/>
      <point x="389.9" y="696" type="curve"/>
      <point x="383.966" y="696" type="line" smooth="yes"/>
      <point x="360.172" y="696"/>
      <point x="345.199" y="681.212"/>
      <point x="345.199" y="663.791" type="curve" smooth="yes"/>
      <point x="345.199" y="658.626"/>
      <point x="346.973" y="651.392"/>
      <point x="350.521" y="641.455" type="curve"/>
      <point x="430" y="470" type="line"/>
      <point x="598.801" y="637.725" type="line" smooth="yes"/>
      <point x="616.683" y="657.271"/>
      <point x="628.554" y="669.879"/>
      <point x="628.554" y="678.007" type="curve" smooth="yes"/>
      <point x="628.554" y="688.407"/>
      <point x="617.742" y="696"/>
      <point x="596.966" y="696" type="curve" smooth="yes"/>
      <point x="587.9" y="696" type="line"/>
      <point x="587.9" y="696"/>
      <point x="587.101" y="698.688"/>
      <point x="587.101" y="702.435" type="curve" smooth="yes"/>
      <point x="587.101" y="705.341"/>
      <point x="587.582" y="710.885"/>
      <point x="589.292" y="714.305" type="curve" smooth="yes"/>
      <point x="593.292" y="722.305"/>
      <point x="599.866" y="730"/>
      <point x="599.866" y="730" type="curve"/>
    </contour>
  </outline>
</glyph>
<glyph name="Z" format="1">
  <advance width="793"/>
  <unicode hex="005A"/>
  <outline>
    <contour>
      <point x="778.697" y="671.641" type="curve" smooth="yes"/>
      <point x="245.072" y="53.0195" type="line"/>
      <point x="276.75" y="49.0605"/>
      <point x="342.001" y="47"/>
      <point x="378.862" y="47" type="curve" smooth="yes"/>
      <point x="421.105" y="47"/>
      <point x="479.633" y="47.0596"/>
      <point x="528.252" y="53.9297" type="curve" smooth="yes"/>
      <point x="592.742" y="62.7168"/>
      <point x="631.318" y="110.241"/>
      <point x="660.43" y="178.744" type="curve"/>
      <point x="686.759" y="180.593" type="line"/>
      <point x="615.97" y="0" type="line"/>
      <point x="34.3701" y="0" type="line" smooth="yes"/>
      <point x="26.7207" y="0"/>
      <point x="7.37012" y="3.43555"/>
      <point x="7.37012" y="23.5254" type="curve" smooth="yes"/>
      <point x="7.37012" y="33.2324"/>
      <point x="14.9111" y="44.5439"/>
      <point x="18.9541" y="49.498" type="curve"/>
      <point x="560.928" y="682.734" type="line"/>
      <point x="533.47" y="683.907"/>
      <point x="494.187" y="686"/>
      <point x="453.749" y="686" type="curve" smooth="yes"/>
      <point x="433.042" y="686"/>
      <point x="405.212" y="685.956"/>
      <point x="350.907" y="675.169" type="curve" smooth="yes"/>
      <point x="281.362" y="661.354"/>
      <point x="244.031" y="623.67"/>
      <point x="216.005" y="563.295" type="curve"/>
      <point x="194.351" y="561.25" type="line"/>
      <point x="265.659" y="726.883" type="line" smooth="yes"/>
      <point x="269.297" y="732.172"/>
      <point x="276.621" y="734"/>
      <point x="282.99" y="734" type="curve" smooth="yes"/>
      <point x="294.359" y="734"/>
      <point x="312.356" y="730"/>
      <point x="317" y="730" type="curve" smooth="yes"/>
      <point x="794.393" y="730" type="line"/>
      <point x="794.393" y="730"/>
      <point x="795.202" y="720.745"/>
      <point x="795.37" y="716.117" type="curve" smooth="yes"/>
      <point x="795.37" y="700.814"/>
      <point x="789.326" y="683.547"/>
    </contour>
  </outline>
</glyph>
<glyph name="bracketleft" format="1">
  <advance width="508"/>
  <unicode hex="005B"/>
  <outline>
    <contour>
      <point x="343.704" y="706.95" type="line"/>
      <point x="168.671" y="-59.9502" type="line"/>
      <point x="275.88" y="-59.9502" type="line" smooth="yes"/>
      <point x="287.459" y="-59.9502"/>
      <point x="288.094" y="-73.0762"/>
      <point x="288.094" y="-78.6455" type="curve" smooth="yes"/>
      <point x="288.094" y="-92.1465"/>
      <point x="283.255" y="-110.15"/>
      <point x="267.38" y="-110.15" type="curve" smooth="yes"/>
      <point x="56.7305" y="-110.15" type="line" smooth="yes"/>
      <point x="44.3799" y="-110.15"/>
      <point x="35.0771" y="-103.211"/>
      <point x="35.0771" y="-90.3564" type="curve" smooth="yes"/>
      <point x="35.0771" y="-87.29"/>
      <point x="35.4824" y="-84.1982"/>
      <point x="36.2471" y="-80.6289" type="curve"/>
      <point x="222.097" y="723.672" type="line"/>
      <point x="225.859" y="741.228"/>
      <point x="238.011" y="750.15"/>
      <point x="256.23" y="750.15" type="curve" smooth="yes"/>
      <point x="462.68" y="750.15" type="line" smooth="yes"/>
      <point x="473.642" y="750.15"/>
      <point x="474.142" y="738.052"/>
      <point x="474.142" y="733.502" type="curve" smooth="yes"/>
      <point x="474.142" y="721.158"/>
      <point x="471.785" y="706.95"/>
      <point x="455.18" y="706.95" type="curve" smooth="yes"/>
    </contour>
  </outline>
</glyph>
<glyph name="backslash" format="1">
  <advance width="458"/>
  <unicode hex="005C"/>
  <outline>
    <contour>
      <point x="429.391" y="-102.214" type="line" smooth="yes"/>
      <point x="419.544" y="-107.319"/>
      <point x="373.22" y="-110.053"/>
      <point x="357" y="-110.053" type="curve" smooth="yes"/>
      <point x="327.096" y="-110.053"/>
      <point x="273.19" y="-86.7461"/>
      <point x="264.395" y="-52.792" type="curve"/>
      <point x="264.395" y="-52.792"/>
      <point x="120.432" y="404.579"/>
      <point x="31.4023" y="655.66" type="curve" smooth="yes"/>
      <point x="31" y="656.796" type="line"/>
      <point x="31" y="658" type="line" smooth="yes"/>
      <point x="31" y="675.164"/>
      <point x="68.1152" y="703.256"/>
      <point x="94" y="703.256" type="curve" smooth="yes"/>
      <point x="118.606" y="703.256"/>
      <point x="168.181" y="691.747"/>
      <point x="186.466" y="677.525" type="curve" smooth="yes"/>
      <point x="188.286" y="676.109" type="line"/>
      <point x="188.908" y="673.889" type="line" smooth="yes"/>
      <point x="260.878" y="416.998"/>
      <point x="331.812" y="185.21"/>
      <point x="432.75" y="-93.6172" type="curve" smooth="yes"/>
      <point x="434.839" y="-99.3887" type="line"/>
    </contour>
  </outline>
</glyph>
<glyph name="asciicircum" format="1">
  <advance width="498"/>
  <unicode hex="005E"/>
  <outline>
    <contour>
      <point x="461.37" y="586.724" type="line" smooth="yes"/>
      <point x="454.126" y="573.443"/>
      <point x="433.019" y="546.027"/>
      <point x="422.239" y="542.435" type="curve" smooth="yes"/>
      <point x="418.312" y="541.125" type="line"/>
      <point x="293.27" y="636.789" type="line"/>
      <point x="115.459" y="541.368" type="line"/>
      <point x="112.261" y="542.435" type="line" smooth="yes"/>
      <point x="100.072" y="546.497"/>
      <point x="82.7754" y="576.927"/>
      <point x="82.7754" y="590.075" type="curve" smooth="yes"/>
      <point x="82.7754" y="593.279" type="line"/>
      <point x="316.313" y="786.285" type="line"/>
      <point x="463.449" y="590.535" type="line"/>
    </contour>
  </outline>
</glyph>
<glyph name="underscore" format="1">
  <advance width="449"/>
  <unicode hex="005F"/>
  <outline>
    <contour>
      <point x="75.2715" y="-11" type="line" smooth="yes"/>
      <point x="64.2061" y="-11"/>
      <point x="60.8154" y="15.6797"/>
      <point x="60.8154" y="20.9854" type="curve" smooth="yes"/>
      <point x="60.8154" y="32.9277"/>
      <point x="67.2715" y="75"/>
      <point x="84.7217" y="75" type="curve" smooth="yes"/>
      <point x="366.121" y="75" type="line" smooth="yes"/>
      <point x="377.232" y="75"/>
      <point x="380.335" y="47.8516"/>
      <point x="380.335" y="42.4404" type="curve" smooth="yes"/>
      <point x="380.335" y="30.6289"/>
      <point x="373.551" y="-11"/>
      <point x="356.671" y="-11" type="curve" smooth="yes"/>
    </contour>
  </outline>
</glyph>
<glyph name="grave" format="1">
  <advance width="303"/>
  <unicode hex="0060"/>
  <outline>
    <contour>
      <point x="211.833" y="526.676" type="line" smooth="yes"/>
      <point x="170.236" y="562.186"/>
      <point x="77.9453" y="645.029"/>
      <point x="66.5537" y="662.117" type="curve" smooth="yes"/>
      <point x="61.6699" y="669.442"/>
      <point x="58" y="680.024"/>
      <point x="58" y="689.172" type="curve" smooth="yes"/>
      <point x="58" y="722.774"/>
      <point x="96.6924" y="756"/>
      <point x="125.378" y="756" type="curve" smooth="yes"/>
      <point x="138.011" y="756"/>
      <point x="154.617" y="751.26"/>
      <point x="162.202" y="739.883" type="curve" smooth="yes"/>
      <point x="173.401" y="723.084"/>
      <point x="224.66" y="605.116"/>
      <point x="246.824" y="552.728" type="curve" smooth="yes"/>
      <point x="248.874" y="547.884" type="line"/>
      <point x="216.268" y="522.891" type="line"/>
    </contour>
  </outline>
</glyph>
<glyph name="a" format="1">
  <advance width="665"/>
  <unicode hex="0061"/>
  <outline>
    <contour>
      <point x="577.256" y="52.5371" type="curve"/>
      <point x="577.256" y="21.835" type="line"/>
      <point x="552.203" y="5.65332"/>
      <point x="480.297" y="-7.27539"/>
      <point x="452.446" y="-7.27539" type="curve" smooth="yes"/>
      <point x="408.599" y="-7.27539"/>
      <point x="378.051" y="11.8076"/>
      <point x="375.301" y="28.5898" type="curve"/>
      <point x="336.704" y="3.90918"/>
      <point x="305.325" y="-10.4248"/>
      <point x="255.945" y="-10.4248" type="curve" smooth="yes"/>
      <point x="130.496" y="-10.4248"/>
      <point x="44.2217" y="52.9668"/>
      <point x="44.2217" y="166.87" type="curve" smooth="yes"/>
      <point x="44.2217" y="377.188"/>
      <point x="195.98" y="511.425"/>
      <point x="380.353" y="511.425" type="curve" smooth="yes"/>
      <point x="419.702" y="511.425"/>
      <point x="455.243" y="503.098"/>
      <point x="484.613" y="474.852" type="curve"/>
      <point x="486.954" y="485.384" type="line"/>
      <point x="491.647" y="486.137" type="line" smooth="yes"/>
      <point x="519.358" y="490.581"/>
      <point x="625.347" y="496.212"/>
      <point x="652.081" y="503.09" type="curve"/>
      <point x="549.826" y="60.4814" type="line" smooth="yes"/>
      <point x="546.042" y="44.5205" type="line"/>
      <point x="556.262" y="47.0684"/>
      <point x="566.93" y="49.7969"/>
    </contour>
    <contour>
      <point x="381.057" y="95.2002" type="curve"/>
      <point x="444.055" y="357.533" type="line"/>
      <point x="444.405" y="363.631"/>
      <point x="449.263" y="381.412"/>
      <point x="449.263" y="386.903" type="curve" smooth="yes"/>
      <point x="449.263" y="430.023"/>
      <point x="421.855" y="460.375"/>
      <point x="381.947" y="460.375" type="curve" smooth="yes"/>
      <point x="310.778" y="460.375"/>
      <point x="228.934" y="317.86"/>
      <point x="228.934" y="176.782" type="curve" smooth="yes"/>
      <point x="228.934" y="140.593"/>
      <point x="249.427" y="62.3613"/>
      <point x="297.732" y="62.3613" type="curve" smooth="yes"/>
      <point x="339.866" y="62.3613"/>
      <point x="374.715" y="82.7021"/>
    </contour>
  </outline>
</glyph>
<glyph name="b" format="1">
  <advance width="659"/>
  <unicode hex="0062"/>
  <outline>
    <contour>
      <point x="381.346" y="745.498" type="curve" smooth="yes"/>
      <point x="317.874" y="480.834" type="line"/>
      <point x="350.974" y="501.122"/>
      <point x="372.788" y="511.9"/>
      <point x="426.319" y="511.9" type="curve" smooth="yes"/>
      <point x="543.86" y="511.9"/>
      <point x="642.312" y="480.563"/>
      <point x="642.312" y="329.054" type="curve" smooth="yes"/>
      <point x="642.312" y="124.735"/>
      <point x="544.102" y="-9.9502"/>
      <point x="310.794" y="-9.9502" type="curve" smooth="yes"/>
      <point x="273.442" y="-9.9502"/>
      <point x="233.903" y="-0.825195"/>
      <point x="203.668" y="22.7725" type="curve"/>
      <point x="177.562" y="3.89062"/>
      <point x="73.2852" y="-3.65039"/>
      <point x="6.42676" y="-3.65039" type="curve" smooth="yes"/>
      <point x="-2.2002" y="-3.65039" type="line"/>
      <point x="5.94727" y="33.623" type="line"/>
      <point x="11.627" y="33.623" type="line" smooth="yes"/>
      <point x="31.5479" y="33.623"/>
      <point x="44.0449" y="50.0703"/>
      <point x="46.6064" y="60.9453" type="curve" smooth="yes"/>
      <point x="189.895" y="673.578" type="line" smooth="yes"/>
      <point x="190.977" y="678.011"/>
      <point x="193.562" y="689.323"/>
      <point x="193.562" y="693.165" type="curve" smooth="yes"/>
      <point x="193.562" y="701.987"/>
      <point x="191.419" y="708.472"/>
      <point x="186.816" y="711.488" type="curve" smooth="yes"/>
      <point x="183.914" y="713.391"/>
      <point x="176.693" y="714.95"/>
      <point x="167.851" y="714.95" type="curve" smooth="yes"/>
      <point x="158.565" y="714.95" type="line"/>
      <point x="164.972" y="745.254" type="line"/>
      <point x="359.367" y="770.701" type="line" smooth="yes"/>
      <point x="361.318" y="771.208"/>
      <point x="367.186" y="774"/>
      <point x="372.398" y="774" type="curve" smooth="yes"/>
      <point x="375.929" y="774"/>
      <point x="383.897" y="770.192"/>
      <point x="383.897" y="760.41" type="curve" smooth="yes"/>
      <point x="383.897" y="755.986"/>
      <point x="382.88" y="751.8"/>
    </contour>
    <contour>
      <point x="307.971" y="422.384" type="curve"/>
      <point x="232.516" y="107.988" type="line" smooth="yes"/>
      <point x="232.077" y="106.158"/>
      <point x="232.034" y="101.472"/>
      <point x="232.034" y="98.1865" type="curve" smooth="yes"/>
      <point x="232.034" y="65.4883"/>
      <point x="269.65" y="41.3848"/>
      <point x="314.279" y="41.3848" type="curve" smooth="yes"/>
      <point x="411.421" y="41.3848"/>
      <point x="465.996" y="204.238"/>
      <point x="465.996" y="328.887" type="curve" smooth="yes"/>
      <point x="465.996" y="405.891"/>
      <point x="432.752" y="463.4"/>
      <point x="396.052" y="463.4" type="curve" smooth="yes"/>
      <point x="361.367" y="463.4"/>
      <point x="343.403" y="449.299"/>
    </contour>
  </outline>
</glyph>
<glyph name="c" format="1">
  <advance width="574"/>
  <unicode hex="0063"/>
  <outline>
    <contour>
      <point x="393.126" y="511.425" type="curve" smooth="yes"/>
      <point x="456.292" y="511.425"/>
      <point x="515.956" y="492.004"/>
      <point x="556.178" y="417.226" type="curve" smooth="yes"/>
      <point x="557.83" y="414.154"/>
      <point x="559.71" y="410.977"/>
      <point x="559.71" y="406.657" type="curve" smooth="yes"/>
      <point x="559.71" y="379.821"/>
      <point x="511.677" y="357.875"/>
      <point x="493.048" y="357.875" type="curve" smooth="yes"/>
      <point x="422.816" y="357.875"/>
      <point x="449.072" y="470.325"/>
      <point x="383.64" y="470.325" type="curve" smooth="yes"/>
      <point x="314.338" y="470.325"/>
      <point x="216.371" y="329.743"/>
      <point x="216.371" y="195.656" type="curve" smooth="yes"/>
      <point x="216.371" y="122.196"/>
      <point x="255.448" y="51.6748"/>
      <point x="319.962" y="51.6748" type="curve" smooth="yes"/>
      <point x="361.373" y="51.6748"/>
      <point x="422.601" y="67.6504"/>
      <point x="470.691" y="105.139" type="curve"/>
      <point x="487.208" y="72.3486" type="line"/>
      <point x="420.063" y="11.6934"/>
      <point x="379.004" y="-10.4248"/>
      <point x="278.38" y="-10.4248" type="curve" smooth="yes"/>
      <point x="167.47" y="-10.4248"/>
      <point x="23.6279" y="38.0186"/>
      <point x="23.6279" y="184.27" type="curve" smooth="yes"/>
      <point x="23.6279" y="391.378"/>
      <point x="183.362" y="511.425"/>
    </contour>
  </outline>
</glyph>
<glyph name="d" format="1">
  <advance width="713"/>
  <unicode hex="0064"/>
  <outline>
    <contour>
      <point x="582.466" y="59.5801" type="line"/>
      <point x="582.466" y="22.5596" type="line"/>
      <point x="550.07" y="7.9043"/>
      <point x="514.67" y="-6.7998"/>
      <point x="467.184" y="-6.7998" type="curve" smooth="yes"/>
      <point x="426.264" y="-6.7998"/>
      <point x="361.294" y="10.6992"/>
      <point x="361.294" y="23.2354" type="curve" smooth="yes"/>
      <point x="361.294" y="23.2354"/>
      <point x="312.04" y="-9.9502"/>
      <point x="264.223" y="-9.9502" type="curve" smooth="yes"/>
      <point x="133.479" y="-9.9502"/>
      <point x="40.2793" y="61.5879"/>
      <point x="40.2793" y="181.988" type="curve" smooth="yes"/>
      <point x="40.2793" y="403.97"/>
      <point x="168.479" y="511.9"/>
      <point x="361.389" y="511.9" type="curve" smooth="yes"/>
      <point x="390.37" y="511.9"/>
      <point x="436.465" y="503.636"/>
      <point x="467.21" y="475.252" type="curve"/>
      <point x="513.817" y="671.632" type="line"/>
      <point x="515.423" y="678.054"/>
      <point x="518.119" y="686.343"/>
      <point x="518.119" y="693.812" type="curve" smooth="yes"/>
      <point x="518.119" y="700.366"/>
      <point x="517.751" y="708.142"/>
      <point x="514.095" y="711.639" type="curve" smooth="yes"/>
      <point x="508.752" y="716.75"/>
      <point x="498.622" y="719.101"/>
      <point x="491.802" y="719.101" type="curve" smooth="yes"/>
      <point x="483.585" y="719.101" type="line"/>
      <point x="488.96" y="744.472" type="line"/>
      <point x="526.499" y="753.923"/>
      <point x="664.609" y="762.804"/>
      <point x="701.678" y="772.726" type="curve" smooth="yes"/>
      <point x="702.421" y="772.958"/>
      <point x="704.761" y="774.15"/>
      <point x="708.225" y="774.15" type="curve" smooth="yes"/>
      <point x="716.236" y="774.15"/>
      <point x="719.062" y="766.616"/>
      <point x="719.062" y="762.415" type="curve" smooth="yes"/>
      <point x="719.062" y="757.738"/>
      <point x="717.61" y="752.53"/>
      <point x="716.13" y="746.608" type="curve"/>
      <point x="556.791" y="69.6436" type="line"/>
      <point x="552.719" y="52.4678" type="line"/>
    </contour>
    <contour>
      <point x="379.246" y="96.4932" type="curve"/>
      <point x="443.456" y="366.926" type="line"/>
      <point x="444.786" y="373.834"/>
      <point x="447.852" y="388.569"/>
      <point x="447.852" y="394.449" type="curve" smooth="yes"/>
      <point x="447.852" y="434.295"/>
      <point x="428.876" y="471.85"/>
      <point x="392.083" y="471.85" type="curve" smooth="yes"/>
      <point x="313.596" y="471.85"/>
      <point x="233.324" y="319.231"/>
      <point x="233.324" y="180.076" type="curve" smooth="yes"/>
      <point x="233.324" y="124.223"/>
      <point x="264.622" y="44.4922"/>
      <point x="304.875" y="44.4922" type="curve" smooth="yes"/>
      <point x="358.435" y="44.4922"/>
      <point x="372.446" y="80.2891"/>
    </contour>
  </outline>
</glyph>
<glyph name="e" format="1">
  <advance width="594"/>
  <unicode hex="0065"/>
  <outline>
    <contour>
      <point x="580.616" y="417.644" type="curve" smooth="yes"/>
      <point x="580.616" y="247.021"/>
      <point x="303.218" y="240.302"/>
      <point x="218.851" y="221.783" type="curve"/>
      <point x="216.535" y="207.759"/>
      <point x="216.383" y="186.097"/>
      <point x="216.383" y="172.983" type="curve" smooth="yes"/>
      <point x="216.383" y="127.862"/>
      <point x="255.287" y="51.2002"/>
      <point x="319.99" y="51.2002" type="curve" smooth="yes"/>
      <point x="371.364" y="51.2002"/>
      <point x="427.451" y="68.8389"/>
      <point x="484.931" y="107.958" type="curve"/>
      <point x="487.66" y="100.854"/>
      <point x="500.845" y="83.2422"/>
      <point x="500.845" y="74.4854" type="curve" smooth="yes"/>
      <point x="500.845" y="72.1357"/>
      <point x="500.269" y="70.1924"/>
      <point x="498.813" y="68.959" type="curve" smooth="yes"/>
      <point x="435.78" y="15.5322"/>
      <point x="392.147" y="-10.4502"/>
      <point x="268.815" y="-10.4502" type="curve" smooth="yes"/>
      <point x="136.472" y="-10.4502"/>
      <point x="26.6162" y="48.7646"/>
      <point x="26.6162" y="175.73" type="curve" smooth="yes"/>
      <point x="26.6162" y="386.784"/>
      <point x="174.237" y="512.45"/>
      <point x="370.999" y="512.45" type="curve" smooth="yes"/>
      <point x="496.094" y="512.45"/>
      <point x="580.616" y="486.993"/>
    </contour>
    <contour>
      <point x="371.799" y="462.866" type="curve" smooth="yes"/>
      <point x="333.679" y="462.866"/>
      <point x="263.09" y="399.414"/>
      <point x="235.106" y="293.537" type="curve"/>
      <point x="312.002" y="309.446"/>
      <point x="423.267" y="346.037"/>
      <point x="423.267" y="408.454" type="curve" smooth="yes"/>
      <point x="423.267" y="443.087"/>
      <point x="401.896" y="462.866"/>
    </contour>
  </outline>
</glyph>
<glyph name="f" format="1">
  <advance width="582"/>
  <unicode hex="0066"/>
  <outline>
    <contour>
      <point x="444.007" y="484.899" type="curve" smooth="yes"/>
      <point x="444.007" y="477.925"/>
      <point x="432.596" y="444.948"/>
      <point x="430" y="440" type="curve" smooth="yes"/>
      <point x="426.181" y="433.063" type="line"/>
      <point x="421.468" y="433.063" type="line" smooth="yes"/>
      <point x="415.899" y="433.063"/>
      <point x="362.714" y="436.798"/>
      <point x="324.059" y="437.155" type="curve"/>
      <point x="222.749" y="16.6807" type="line" smooth="yes"/>
      <point x="192.55" y="-113.777"/>
      <point x="98.6875" y="-179.2"/>
      <point x="-67.4502" y="-179.2" type="curve" smooth="yes"/>
      <point x="-116.66" y="-179.2"/>
      <point x="-188.853" y="-162.871"/>
      <point x="-215.646" y="-113.752" type="curve"/>
      <point x="-215.646" y="-113.752"/>
      <point x="-219.013" y="-98.9775"/>
      <point x="-219.013" y="-96.6182" type="curve" smooth="yes"/>
      <point x="-219.013" y="-77.9561"/>
      <point x="-179.56" y="-47.8496"/>
      <point x="-154.75" y="-47.8496" type="curve" smooth="yes"/>
      <point x="-92.6309" y="-47.8496"/>
      <point x="-130.513" y="-137.05"/>
      <point x="-69.8848" y="-137.05" type="curve" smooth="yes"/>
      <point x="-18.6221" y="-137.05"/>
      <point x="21.2324" y="-78.9805"/>
      <point x="43.0303" y="24.125" type="curve" smooth="yes"/>
      <point x="138.121" y="436.808" type="line"/>
      <point x="114.453" y="436.043"/>
      <point x="105.259" y="432.942"/>
      <point x="105.165" y="432.928" type="curve" smooth="yes"/>
      <point x="92.3438" y="430.916" type="line"/>
      <point x="112.4" y="497.561" type="line"/>
      <point x="151.882" y="497.561" type="line"/>
      <point x="153.668" y="504.469"/>
      <point x="156.554" y="515.831"/>
      <point x="159.558" y="528.693" type="curve" smooth="yes"/>
      <point x="161.815" y="538.568"/>
      <point x="165.029" y="548.917"/>
      <point x="167.194" y="557.333" type="curve"/>
      <point x="214.352" y="718.222"/>
      <point x="328.688" y="768.825"/>
      <point x="487.418" y="768.825" type="curve" smooth="yes"/>
      <point x="546.097" y="768.825"/>
      <point x="596.133" y="753.033"/>
      <point x="621.194" y="700.774" type="curve"/>
      <point x="624.299" y="695.022"/>
      <point x="625.107" y="690.452"/>
      <point x="625.107" y="687.188" type="curve" smooth="yes"/>
      <point x="625.107" y="663.235"/>
      <point x="583.674" y="635.125"/>
      <point x="568.518" y="635.125" type="curve" smooth="yes"/>
      <point x="507.876" y="635.125"/>
      <point x="517.88" y="728.775"/>
      <point x="477.854" y="728.775" type="curve" smooth="yes"/>
      <point x="425.974" y="728.775"/>
      <point x="375.921" y="666.279"/>
      <point x="347.078" y="547.616" type="curve" smooth="yes"/>
      <point x="335.772" y="501.99" type="line"/>
      <point x="413.66" y="501.99" type="line" smooth="yes"/>
      <point x="430.135" y="501.99"/>
      <point x="444.007" y="497.937"/>
    </contour>
  </outline>
</glyph>
